<svg width="50" height="50" viewBox="0 0 50 50" fill="none" xmlns="http://www.w3.org/2000/svg">
<g clip-path="url(#clip0_545_19823)">
<ellipse cx="31.5" cy="25" rx="18.5" ry="19" fill="#FFD004"/>
<path d="M25 33.25C28.4518 33.25 31.25 30.4518 31.25 27C31.25 23.5482 28.4518 20.75 25 20.75C21.5482 20.75 18.75 23.5482 18.75 27C18.75 30.4518 21.5482 33.25 25 33.25Z" stroke="#313131" stroke-width="1.5" stroke-miterlimit="10" stroke-linecap="round" stroke-linejoin="round"/>
<path d="M4.16669 28.8332V25.1665C4.16669 22.9998 5.93752 21.2082 8.12502 21.2082C11.8959 21.2082 13.4375 18.5415 11.5417 15.2707C10.4584 13.3957 11.1042 10.9582 13 9.87483L16.6042 7.81233C18.25 6.83316 20.375 7.41649 21.3542 9.06233L21.5834 9.45816C23.4584 12.729 26.5417 12.729 28.4375 9.45816L28.6667 9.06233C29.6459 7.41649 31.7709 6.83316 33.4167 7.81233L37.0209 9.87483C38.9167 10.9582 39.5625 13.3957 38.4792 15.2707C36.5834 18.5415 38.125 21.2082 41.8959 21.2082C44.0625 21.2082 45.8542 22.979 45.8542 25.1665V28.8332C45.8542 30.9998 44.0834 32.7915 41.8959 32.7915C38.125 32.7915 36.5834 35.4582 38.4792 38.729C39.5625 40.6248 38.9167 43.0415 37.0209 44.1248L33.4167 46.1873C31.7709 47.1665 29.6459 46.5832 28.6667 44.9373L28.4375 44.5415C26.5625 41.2707 23.4792 41.2707 21.5834 44.5415L21.3542 44.9373C20.375 46.5832 18.25 47.1665 16.6042 46.1873L13 44.1248C11.1042 43.0415 10.4584 40.604 11.5417 38.729C13.4375 35.4582 11.8959 32.7915 8.12502 32.7915C5.93752 32.7915 4.16669 30.9998 4.16669 28.8332Z" stroke="#313131" stroke-width="1.5" stroke-miterlimit="10" stroke-linecap="round" stroke-linejoin="round"/>
</g>
<defs>
<clipPath id="clip0_545_19823">
<rect width="50" height="50" fill="white"/>
</clipPath>
</defs>
</svg>
