<svg width="1620" height="377" viewBox="0 0 1620 377" fill="none" xmlns="http://www.w3.org/2000/svg">
  <g clip-path="url(#clip0_1319_2185)">
    <g opacity="0.5">
      <path d="M-343 318.508C-253.132 318.341 -156.744 321.572 -68.1508 313.158C71.0351 299.936 202.602 269.15 340.752 253.381C392.237 247.505 440.726 243.863 490.729 254.773C531.295 263.678 565.869 278.957 598.928 294.227C657.443 321.222 720.325 357.104 801.363 360.125C853.151 362.06 905.226 347.218 949.953 334.654C999.573 320.714 1047.28 304.831 1096.89 290.874C1142.47 278.055 1196.67 262.329 1249.59 265.613C1296.36 268.511 1338.42 284.788 1374.09 300.461C1443.72 331.107 1519.88 381.769 1618.55 376.638C1736.79 370.509 1832.82 323.507 1952.32 318.472" stroke="url(#paint0_linear_1319_2185)" stroke-opacity="0.2" stroke-miterlimit="10" />
      <path d="M-342.983 307.632C-254.724 307.466 -159.357 310.706 -72.4691 302.133C69.1715 288.168 202.268 255.28 342.73 238.53C393.976 232.401 442.831 228.487 492.324 240.176C532.843 249.746 566.38 266.339 598.244 282.66C654.32 311.371 714.827 350.23 796.853 353.584C850.06 355.737 903.649 339.662 949.078 326.37C1000.36 311.353 1049.5 294.262 1100.78 279.228C1147 265.665 1202.79 248.704 1257.13 252.163C1304.39 255.175 1345.74 272.468 1380.44 289.043C1447.91 321.256 1521.75 375.552 1621.99 370.08C1740.23 363.627 1832.6 312.851 1952.34 307.667" stroke="url(#paint1_linear_1319_2185)" stroke-opacity="0.2" stroke-miterlimit="10" />
      <path d="M-342.957 296.95C-255.941 296.81 -161.164 300.111 -75.5513 291.609C67.2848 277.425 200.748 242.812 342.293 225.607C392.838 219.478 442.602 215.485 491.394 227.253C532.247 237.103 565.322 254.589 596.596 271.602C651.78 301.67 710.502 342.087 794.249 345.345C848.635 347.464 902.368 331.221 948.434 317.326C1000.8 301.565 1050.85 283.598 1103.19 267.819C1150.01 253.705 1206.04 236.473 1261.49 239.905C1309.31 242.865 1349.96 260.473 1384.23 277.757C1451.17 311.512 1521.48 367.182 1624.07 361.762C1742.62 355.502 1832.2 301.6 1952.43 296.968" stroke="url(#paint2_linear_1319_2185)" stroke-opacity="0.2" stroke-miterlimit="10" />
      <path d="M-342.94 286.443C-256.244 286.145 -161.769 289.858 -76.5232 281.189C65.3406 266.733 197.099 231.088 337.528 213.479C387.929 207.166 437.661 203.384 486.421 215.012C527.864 224.915 561.593 242.611 593.329 259.834C649.533 290.339 708.876 331.274 793.724 335.091C848.493 337.552 901.907 321.511 948.18 307.396C1000.62 291.39 1050.58 273.073 1103 257.058C1150.04 242.681 1205.78 225.685 1261.65 229.363C1309.79 232.532 1350.2 250.176 1384.53 267.653C1451.75 301.88 1520.72 356.815 1624.12 351.71C1743 345.861 1831.66 290.488 1952.38 286.443" stroke="url(#paint3_linear_1319_2185)" stroke-opacity="0.2" stroke-miterlimit="10" />
      <path d="M-342.925 276.172C-255.862 275.629 -161.674 280.313 -76.1255 271.041C63.2199 255.937 192.013 219.705 329.876 201.475C380.883 194.724 429.308 191.213 478.769 202.919C520.962 212.892 555.886 230.404 588.785 247.478C646.854 277.652 708.7 318.997 793.547 324.207C847.982 327.552 901.587 311.467 947.462 297.361C999.266 281.434 1048.47 263.099 1100.26 247.154C1147.2 232.698 1202.94 215.834 1258.73 220.204C1306.73 223.96 1347.72 241.857 1382.54 259.141C1450.11 292.677 1521.07 346.579 1623.23 341.623C1742.39 335.835 1831.34 280.147 1952.35 276.172" stroke="url(#paint4_linear_1319_2185)" stroke-opacity="0.2" stroke-miterlimit="10" />
      <path d="M-342.892 266.076C-255.335 265.428 -161.402 271.417 -75.3277 261.602C61.1803 246.034 186.61 209.329 321.572 190.679C373.01 183.551 420.303 180.373 470.322 191.931C513.168 201.834 549.495 218.89 583.622 235.833C643.635 265.604 708.334 306.8 793.102 313.271C847.042 317.395 900.233 301.643 945.693 287.599C996.621 271.838 1044.79 253.617 1095.69 237.865C1142.49 223.382 1197.7 207 1253.23 211.991C1301.28 216.316 1343.01 234.292 1378.6 251.393C1447.06 284.227 1520.35 336.781 1621.73 331.895C1741.42 326.134 1830.86 270.087 1952.4 266.129" stroke="url(#paint5_linear_1319_2185)" stroke-opacity="0.2" stroke-miterlimit="10" />
      <path d="M-342.859 256.173C-254.696 255.552 -160.811 263.126 -74.1306 252.811C59.2533 236.954 181.033 199.873 312.823 180.898C364.468 173.465 410.868 170.671 461.302 181.897C504.913 191.598 542.595 208.164 578.045 224.801C640.56 254.037 707.523 294.638 792.53 302.3C845.832 307.098 898.083 292.029 943.097 278.081C992.908 262.635 1039.85 244.572 1089.63 229.109C1136.25 214.618 1190.4 199.049 1245.6 204.592C1293.87 209.452 1336.46 227.358 1373.12 244.222C1442.95 276.33 1518.86 327.272 1619.69 322.412C1740.12 316.607 1830.24 260.184 1952.51 256.2" stroke="url(#paint6_linear_1319_2185)" stroke-opacity="0.2" stroke-miterlimit="10" />
      <path d="M-342.844 246.463C-253.963 245.973 -160.11 255.368 -72.6488 244.607C57.3877 228.61 175.294 191.196 303.689 172.116C355.302 164.429 401.065 162.038 451.753 172.773C496.145 182.177 535.15 198.165 572.051 214.294C637.404 242.865 706.407 282.494 791.732 291.259C894.703 301.845 998.758 246.752 1082.2 220.782C1128.65 206.317 1181.33 191.826 1236.05 197.894C1284.7 203.296 1328.18 221.027 1366.11 237.637C1437.71 268.992 1516.45 318.113 1617.03 313.228C1738.35 307.344 1829.33 250.509 1952.48 246.463" stroke="url(#paint7_linear_1319_2185)" stroke-opacity="0.2" stroke-miterlimit="10" />
      <path d="M-342.809 236.954C-253.147 236.682 -159.278 248.091 -70.9083 236.954C55.6374 220.948 169.479 183.359 294.303 164.218C345.741 156.338 391.058 154.376 441.89 164.489C487.095 173.499 527.454 188.778 565.805 204.399C633.995 232.156 705.055 270.463 790.811 280.313C892.219 291.941 991.795 238.442 1073.69 212.892C1118.98 198.787 1171.77 184.567 1224.99 191.834C1274.41 198.576 1317.94 214.924 1358.01 231.56C1431.67 262.119 1513.44 309.252 1614.02 304.314C1736.37 298.316 1828.33 241.052 1952.52 236.893" stroke="url(#paint8_linear_1319_2185)" stroke-opacity="0.2" stroke-miterlimit="10" />
      <path d="M-342.78 227.629C-252.274 227.629 -158.309 241.227 -68.9508 229.678C53.9926 213.786 163.658 176.039 284.8 157.003C495.205 123.915 604.966 246.069 789.788 269.448C889.411 282.065 983.95 230.492 1064.37 205.459C1109.44 191.449 1160.2 178.692 1212.75 186.371C1262.78 193.682 1307.34 209.671 1349.02 225.992C1424.97 255.762 1509.91 300.75 1610.7 295.733C1734.19 289.604 1827.23 231.893 1952.56 227.629" stroke="url(#paint9_linear_1319_2185)" stroke-opacity="0.2" stroke-miterlimit="10" />
      <path d="M-342.752 218.505C-251.369 218.873 -157.245 234.704 -66.8186 222.813C52.4586 207.131 157.932 169.297 275.296 150.427C481.35 117.312 606.843 233.609 788.684 258.66C886.586 272.162 975.45 222.874 1054.4 198.323C1099.29 184.366 1147.82 173.289 1199.63 181.319C1250.33 189.199 1296.01 204.785 1339.37 220.764C1417.76 249.659 1505.94 292.484 1607.16 287.353C1731.86 281.04 1826.06 222.909 1952.6 218.505" stroke="url(#paint10_linear_1319_2185)" stroke-opacity="0.2" stroke-miterlimit="10" />
      <path d="M-342.719 209.574C-250.428 210.319 -156.113 228.461 -64.5546 216.273C51.0723 200.88 152.226 163.001 265.956 144.386C467.642 111.367 608.661 221.307 787.553 248.031C883.701 262.39 966.524 215.529 1044.09 191.458C1088.81 177.58 1134.94 168.281 1185.95 176.573C1237.36 184.97 1284.22 200.214 1329.3 215.8C1410.21 243.819 1501.64 284.412 1603.37 279.167C1729.29 272.661 1824.74 214.093 1952.54 209.539" stroke="url(#paint11_linear_1319_2185)" stroke-opacity="0.2" stroke-miterlimit="10" />
      <path d="M-342.688 200.836C-249.504 201.965 -154.917 222.428 -62.1478 209.986C49.9086 194.943 146.886 157.047 256.95 138.747C454.348 105.921 610.446 209.259 786.405 237.585C880.816 252.785 957.422 208.419 1033.66 184.813C1078.2 171.022 1122.08 163.553 1172.24 172.143C1224.37 181.074 1272.46 195.933 1319.22 211.133C1402.67 238.277 1497.32 276.628 1599.68 271.252C1726.93 264.562 1823.56 205.582 1952.64 200.836" stroke="url(#paint12_linear_1319_2185)" stroke-opacity="0.2" stroke-miterlimit="10" />
      <path d="M-342.655 192.299C-248.61 193.805 -153.705 216.535 -59.8679 203.883C48.7456 189.234 141.626 151.347 248.184 133.406C441.676 100.834 612.248 197.447 785.353 227.357C878.043 243.381 948.417 201.51 1023.41 178.324C1067.76 164.621 1109.49 158.982 1158.69 167.817C1211.53 177.291 1260.84 191.808 1309.28 206.588C1395.18 232.804 1492.98 268.992 1596.05 263.502C1724.57 256.629 1822.39 197.167 1952.73 192.316" stroke="url(#paint13_linear_1319_2185)" stroke-opacity="0.2" stroke-miterlimit="10" />
      <path d="M-342.623 183.946C-247.638 185.811 -152.51 210.721 -57.5247 197.894C47.8211 183.665 136.781 145.805 240.023 128.249C429.801 95.9744 614.017 185.881 784.222 217.376C875.365 234.24 939.443 194.689 1013.4 171.967C1057.6 158.396 1097.15 154.456 1145.53 163.544C1199.05 173.561 1249.55 187.79 1299.57 202.141C1387.83 227.454 1488.65 261.515 1592.43 255.885C1722.16 248.836 1821.13 188.945 1952.67 183.946" stroke="url(#paint14_linear_1319_2185)" stroke-opacity="0.2" stroke-miterlimit="10" />
      <path d="M-342.591 175.794C-246.714 177.965 -151.314 204.925 -55.2613 191.966C47.0719 178.167 132.35 140.306 232.499 123.162C329.652 106.525 433.005 125.307 523.75 145.375C611.259 164.735 694.449 190.127 783.265 207.683C873.261 225.475 930.66 187.789 1004.06 165.654C1101.53 136.278 1201.37 173.535 1290.58 197.692C1380.97 222.139 1484.63 254.168 1589.1 248.416C1719.98 241.218 1820.03 180.907 1952.73 175.785" stroke="url(#paint15_linear_1319_2185)" stroke-opacity="0.2" stroke-miterlimit="10" />
      <path d="M-342.559 167.826C-245.789 170.251 -150.373 199.076 -53.093 186.02C46.5145 172.641 128.397 134.807 225.853 118.039C322.113 101.455 428.192 119.466 519.367 137.845C608.646 155.847 693.621 179.62 782.421 198.323C871.221 217.025 923.089 181.187 995.551 159.367C1090.81 130.691 1194.8 170.75 1282.47 193.209C1374.76 216.85 1481.04 246.936 1586.09 241.104C1717.99 233.776 1819.03 173.062 1952.7 167.826" stroke="url(#paint16_linear_1319_2185)" stroke-opacity="0.2" stroke-miterlimit="10" />
      <path d="M-342.525 160.059C-244.846 162.686 -149.511 193.122 -51.0986 179.988C46.1339 167.02 125.004 129.203 219.877 112.759C315.404 96.2544 423.906 113.53 515.496 130.385C606.352 147.118 693.033 169.463 781.69 189.313C823.516 198.673 854.168 199.058 894.607 186.984C927.475 177.168 955.274 162.914 988.094 153.028C1031.88 139.824 1066.76 140.192 1112.61 150.007C1167.72 161.819 1221.4 175.4 1275.47 188.595C1369.31 211.431 1477.91 239.765 1583.43 233.881C1716.24 226.473 1818.12 165.357 1952.75 160.059" stroke="url(#paint17_linear_1319_2185)" stroke-opacity="0.2" stroke-miterlimit="10" />
      <path d="M-342.494 152.476C-243.906 155.103 -148.858 186.992 -49.2979 173.814C46.0059 161.197 122.182 123.24 215.143 107.216C310.175 90.8339 420.67 107.391 512.626 122.977C604.583 138.563 692.873 159.752 781.243 180.767C822.081 190.477 851.936 191.852 892.024 179.838C923.808 170.312 950.332 156.25 982.036 146.653C1025.58 133.467 1059.92 134.868 1104.98 145.007C1160.35 157.467 1214.87 171.021 1269.96 183.849C1364.97 205.966 1475.69 232.724 1581.37 226.823C1714.91 219.372 1817.49 157.887 1952.77 152.555" stroke="url(#paint18_linear_1319_2185)" stroke-opacity="0.2" stroke-miterlimit="10" />
      <path d="M-342.464 145.104C-242.952 147.661 -148.445 180.653 -47.77 167.441C46.1151 155.103 119.916 116.857 211.586 101.307C306.491 85.1869 418.181 100.991 510.711 115.465C603.991 130.044 693.046 150.349 781.049 172.519C821.058 182.588 850.579 184.707 890.364 172.694C921.287 163.369 946.743 149.394 977.571 139.982C1020.91 126.752 1055.21 128.897 1099.59 139.421C1155.04 152.555 1210.2 166.145 1266.13 178.701C1361.77 200.179 1474.33 225.554 1579.93 219.696C1714 212.254 1817.07 150.419 1952.92 145.104" stroke="url(#paint19_linear_1319_2185)" stroke-opacity="0.2" stroke-miterlimit="10" />
      <path d="M-342.429 137.915C-242.009 140.236 -148.315 174.025 -46.5234 160.777C46.3895 148.685 118.597 110.273 209.166 94.9059C303.769 78.865 416.925 94.328 509.694 107.9C603.93 121.69 693.384 141.444 780.973 164.814C820.328 175.321 850.008 177.86 889.586 165.768C919.872 156.513 944.531 142.53 974.768 133.187C1017.95 119.843 1052.73 122.365 1096.58 133.371C1151.92 147.258 1207.49 160.943 1264.04 173.289C1359.97 194.225 1473.84 218.461 1579.01 212.691C1713.4 205.327 1816.72 143.16 1952.9 137.915" stroke="url(#paint20_linear_1319_2185)" stroke-opacity="0.2" stroke-miterlimit="10" />
      <path d="M-342.382 130.911C-241.452 132.995 -148.411 167.152 -45.9983 153.781C46.5957 141.698 118.372 103.321 208.655 88.0414C303.162 72.053 416.828 87.8312 509.63 101.114C604.2 114.651 693.367 134.255 781.068 157.73C820.279 168.237 850.374 170.426 889.681 158.413C919.759 149.219 944.259 135.359 974.337 126.139C1017.37 112.952 1052.79 115.404 1096.23 126.725C1151.33 141.085 1206.96 154.876 1263.76 167.099C1359.22 187.649 1474.57 211.614 1578.93 205.625C1713.13 197.938 1817.12 136.821 1952.94 130.937" stroke="url(#paint21_linear_1319_2185)" stroke-opacity="0.2" stroke-miterlimit="10" />
      <path d="M-342.351 124.019C-241.197 125.998 -148.428 160.383 -45.776 146.855C46.6745 134.667 118.818 96.6133 209.164 81.4304C303.671 65.5471 417.083 82.0171 509.74 95.3875C604.008 108.994 692.792 128.564 781.099 150.927C864.687 172.09 906.114 139.544 974.958 119.247C1018 106.56 1053.64 108.872 1096.67 120.237C1151.54 134.728 1207.07 148.484 1263.85 160.567C1358.76 180.758 1475.61 204.837 1579.22 198.34C1712.84 189.952 1818.11 131.322 1953.02 124.151" stroke="url(#paint22_linear_1319_2185)" stroke-opacity="0.2" stroke-miterlimit="10" />
      <path d="M-342.319 117.233C-240.862 119.142 -148.316 153.781 -45.3453 140.139C47.1053 127.881 119.535 90.2299 209.93 75.1871C304.437 59.4263 417.513 76.5268 510.028 89.9409C603.929 103.556 692.378 123.038 781.195 144.272C864.081 164.095 906.991 132.127 975.883 112.75C1018.92 100.614 1054.88 102.856 1097.53 114.239C1152.14 128.809 1207.52 142.459 1264.28 154.332C1358.8 174.112 1476.82 197.937 1579.57 191.002C1712.52 182.036 1819.08 125.954 1953.01 117.645" stroke="url(#paint23_linear_1319_2185)" stroke-opacity="0.2" stroke-miterlimit="10" />
      <path d="M-342.286 110.57C-240.479 112.427 -148.076 147.345 -44.7231 133.642C47.6159 121.402 120.477 84.1799 210.935 69.2947C305.441 53.7966 418.151 71.3261 510.49 84.749C603.945 98.3208 692.204 117.654 781.339 137.714C863.636 156.215 908.012 124.956 977.079 106.481C1020.23 94.9497 1056.46 97.1913 1098.79 108.565C1153.1 123.161 1208.36 136.654 1265.03 148.247C1359.31 167.554 1478.05 190.793 1580.1 183.499C1712.4 174.051 1820.18 120.605 1953.09 111.271" stroke="url(#paint24_linear_1319_2185)" stroke-opacity="0.2" stroke-miterlimit="10" />
      <path d="M-342.255 104.021C-240.017 105.86 -147.79 141.05 -43.9105 127.338C48.3488 115.167 121.656 78.3659 212.193 63.7784C306.668 48.5518 418.805 66.4752 511.112 79.8544C604.056 93.3386 692.044 112.47 781.546 131.322C863.221 148.527 909.159 118.092 978.545 100.615C1021.84 89.7048 1058.36 92.0252 1100.42 103.364C1154.3 118.034 1209.59 131.088 1266.05 142.468C1360.25 161.241 1479.32 183.621 1580.78 175.995C1712.22 166.162 1821.33 115.412 1953.07 105.194" stroke="url(#paint25_linear_1319_2185)" stroke-opacity="0.2" stroke-miterlimit="10" />
      <path d="M-342.204 97.5938C-239.505 99.4325 -147.309 134.929 -42.9196 121.235C49.26 109.16 123.061 72.8494 213.71 58.5596C308.153 43.6745 419.811 61.8782 511.943 75.196C604.394 88.5401 692.142 107.409 781.851 125.035C862.921 140.971 910.517 111.437 980.317 95.0195C1023.82 84.7838 1060.61 87.2355 1102.43 98.5219C1155.99 113.095 1211.08 125.904 1267.41 136.882C1361.66 155.068 1480.71 176.231 1581.63 168.403C1712.22 158.273 1822.57 110.299 1953.17 99.2837" stroke="url(#paint26_linear_1319_2185)" stroke-opacity="0.2" stroke-miterlimit="10" />
      <path d="M-342.173 91.3072C-238.947 93.1547 -146.768 128.958 -41.7887 115.369C50.3272 103.443 124.654 67.6573 215.336 53.7091C309.731 39.1917 420.799 57.6142 512.851 70.8182C604.616 83.9522 692.333 102.524 782.137 118.897C862.633 133.581 911.982 105.054 982.261 89.7487C1026 80.2222 1063.08 82.8577 1104.73 94.1267C1157.92 108.561 1212.76 121.082 1268.91 131.611C1363.32 149.123 1482 168.876 1582.49 160.865C1712.17 150.533 1823.72 105.387 1953.14 93.6976" stroke="url(#paint27_linear_1319_2185)" stroke-opacity="0.2" stroke-miterlimit="10" />
      <path d="M-342.141 85.1431C-238.342 87.0344 -146.082 123.179 -40.4975 109.66C51.5546 97.9443 126.424 62.7278 217.201 49.1561C311.532 35.0589 421.994 53.6128 513.839 66.668C604.967 79.6268 692.588 97.778 782.424 112.891C862.362 126.331 913.561 98.8812 984.365 84.7491C1028.37 75.9931 1065.74 78.83 1107.26 90.0027C1160.1 104.265 1214.71 116.452 1270.69 126.471C1365.4 143.309 1483.42 161.39 1583.54 153.238C1712.29 142.731 1824.98 100.519 1953.18 88.2252" stroke="url(#paint28_linear_1319_2185)" stroke-opacity="0.2" stroke-miterlimit="10" />
      <path d="M-342.112 79.1188C-237.691 81.0627 -145.447 117.558 -39.0815 104.222C52.9068 92.6818 128.366 58.0607 219.238 44.9093C313.49 31.2762 423.267 49.8914 514.984 62.7802C605.474 75.5026 693.015 93.1985 782.772 107.033C862.168 119.291 915.327 92.962 986.689 80.047C1031 72.0353 1068.65 75.1787 1110.08 86.1762C1162.55 100.223 1216.9 112.037 1272.66 121.515C1367.74 137.582 1484.81 153.799 1584.64 145.55C1712.43 135.043 1826.19 95.7289 1953.18 82.9277" stroke="url(#paint29_linear_1319_2185)" stroke-opacity="0.2" stroke-miterlimit="10" />
      <path d="M-342.077 73.2434C-237.002 75.2573 -144.663 112.102 -37.6279 98.9509C54.4083 87.682 130.457 53.6563 221.441 40.9601C315.597 27.8262 424.609 46.4326 516.326 59.1288C606.147 71.5798 693.624 88.7677 783.285 101.315C862.139 112.356 917.37 87.2529 989.323 75.6163C1033.95 68.4013 1071.87 71.8512 1113.27 82.7962C1165.36 96.596 1219.44 107.997 1274.96 116.883C1370.41 132.127 1486.29 146.347 1585.9 138.003C1712.68 127.434 1827.47 91.1844 1953.25 77.9453" stroke="url(#paint30_linear_1319_2185)" stroke-opacity="0.2" stroke-miterlimit="10" />
      <path d="M-342.046 67.5431C-236.317 69.6183 -143.867 106.814 -35.8908 93.8811C56.0019 82.8661 132.688 49.5058 223.768 37.2912C317.812 24.6739 426.075 43.2365 517.585 55.6788C606.752 67.8321 694.166 84.4509 783.636 95.7198C861.996 105.597 919.41 81.7103 991.92 71.4133C1036.87 65.0126 1075.09 68.7865 1116.51 79.6526C1168.2 93.1765 1221.99 104.133 1277.24 112.391C1373.31 126.751 1487.76 138.747 1587.21 130.42C1713 119.913 1828.69 86.7099 1953.28 73.0944" stroke="url(#paint31_linear_1319_2185)" stroke-opacity="0.2" stroke-miterlimit="10" />
      <path d="M-342.013 61.9393C-235.52 64.1371 -142.894 101.691 -34.153 89.004C57.7237 78.2955 135.079 45.6007 226.223 33.8939C320.188 21.837 427.638 40.2945 519.02 52.5266C607.518 64.3735 694.867 80.3619 784.098 90.3524C861.996 99.1084 921.674 76.5093 994.726 67.5869C1040.01 62.0269 1078.52 66.2035 1120 76.9208C1171.3 90.1414 1224.79 100.624 1279.74 108.223C1376.4 121.638 1489.26 131.33 1588.58 122.995C1713.39 112.531 1829.91 82.4983 1953.31 68.5676" stroke="url(#paint32_linear_1319_2185)" stroke-opacity="0.2" stroke-miterlimit="10" />
      <path d="M-341.986 56.5199C-234.727 58.8315 -141.942 96.7449 -32.2924 84.3376C59.5046 73.9443 137.482 41.9412 228.785 30.7686C322.622 19.2808 429.243 37.607 520.482 49.5677C608.342 61.0818 695.58 76.396 784.524 85.1082C862.023 92.6996 924.013 71.4664 997.623 63.8749C1043.23 59.173 1082.01 63.7611 1123.63 74.3821C1174.53 87.2739 1227.71 97.2501 1282.34 104.152C1379.57 116.551 1490.7 123.836 1589.98 115.535C1713.81 105.194 1831.06 78.331 1953.34 64.1201" stroke="url(#paint33_linear_1319_2185)" stroke-opacity="0.2" stroke-miterlimit="10" />
      <path d="M-341.956 51.266C-233.949 53.7002 -140.924 91.9726 -30.4298 79.863C61.3832 69.8024 140.014 38.5086 231.429 27.8876C325.138 17.0039 430.915 35.1463 522.09 46.8267C609.328 58.0081 696.439 72.5868 785.096 80.0294C862.26 86.5001 926.609 66.6503 1000.74 60.4598C1046.68 56.6159 1085.74 61.6419 1127.51 72.1052C1178.02 84.6636 1230.89 94.1247 1285.17 100.317C1383.06 111.638 1492.29 116.437 1591.54 108.197C1714.27 97.9879 1832.23 74.3643 1953.37 59.9169" stroke="url(#paint34_linear_1319_2185)" stroke-opacity="0.2" stroke-miterlimit="10" />
      <path d="M-341.921 46.1789C-233.132 48.7444 -139.869 87.3319 -28.4659 75.5902C63.3471 65.8798 142.631 35.2952 234.157 25.2521C327.74 15.0076 432.655 32.9223 523.719 44.3051C610.368 55.1362 697.319 68.9356 785.593 75.1174C862.487 80.5023 929.179 62.0622 1003.79 57.2727C1050.02 54.3044 1089.37 59.7856 1131.31 70.1177C1181.42 82.3188 1233.98 91.2383 1287.89 96.6921C1386.39 106.875 1493.7 109.143 1592.94 100.965C1714.79 90.9306 1833.2 70.573 1953.29 55.9155" stroke="url(#paint35_linear_1319_2185)" stroke-opacity="0.2" stroke-miterlimit="10" />
      <path d="M-341.889 41.2758C-232.303 43.9726 -138.768 82.9542 -26.4728 71.5189C65.3242 62.1588 145.31 32.3097 236.948 22.8882C330.371 13.2567 434.409 30.97 525.457 42.0375C611.532 52.5447 698.292 65.4948 786.2 70.4244C862.95 74.7323 931.921 57.7282 1007.11 54.3484C1053.67 52.2558 1093.18 58.2186 1135.52 68.4105C1185.25 80.2482 1237.48 88.6141 1291 93.3125C1515.75 113.705 1735.99 79.303 1953.52 52.1595" stroke="url(#paint36_linear_1319_2185)" stroke-opacity="0.2" stroke-miterlimit="10" />
      <path d="M-341.857 36.53C-231.458 39.3757 -137.653 78.6988 -24.4327 67.6225C67.3643 58.6389 148.035 29.534 239.785 20.6642C333.048 11.6456 436.21 29.14 527.067 39.8836C612.647 50.0317 699.152 62.1413 786.662 65.7925C863.396 69.0235 934.535 53.5341 1010.28 51.5203C1057.11 50.2944 1096.96 56.7738 1139.54 66.8169C1188.69 78.4887 1240.9 85.9312 1293.9 90.0465C1512.92 107.059 1741.37 75.4766 1953.47 48.517" stroke="url(#paint37_linear_1319_2185)" stroke-opacity="0.2" stroke-miterlimit="10" />
      <path d="M-341.825 31.9766C-230.613 34.9712 -136.521 74.6357 -22.3764 63.9272C69.4366 55.285 150.777 26.9595 242.638 18.6851C335.742 10.3056 438.012 27.5636 528.772 37.9482C613.891 47.7111 700.093 58.9625 787.204 61.423C864.081 63.5945 937.229 49.5674 1013.55 48.9807C1060.65 48.6217 1100.75 55.609 1143.66 65.5295C1192.5 76.816 1244.36 83.6194 1296.91 86.9992C1397.03 93.4348 1498.55 87.9536 1597.84 80.0819C1716.97 70.6343 1836.28 60.2672 1953.5 45.0581" stroke="url(#paint38_linear_1319_2185)" stroke-opacity="0.2" stroke-miterlimit="10" />
      <path d="M-341.794 27.6073C-230.726 30.6982 -136.761 70.4328 -22.7284 60.6436C68.718 52.7632 150.218 25.5409 241.361 17.284C333.493 8.93959 433.706 25.4971 523.67 35.4965C610.638 45.128 698.737 55.8891 787.76 57.2375C866.789 58.4371 943.794 45.1806 1022.65 46.7304C1070.24 47.6673 1109.92 56.2131 1153.55 65.7046C1198.86 75.5638 1246.71 81.2114 1295.11 83.882C1398.11 89.5646 1500.27 81.1851 1602.04 73.2785C1719.52 64.1548 1838.05 57.1325 1953.58 41.8796" stroke="url(#paint39_linear_1319_2185)" stroke-opacity="0.2" stroke-miterlimit="10" />
      <path d="M-341.779 23.4305C-229.945 26.6703 -135.598 66.7376 -20.7201 57.3249C70.7422 49.8298 152.896 23.3255 244.183 15.6728C336.123 8.00252 435.539 24.3237 525.376 33.999C611.929 43.3329 699.693 53.2621 788.254 53.2621C867.746 53.2621 946.456 41.7656 1025.96 44.6988C1073.62 46.45 1113.63 55.4862 1157.59 64.7762C1202.61 74.2852 1250.14 79.3374 1298.12 81.3338C1401.46 85.633 1501.85 74.5742 1603.6 66.8864C1720.32 58.0692 1838.83 54.3129 1953.55 38.8673" stroke="url(#paint40_linear_1319_2185)" stroke-opacity="0.2" stroke-miterlimit="10" />
      <path d="M-341.743 19.4558C-229.065 22.8443 -134.527 63.2356 -18.6765 54.1907C72.8177 47.0458 155.609 21.2858 247.023 14.2285C338.773 7.12737 437.408 23.3347 527.196 32.6948C613.271 41.6872 700.701 50.7234 788.8 49.445C868.865 48.2804 949.122 38.5088 1029.3 42.808C1077.02 45.3735 1117.35 54.8912 1161.6 63.9799C1206.23 73.1474 1253.54 77.6042 1301.07 78.9264C1404.68 81.8246 1503.41 68.139 1605.14 60.6614C1721.12 52.1331 1839.45 51.6602 1953.5 36.0221" stroke="url(#paint41_linear_1319_2185)" stroke-opacity="0.2" stroke-miterlimit="10" />
      <path d="M-341.712 15.6819C-228.253 19.1843 -133.316 59.9171 -16.6525 51.2487C74.8576 44.4453 158.286 19.3857 249.844 12.9588C341.402 6.53191 439.24 22.5203 528.79 31.5565C614.657 40.2249 701.672 48.4117 789.293 45.8462C870.06 43.4821 951.688 35.4617 1032.53 41.1093C1080.35 44.4453 1120.97 54.4796 1165.63 63.3582C1210.29 72.2367 1257 76.0544 1304.08 76.7198C1407.69 78.1996 1505.12 61.9485 1606.73 54.681C1722.04 46.4329 1840.28 49.2348 1953.56 33.369" stroke="url(#paint42_linear_1319_2185)" stroke-opacity="0.2" stroke-miterlimit="10" />
      <path d="M-341.695 12.1092C-227.454 15.7867 -132.182 56.7647 -14.6906 48.4991C76.8674 42.0284 160.902 17.7306 252.587 11.8466C343.89 5.98881 441.123 21.8721 530.513 30.6019C616.125 38.955 702.662 46.2838 789.852 42.4574C871.416 38.8762 954.255 32.5982 1035.82 39.568C1083.49 43.6483 1124.59 54.208 1169.57 62.8851C1213.72 71.3959 1260.43 74.6707 1307 74.6969C1410.61 74.767 1506.79 56.0292 1608.26 48.9544C1723.03 40.9514 1840.98 47.0193 1953.57 30.8996" stroke="url(#paint43_linear_1319_2185)" stroke-opacity="0.2" stroke-miterlimit="10" />
      <path d="M-341.682 8.75586C-226.677 12.556 -131.118 53.8754 -12.7815 45.925C78.8242 39.7958 163.464 16.1547 255.261 10.9011C346.469 5.64749 442.729 21.4082 532.135 29.8315C617.572 37.852 703.678 44.3576 790.359 39.2879C872.799 34.4722 956.706 29.9366 1039.02 38.2022C1086.68 42.9742 1128.12 54.068 1173.44 62.5438C1217.38 70.7569 1263.69 73.445 1309.84 72.8496C1413.28 71.5274 1508.46 50.3905 1609.79 43.482C1723.9 35.7067 1841.55 45.0406 1953.61 28.5969" stroke="url(#paint44_linear_1319_2185)" stroke-opacity="0.2" stroke-miterlimit="10" />
      <path d="M-341.648 5.6123C-225.925 9.54374 -130.032 51.1434 -10.9138 43.5432C80.7398 37.6854 166.017 14.8061 257.862 10.0516C348.878 5.34087 444.357 21.0754 533.716 29.1834C618.993 36.8974 704.669 42.5888 790.856 36.302C874.221 30.2253 959.164 27.4059 1042.05 36.9412C1089.66 42.4137 1131.46 54.0328 1177.17 62.3335C1220.85 70.2139 1266.91 72.3854 1312.66 71.1858C1415.84 68.4977 1510.2 45.0667 1611.35 38.3071C1724.93 30.7157 1842.23 43.2893 1953.74 26.5216" stroke="url(#paint45_linear_1319_2185)" stroke-opacity="0.2" stroke-miterlimit="10" />
      <path d="M-341.634 2.68799C-225.273 6.742 -129.029 48.6393 -9.14627 41.3456C82.5551 35.7593 168.311 13.5717 260.363 9.34253C351.22 5.17468 445.997 20.8829 535.212 28.7107C620.378 36.1971 705.624 41.0304 791.3 33.5528C875.637 26.1978 961.345 25.0595 1044.95 35.8293C1092.47 41.9585 1134.66 54.1031 1180.68 62.2111C1224.13 69.8638 1269.94 71.4486 1315.21 69.6799C1418.02 65.6609 1511.73 40.0672 1612.69 33.3952C1725.86 25.9439 1842.69 41.7396 1953.71 24.5692" stroke="url(#paint46_linear_1319_2185)" stroke-opacity="0.2" stroke-miterlimit="10" />
      <path d="M-341.62 0C-224.526 4.15033 -128.027 46.3279 -7.47458 39.3231C84.3065 33.9994 170.588 12.4685 262.736 8.75597C353.449 5.10473 447.494 20.8129 536.629 28.3956C621.715 35.6368 706.547 39.6646 791.745 31.0224C876.943 22.3803 963.495 22.8881 1047.75 34.8488C1095.16 41.5821 1137.76 54.1119 1184.04 62.1849C1227.08 69.7063 1272.95 70.6519 1317.66 68.3141C1420.06 63.0605 1513.24 35.4004 1614 28.8159C1726.67 21.4521 1843.16 40.4438 1953.7 22.8093" stroke="url(#paint47_linear_1319_2185)" stroke-opacity="0.2" stroke-miterlimit="10" />
    </g>
  </g>
  <defs>
    <linearGradient id="paint0_linear_1319_2185" x1="1.65445e+06" y1="13388.2" x2="1.65445e+06" y2="3795.55" gradientUnits="userSpaceOnUse">
      <stop stop-color="#592CB8" />
      <stop offset="1" stop-color="#2C66B8" />
    </linearGradient>
    <linearGradient id="paint1_linear_1319_2185" x1="1.65445e+06" y1="14244.7" x2="1.65445e+06" y2="4015.78" gradientUnits="userSpaceOnUse">
      <stop stop-color="#592CB8" />
      <stop offset="1" stop-color="#2C66B8" />
    </linearGradient>
    <linearGradient id="paint2_linear_1319_2185" x1="1.65449e+06" y1="14701.6" x2="1.65449e+06" y2="4129.68" gradientUnits="userSpaceOnUse">
      <stop stop-color="#592CB8" />
      <stop offset="1" stop-color="#2C66B8" />
    </linearGradient>
    <linearGradient id="paint3_linear_1319_2185" x1="1.65445e+06" y1="14903.9" x2="1.65445e+06" y2="4175.4" gradientUnits="userSpaceOnUse">
      <stop stop-color="#592CB8" />
      <stop offset="1" stop-color="#2C66B8" />
    </linearGradient>
    <linearGradient id="paint4_linear_1319_2185" x1="1.65441e+06" y1="15109" x2="1.65441e+06" y2="4221.84" gradientUnits="userSpaceOnUse">
      <stop stop-color="#592CB8" />
      <stop offset="1" stop-color="#2C66B8" />
    </linearGradient>
    <linearGradient id="paint5_linear_1319_2185" x1="1.65443e+06" y1="15224.7" x2="1.65443e+06" y2="4245.06" gradientUnits="userSpaceOnUse">
      <stop stop-color="#592CB8" />
      <stop offset="1" stop-color="#2C66B8" />
    </linearGradient>
    <linearGradient id="paint6_linear_1319_2185" x1="1.65448e+06" y1="15257.3" x2="1.65448e+06" y2="4246.64" gradientUnits="userSpaceOnUse">
      <stop stop-color="#592CB8" />
      <stop offset="1" stop-color="#2C66B8" />
    </linearGradient>
    <linearGradient id="paint7_linear_1319_2185" x1="1.65445e+06" y1="15217.3" x2="1.65445e+06" y2="4229.36" gradientUnits="userSpaceOnUse">
      <stop stop-color="#592CB8" />
      <stop offset="1" stop-color="#2C66B8" />
    </linearGradient>
    <linearGradient id="paint8_linear_1319_2185" x1="1.65445e+06" y1="15111.3" x2="1.65445e+06" y2="4194.97" gradientUnits="userSpaceOnUse">
      <stop stop-color="#592CB8" />
      <stop offset="1" stop-color="#2C66B8" />
    </linearGradient>
    <linearGradient id="paint9_linear_1319_2185" x1="1.65446e+06" y1="14869.3" x2="1.65446e+06" y2="4125.07" gradientUnits="userSpaceOnUse">
      <stop stop-color="#592CB8" />
      <stop offset="1" stop-color="#2C66B8" />
    </linearGradient>
    <linearGradient id="paint10_linear_1319_2185" x1="1.65447e+06" y1="14707.1" x2="1.65447e+06" y2="4076.3" gradientUnits="userSpaceOnUse">
      <stop stop-color="#592CB8" />
      <stop offset="1" stop-color="#2C66B8" />
    </linearGradient>
    <linearGradient id="paint11_linear_1319_2185" x1="1.6544e+06" y1="14511.3" x2="1.6544e+06" y2="4018.85" gradientUnits="userSpaceOnUse">
      <stop stop-color="#592CB8" />
      <stop offset="1" stop-color="#2C66B8" />
    </linearGradient>
    <linearGradient id="paint12_linear_1319_2185" x1="1.65445e+06" y1="14303.4" x2="1.65445e+06" y2="3958.44" gradientUnits="userSpaceOnUse">
      <stop stop-color="#592CB8" />
      <stop offset="1" stop-color="#2C66B8" />
    </linearGradient>
    <linearGradient id="paint13_linear_1319_2185" x1="1.65449e+06" y1="14083.7" x2="1.65449e+06" y2="3895.02" gradientUnits="userSpaceOnUse">
      <stop stop-color="#592CB8" />
      <stop offset="1" stop-color="#2C66B8" />
    </linearGradient>
    <linearGradient id="paint14_linear_1319_2185" x1="1.65443e+06" y1="13861" x2="1.65443e+06" y2="3830.95" gradientUnits="userSpaceOnUse">
      <stop stop-color="#592CB8" />
      <stop offset="1" stop-color="#2C66B8" />
    </linearGradient>
    <linearGradient id="paint15_linear_1319_2185" x1="1.65445e+06" y1="13571.2" x2="1.65445e+06" y2="3749.33" gradientUnits="userSpaceOnUse">
      <stop stop-color="#592CB8" />
      <stop offset="1" stop-color="#2C66B8" />
    </linearGradient>
    <linearGradient id="paint16_linear_1319_2185" x1="1.6544e+06" y1="13363.7" x2="1.6544e+06" y2="3689.47" gradientUnits="userSpaceOnUse">
      <stop stop-color="#592CB8" />
      <stop offset="1" stop-color="#2C66B8" />
    </linearGradient>
    <linearGradient id="paint17_linear_1319_2185" x1="1.65441e+06" y1="13178.8" x2="1.65441e+06" y2="3635.6" gradientUnits="userSpaceOnUse">
      <stop stop-color="#592CB8" />
      <stop offset="1" stop-color="#2C66B8" />
    </linearGradient>
    <linearGradient id="paint18_linear_1319_2185" x1="1.6544e+06" y1="13033.5" x2="1.6544e+06" y2="3592.25" gradientUnits="userSpaceOnUse">
      <stop stop-color="#592CB8" />
      <stop offset="1" stop-color="#2C66B8" />
    </linearGradient>
    <linearGradient id="paint19_linear_1319_2185" x1="1.65449e+06" y1="12908.1" x2="1.65449e+06" y2="3554.08" gradientUnits="userSpaceOnUse">
      <stop stop-color="#592CB8" />
      <stop offset="1" stop-color="#2C66B8" />
    </linearGradient>
    <linearGradient id="paint20_linear_1319_2185" x1="1.65445e+06" y1="12845.9" x2="1.65445e+06" y2="3532.58" gradientUnits="userSpaceOnUse">
      <stop stop-color="#592CB8" />
      <stop offset="1" stop-color="#2C66B8" />
    </linearGradient>
    <linearGradient id="paint21_linear_1319_2185" x1="1.65445e+06" y1="12816.1" x2="1.65445e+06" y2="3519.59" gradientUnits="userSpaceOnUse">
      <stop stop-color="#592CB8" />
      <stop offset="1" stop-color="#2C66B8" />
    </linearGradient>
    <linearGradient id="paint22_linear_1319_2185" x1="1.65448e+06" y1="12734" x2="1.65448e+06" y2="3492.75" gradientUnits="userSpaceOnUse">
      <stop stop-color="#592CB8" />
      <stop offset="1" stop-color="#2C66B8" />
    </linearGradient>
    <linearGradient id="paint23_linear_1319_2185" x1="1.65445e+06" y1="12610.6" x2="1.65445e+06" y2="3455.03" gradientUnits="userSpaceOnUse">
      <stop stop-color="#592CB8" />
      <stop offset="1" stop-color="#2C66B8" />
    </linearGradient>
    <linearGradient id="paint24_linear_1319_2185" x1="1.65448e+06" y1="12430.6" x2="1.65448e+06" y2="3402.31" gradientUnits="userSpaceOnUse">
      <stop stop-color="#592CB8" />
      <stop offset="1" stop-color="#2C66B8" />
    </linearGradient>
    <linearGradient id="paint25_linear_1319_2185" x1="1.65445e+06" y1="12215" x2="1.65445e+06" y2="3340.25" gradientUnits="userSpaceOnUse">
      <stop stop-color="#592CB8" />
      <stop offset="1" stop-color="#2C66B8" />
    </linearGradient>
    <linearGradient id="paint26_linear_1319_2185" x1="1.65448e+06" y1="11957.3" x2="1.65448e+06" y2="3267.04" gradientUnits="userSpaceOnUse">
      <stop stop-color="#592CB8" />
      <stop offset="1" stop-color="#2C66B8" />
    </linearGradient>
    <linearGradient id="paint27_linear_1319_2185" x1="1.65444e+06" y1="11669.9" x2="1.65444e+06" y2="3186.1" gradientUnits="userSpaceOnUse">
      <stop stop-color="#592CB8" />
      <stop offset="1" stop-color="#2C66B8" />
    </linearGradient>
    <linearGradient id="paint28_linear_1319_2185" x1="1.65445e+06" y1="11344.5" x2="1.65445e+06" y2="3095.12" gradientUnits="userSpaceOnUse">
      <stop stop-color="#592CB8" />
      <stop offset="1" stop-color="#2C66B8" />
    </linearGradient>
    <linearGradient id="paint29_linear_1319_2185" x1="1.65443e+06" y1="10983.4" x2="1.65443e+06" y2="2994.72" gradientUnits="userSpaceOnUse">
      <stop stop-color="#592CB8" />
      <stop offset="1" stop-color="#2C66B8" />
    </linearGradient>
    <linearGradient id="paint30_linear_1319_2185" x1="1.65445e+06" y1="10610.9" x2="1.65445e+06" y2="2891.47" gradientUnits="userSpaceOnUse">
      <stop stop-color="#592CB8" />
      <stop offset="1" stop-color="#2C66B8" />
    </linearGradient>
    <linearGradient id="paint31_linear_1319_2185" x1="1.65445e+06" y1="10208.3" x2="1.65445e+06" y2="2780.31" gradientUnits="userSpaceOnUse">
      <stop stop-color="#592CB8" />
      <stop offset="1" stop-color="#2C66B8" />
    </linearGradient>
    <linearGradient id="paint32_linear_1319_2185" x1="1.65445e+06" y1="9802.68" x2="1.65445e+06" y2="2668.52" gradientUnits="userSpaceOnUse">
      <stop stop-color="#592CB8" />
      <stop offset="1" stop-color="#2C66B8" />
    </linearGradient>
    <linearGradient id="paint33_linear_1319_2185" x1="1.65445e+06" y1="9375.81" x2="1.65445e+06" y2="2551.19" gradientUnits="userSpaceOnUse">
      <stop stop-color="#592CB8" />
      <stop offset="1" stop-color="#2C66B8" />
    </linearGradient>
    <linearGradient id="paint34_linear_1319_2185" x1="1.65445e+06" y1="8950.88" x2="1.65445e+06" y2="2434.57" gradientUnits="userSpaceOnUse">
      <stop stop-color="#592CB8" />
      <stop offset="1" stop-color="#2C66B8" />
    </linearGradient>
    <linearGradient id="paint35_linear_1319_2185" x1="1.65437e+06" y1="8534.88" x2="1.65437e+06" y2="2320.55" gradientUnits="userSpaceOnUse">
      <stop stop-color="#592CB8" />
      <stop offset="1" stop-color="#2C66B8" />
    </linearGradient>
    <linearGradient id="paint36_linear_1319_2185" x1="1.65451e+06" y1="8089.34" x2="1.65451e+06" y2="2198.74" gradientUnits="userSpaceOnUse">
      <stop stop-color="#592CB8" />
      <stop offset="1" stop-color="#2C66B8" />
    </linearGradient>
    <linearGradient id="paint37_linear_1319_2185" x1="1.65445e+06" y1="7814.65" x2="1.65445e+06" y2="2123.15" gradientUnits="userSpaceOnUse">
      <stop stop-color="#592CB8" />
      <stop offset="1" stop-color="#2C66B8" />
    </linearGradient>
    <linearGradient id="paint38_linear_1319_2185" x1="1.65445e+06" y1="7476.16" x2="1.65445e+06" y2="2030.51" gradientUnits="userSpaceOnUse">
      <stop stop-color="#592CB8" />
      <stop offset="1" stop-color="#2C66B8" />
    </linearGradient>
    <linearGradient id="paint39_linear_1319_2185" x1="1.65448e+06" y1="7207.08" x2="1.65448e+06" y2="1956.81" gradientUnits="userSpaceOnUse">
      <stop stop-color="#592CB8" />
      <stop offset="1" stop-color="#2C66B8" />
    </linearGradient>
    <linearGradient id="paint40_linear_1319_2185" x1="1.65445e+06" y1="6989.43" x2="1.65445e+06" y2="1897.07" gradientUnits="userSpaceOnUse">
      <stop stop-color="#592CB8" />
      <stop offset="1" stop-color="#2C66B8" />
    </linearGradient>
    <linearGradient id="paint41_linear_1319_2185" x1="1.65439e+06" y1="6808.46" x2="1.65439e+06" y2="1847.33" gradientUnits="userSpaceOnUse">
      <stop stop-color="#592CB8" />
      <stop offset="1" stop-color="#2C66B8" />
    </linearGradient>
    <linearGradient id="paint42_linear_1319_2185" x1="1.65441e+06" y1="6654.53" x2="1.65441e+06" y2="1805.04" gradientUnits="userSpaceOnUse">
      <stop stop-color="#592CB8" />
      <stop offset="1" stop-color="#2C66B8" />
    </linearGradient>
    <linearGradient id="paint43_linear_1319_2185" x1="1.6544e+06" y1="6529.31" x2="1.6544e+06" y2="1770.58" gradientUnits="userSpaceOnUse">
      <stop stop-color="#592CB8" />
      <stop offset="1" stop-color="#2C66B8" />
    </linearGradient>
    <linearGradient id="paint44_linear_1319_2185" x1="1.65443e+06" y1="6533.23" x2="1.65443e+06" y2="1770.31" gradientUnits="userSpaceOnUse">
      <stop stop-color="#592CB8" />
      <stop offset="1" stop-color="#2C66B8" />
    </linearGradient>
    <linearGradient id="paint45_linear_1319_2185" x1="1.6545e+06" y1="6703.79" x2="1.6545e+06" y2="1814.06" gradientUnits="userSpaceOnUse">
      <stop stop-color="#592CB8" />
      <stop offset="1" stop-color="#2C66B8" />
    </linearGradient>
    <linearGradient id="paint46_linear_1319_2185" x1="1.65446e+06" y1="6880.5" x2="1.65446e+06" y2="1859.64" gradientUnits="userSpaceOnUse">
      <stop stop-color="#592CB8" />
      <stop offset="1" stop-color="#2C66B8" />
    </linearGradient>
    <linearGradient id="paint47_linear_1319_2185" x1="1.65445e+06" y1="7060.33" x2="1.65445e+06" y2="1906.23" gradientUnits="userSpaceOnUse">
      <stop stop-color="#592CB8" />
      <stop offset="1" stop-color="#2C66B8" />
    </linearGradient>
    <clipPath id="clip0_1319_2185">
      <rect width="1621" height="377" fill="white" />
    </clipPath>
  </defs>
</svg>
  