<svg width="1620" height="328" viewBox="0 0 1620 328" fill="none" xmlns="http://www.w3.org/2000/svg">
  <g clip-path="url(#clip0_1319_2186)">
    <g opacity="0.5">
      <path d="M1873.74 318.508C1783.87 318.341 1687.48 321.572 1598.89 313.158C1459.71 299.936 1328.14 269.15 1189.99 253.381C1138.5 247.505 1090.01 243.863 1040.01 254.773C999.445 263.678 964.872 278.957 931.813 294.227C873.298 321.222 810.416 357.104 729.378 360.125C677.59 362.06 625.514 347.218 580.787 334.654C531.167 320.714 483.459 304.831 433.855 290.874C388.267 278.055 334.072 262.329 281.152 265.613C234.385 268.511 192.32 284.788 156.646 300.461C87.0215 331.107 10.8614 381.769 -87.8057 376.638C-206.047 370.509 -302.084 323.507 -421.584 318.472" stroke="url(#paint0_linear_1319_2186)" stroke-opacity="0.2" stroke-miterlimit="10" />
      <path d="M1873.72 307.632C1785.46 307.466 1690.1 310.706 1603.21 302.133C1461.57 288.168 1328.47 255.28 1188.01 238.53C1136.76 232.401 1087.91 228.487 1038.42 240.176C997.898 249.746 964.36 266.339 932.497 282.66C876.421 311.371 815.913 350.23 733.887 353.584C680.681 355.737 627.091 339.662 581.663 326.37C530.385 311.353 481.242 294.262 429.964 279.228C383.739 265.665 327.95 248.704 273.611 252.163C226.35 255.175 185.002 272.468 150.301 289.043C82.8281 321.256 8.99525 375.552 -91.2499 370.08C-209.491 363.627 -301.862 312.851 -421.601 307.667" stroke="url(#paint1_linear_1319_2186)" stroke-opacity="0.2" stroke-miterlimit="10" />
      <path d="M1873.7 296.95C1786.68 296.81 1691.9 300.111 1606.29 291.609C1463.46 277.425 1329.99 242.812 1188.45 225.607C1137.9 219.478 1088.14 215.485 1039.35 227.253C998.493 237.103 965.418 254.589 934.144 271.602C878.961 301.67 820.239 342.087 736.491 345.345C682.105 347.464 628.372 331.221 582.306 317.326C529.944 301.565 479.893 283.598 427.547 267.819C380.732 253.705 324.704 236.473 269.25 239.905C221.43 242.865 180.784 260.473 146.513 277.757C79.5664 311.512 9.25623 367.182 -93.332 361.762C-211.876 355.502 -301.457 301.6 -421.691 296.968" stroke="url(#paint2_linear_1319_2186)" stroke-opacity="0.2" stroke-miterlimit="10" />
      <path d="M1873.68 286.443C1786.98 286.145 1692.51 289.858 1607.26 281.189C1465.4 266.733 1333.64 231.088 1193.21 213.479C1142.81 207.166 1093.08 203.384 1044.32 215.012C1002.88 224.915 969.148 242.611 937.412 259.834C881.208 290.339 821.864 331.274 737.017 335.091C682.248 337.552 628.834 321.511 582.561 307.396C530.119 291.39 480.164 273.073 427.738 257.058C380.7 242.681 324.958 225.685 269.09 229.363C220.951 232.532 180.544 250.176 146.21 267.653C78.9921 301.88 10.0207 356.815 -93.3805 351.71C-212.259 345.861 -300.916 290.488 -421.644 286.443" stroke="url(#paint3_linear_1319_2186)" stroke-opacity="0.2" stroke-miterlimit="10" />
      <path d="M1873.67 276.172C1786.6 275.629 1692.41 280.313 1606.87 271.041C1467.52 255.937 1338.73 219.705 1200.86 201.475C1149.86 194.724 1101.43 191.213 1051.97 202.919C1009.78 212.892 974.855 230.404 941.955 247.478C883.886 277.652 822.04 318.997 737.193 324.207C682.759 327.552 629.153 311.467 583.279 297.361C531.475 281.434 482.268 263.099 430.48 247.154C383.538 232.698 327.796 215.834 272.007 220.204C224.013 223.96 183.016 241.857 148.203 259.141C80.6345 292.677 9.67075 346.579 -92.4871 341.623C-211.653 335.835 -300.597 280.147 -421.611 276.172" stroke="url(#paint4_linear_1319_2186)" stroke-opacity="0.2" stroke-miterlimit="10" />
      <path d="M1873.63 266.076C1786.08 265.428 1692.14 271.417 1606.07 261.602C1469.56 246.034 1344.13 209.329 1209.17 190.679C1157.73 183.551 1110.44 180.373 1060.42 191.931C1017.57 201.834 981.246 218.89 947.119 235.833C887.106 265.604 822.406 306.8 737.639 313.271C683.699 317.395 630.508 301.643 585.048 287.599C534.12 271.838 485.95 253.617 435.054 237.865C388.255 223.382 333.04 207 277.506 211.991C229.464 216.316 187.733 234.292 152.14 251.393C83.6786 284.227 10.3876 336.781 -90.9892 331.895C-210.681 326.134 -300.119 270.087 -421.659 266.129" stroke="url(#paint5_linear_1319_2186)" stroke-opacity="0.2" stroke-miterlimit="10" />
      <path d="M1873.6 256.173C1785.44 255.552 1691.55 263.126 1604.87 252.811C1471.49 236.954 1349.71 199.873 1217.92 180.898C1166.27 173.465 1119.87 170.671 1069.44 181.897C1025.83 191.598 988.146 208.164 952.696 224.801C890.18 254.037 823.217 294.638 738.211 302.3C684.908 307.098 632.658 292.029 587.644 278.081C537.832 262.635 490.889 244.572 441.11 229.109C394.486 214.618 340.338 199.049 285.139 204.592C236.873 209.452 194.283 227.358 157.621 244.222C87.7891 276.33 11.8839 327.272 -88.951 322.412C-209.376 316.607 -299.499 260.184 -421.773 256.2" stroke="url(#paint6_linear_1319_2186)" stroke-opacity="0.2" stroke-miterlimit="10" />
      <path d="M1873.58 246.463C1784.7 245.973 1690.85 255.368 1603.39 244.607C1473.35 228.61 1355.45 191.195 1227.05 172.116C1175.44 164.428 1129.68 162.038 1078.99 172.773C1034.6 182.177 995.591 198.165 958.69 214.294C893.337 242.864 824.334 282.494 739.008 291.259C636.037 301.845 531.983 246.752 448.538 220.782C402.09 206.317 349.409 191.826 294.688 197.894C246.04 203.296 202.556 221.027 164.635 237.637C93.0339 268.992 14.2916 318.113 -86.2882 313.227C-207.606 307.343 -298.59 250.508 -421.74 246.463" stroke="url(#paint7_linear_1319_2186)" stroke-opacity="0.2" stroke-miterlimit="10" />
      <path d="M1873.55 236.954C1783.89 236.683 1690.02 248.092 1601.65 236.954C1475.1 220.948 1361.26 183.359 1236.44 164.218C1185 156.338 1139.68 154.376 1088.85 164.49C1043.65 173.5 1003.29 188.779 964.935 204.399C896.745 232.156 825.686 270.463 739.93 280.314C638.521 291.942 538.945 238.443 457.047 212.893C411.762 198.787 358.97 184.567 305.747 191.835C256.334 198.577 212.802 214.924 172.729 231.56C99.0719 262.119 17.301 309.252 -83.2789 304.314C-205.632 298.316 -297.589 241.052 -421.775 236.893" stroke="url(#paint8_linear_1319_2186)" stroke-opacity="0.2" stroke-miterlimit="10" />
      <path d="M1873.52 227.629C1783.01 227.629 1689.05 241.227 1599.69 229.678C1476.75 213.786 1367.08 176.039 1245.94 157.003C1035.54 123.915 925.775 246.069 740.953 269.448C641.33 282.065 546.791 230.492 466.375 205.459C421.297 191.449 370.545 178.692 317.992 186.371C267.957 193.682 223.405 209.671 181.723 225.992C105.77 255.762 20.8267 300.75 -79.9603 295.733C-203.446 289.604 -296.486 231.893 -421.82 227.629" stroke="url(#paint9_linear_1319_2186)" stroke-opacity="0.2" stroke-miterlimit="10" />
      <path d="M1873.49 218.505C1782.11 218.873 1687.99 234.704 1597.56 222.813C1478.28 207.131 1372.81 169.297 1255.44 150.427C1049.39 117.312 923.897 233.609 742.057 258.66C644.155 272.162 555.29 222.874 476.341 198.323C431.454 184.366 382.918 173.289 331.114 181.319C280.409 189.199 234.726 204.785 191.37 220.764C112.978 249.659 24.7993 292.484 -76.4181 287.353C-201.115 281.04 -295.319 222.909 -421.864 218.505" stroke="url(#paint10_linear_1319_2186)" stroke-opacity="0.2" stroke-miterlimit="10" />
      <path d="M1873.46 209.574C1781.17 210.319 1686.85 228.461 1595.3 216.273C1479.67 200.88 1378.51 163.001 1264.78 144.386C1063.1 111.367 922.08 221.307 743.188 248.031C647.039 262.39 564.216 215.529 486.653 191.458C441.926 177.58 395.797 168.281 344.79 176.573C293.384 184.97 246.521 200.214 201.444 215.8C120.533 243.819 29.1028 284.412 -72.6247 279.167C-198.549 272.661 -293.996 214.093 -421.801 209.539" stroke="url(#paint11_linear_1319_2186)" stroke-opacity="0.2" stroke-miterlimit="10" />
      <path d="M1873.43 200.836C1780.24 201.965 1685.66 222.428 1592.89 209.986C1480.83 194.943 1383.85 157.047 1273.79 138.747C1076.39 105.921 920.295 209.259 744.336 237.585C649.925 252.785 573.318 208.418 497.078 184.812C452.543 171.022 408.66 163.553 358.498 172.142C306.375 181.074 258.285 195.932 211.518 211.133C128.073 238.276 33.4228 276.627 -68.9423 271.251C-196.189 264.562 -292.816 205.581 -421.896 200.836" stroke="url(#paint12_linear_1319_2186)" stroke-opacity="0.2" stroke-miterlimit="10" />
      <path d="M1873.4 192.299C1779.35 193.805 1684.45 216.535 1590.61 203.883C1481.99 189.234 1389.11 151.347 1282.56 133.406C1089.06 100.834 918.493 197.447 745.387 227.358C652.697 243.381 582.323 201.51 507.327 178.324C462.982 164.621 421.252 158.982 372.046 167.817C319.206 177.291 269.904 191.808 221.463 206.589C135.564 232.804 37.7577 268.992 -65.3087 263.502C-193.831 256.629 -291.653 197.167 -421.992 192.316" stroke="url(#paint13_linear_1319_2186)" stroke-opacity="0.2" stroke-miterlimit="10" />
      <path d="M1873.36 183.945C1778.38 185.81 1683.25 210.721 1588.27 197.894C1482.92 183.665 1393.96 145.804 1290.72 128.249C1100.94 95.9742 916.723 185.88 746.519 217.376C655.375 234.24 591.297 194.689 517.337 171.967C473.136 158.395 433.59 154.455 385.212 163.544C331.687 173.561 281.19 187.789 231.171 202.14C142.912 227.454 42.0933 261.515 -61.6904 255.885C-191.424 248.836 -290.394 188.945 -421.929 183.945" stroke="url(#paint14_linear_1319_2186)" stroke-opacity="0.2" stroke-miterlimit="10" />
      <path d="M1873.33 175.793C1777.45 177.965 1682.05 204.925 1586 191.966C1483.67 178.166 1398.39 140.306 1298.24 123.161C1201.09 106.525 1097.74 125.307 1006.99 145.375C919.481 164.735 836.292 190.127 747.475 207.683C657.479 225.475 600.08 187.789 526.678 165.654C429.206 136.278 329.375 173.534 240.161 197.692C149.766 222.139 46.1101 254.168 -58.359 248.416C-189.24 241.218 -289.294 180.907 -421.993 175.785" stroke="url(#paint15_linear_1319_2186)" stroke-opacity="0.2" stroke-miterlimit="10" />
      <path d="M1873.3 167.825C1776.53 170.251 1681.11 199.075 1583.83 186.02C1484.23 172.641 1402.34 134.806 1304.89 118.039C1208.63 101.455 1102.55 119.466 1011.37 137.845C922.095 155.847 837.12 179.62 748.319 198.322C659.519 217.025 607.651 181.187 535.189 159.367C439.933 130.691 335.942 170.75 248.274 193.209C155.982 216.85 49.696 246.935 -55.3469 241.104C-187.248 233.775 -288.29 173.061 -421.961 167.825" stroke="url(#paint16_linear_1319_2186)" stroke-opacity="0.2" stroke-miterlimit="10" />
      <path d="M1873.27 160.059C1775.59 162.686 1680.25 193.122 1581.84 179.988C1484.61 167.02 1405.74 129.203 1310.86 112.759C1215.34 96.2542 1106.83 113.53 1015.24 130.385C924.388 147.118 837.708 169.463 749.051 189.313C707.225 198.673 676.573 199.058 636.134 186.984C603.266 177.168 575.467 162.913 542.647 153.028C498.86 139.824 463.984 140.192 418.126 150.007C363.022 161.819 309.337 175.399 255.269 188.595C161.432 211.43 52.8343 239.765 -52.6869 233.881C-185.497 226.473 -287.384 165.356 -422.011 160.059" stroke="url(#paint17_linear_1319_2186)" stroke-opacity="0.2" stroke-miterlimit="10" />
      <path d="M1873.23 152.476C1774.65 155.103 1679.6 186.992 1580.04 173.814C1484.73 161.197 1408.56 123.24 1315.6 107.216C1220.57 90.8339 1110.07 107.391 1018.11 122.977C926.158 138.563 837.868 159.752 749.498 180.767C708.66 190.477 678.805 191.852 638.716 179.838C606.932 170.312 580.409 156.25 548.705 146.653C505.157 133.467 470.823 134.868 425.761 145.007C370.387 157.467 315.873 171.021 260.785 183.849C165.768 205.966 55.0505 232.724 -50.6301 226.823C-184.173 219.372 -286.746 157.887 -422.026 152.555" stroke="url(#paint18_linear_1319_2186)" stroke-opacity="0.2" stroke-miterlimit="10" />
      <path d="M1873.2 145.104C1773.69 147.661 1679.19 180.653 1578.51 167.441C1484.63 155.103 1410.82 116.857 1319.15 101.307C1224.25 85.1869 1112.56 100.991 1020.03 115.465C926.75 130.044 837.694 150.349 749.691 172.519C709.682 182.588 680.162 184.707 640.376 172.694C609.453 163.369 583.997 149.394 553.17 139.982C509.83 126.752 475.527 128.897 431.151 139.421C375.697 152.555 320.545 166.145 264.613 178.701C168.974 200.179 56.4077 225.554 -49.1932 219.696C-183.262 212.254 -286.329 150.419 -422.183 145.104" stroke="url(#paint19_linear_1319_2186)" stroke-opacity="0.2" stroke-miterlimit="10" />
      <path d="M1873.17 137.915C1772.75 140.236 1679.06 174.025 1577.26 160.777C1484.35 148.685 1412.14 110.273 1321.57 94.9062C1226.97 78.8652 1113.82 94.3283 1021.05 107.9C926.81 121.691 837.356 141.444 749.768 164.814C710.412 175.321 680.733 177.86 641.154 165.768C610.869 156.513 586.21 142.53 555.972 133.187C512.791 119.843 478.011 122.365 434.16 133.371C378.818 147.258 323.252 160.944 266.697 173.29C170.772 194.225 56.8985 218.462 -48.272 212.692C-182.66 205.328 -285.982 143.16 -422.155 137.915" stroke="url(#paint20_linear_1319_2186)" stroke-opacity="0.2" stroke-miterlimit="10" />
      <path d="M1873.12 130.91C1772.19 132.994 1679.15 167.151 1576.74 153.781C1484.14 141.698 1412.37 103.32 1322.09 88.0411C1227.58 72.0527 1113.91 87.831 1021.11 101.114C926.54 114.651 837.373 134.255 749.673 157.73C710.461 168.237 680.367 170.426 641.059 158.413C610.981 149.219 586.482 135.358 556.403 126.138C513.366 112.952 477.948 115.404 434.512 126.725C379.408 141.085 323.779 154.875 266.985 167.099C171.522 187.649 56.1661 211.614 -48.1915 205.625C-182.388 197.937 -286.379 136.821 -422.202 130.937" stroke="url(#paint21_linear_1319_2186)" stroke-opacity="0.2" stroke-miterlimit="10" />
      <path d="M1873.09 124.019C1771.94 125.998 1679.17 160.383 1576.52 146.855C1484.07 134.667 1411.92 96.6133 1321.58 81.4304C1227.07 65.5471 1113.66 82.0171 1021 95.3875C926.732 108.994 837.948 128.564 749.642 150.927C666.054 172.09 624.626 139.544 555.783 119.247C512.745 106.56 477.104 108.872 434.066 120.237C379.202 134.728 323.668 148.484 266.89 160.567C171.985 180.758 55.1308 204.837 -48.4776 198.34C-182.101 189.952 -287.367 131.322 -422.281 124.151" stroke="url(#paint22_linear_1319_2186)" stroke-opacity="0.2" stroke-miterlimit="10" />
      <path d="M1873.06 117.233C1771.6 119.142 1679.06 153.781 1576.09 140.139C1483.64 127.881 1411.21 90.2299 1320.81 75.1871C1226.3 59.4263 1113.23 76.5268 1020.71 89.9409C926.812 103.556 838.362 123.038 749.546 144.272C666.659 164.095 623.749 132.127 554.858 112.75C511.82 100.614 475.86 102.856 433.206 114.239C378.596 128.809 323.221 142.459 266.46 154.332C171.937 174.112 53.9192 197.937 -48.8284 191.002C-181.782 182.036 -288.339 125.954 -422.265 117.645" stroke="url(#paint23_linear_1319_2186)" stroke-opacity="0.2" stroke-miterlimit="10" />
      <path d="M1873.03 110.571C1771.22 112.427 1678.82 147.346 1575.46 133.643C1483.12 121.402 1410.26 84.1801 1319.81 69.295C1225.3 53.7969 1112.59 71.3264 1020.25 84.7493C926.795 98.321 838.537 117.654 749.402 137.714C667.105 156.216 622.729 124.957 553.662 106.482C510.513 94.95 474.282 97.1915 431.946 108.566C377.639 123.162 322.376 136.655 265.71 148.248C171.426 167.555 52.6911 190.793 -49.3552 183.499C-181.655 174.051 -289.44 120.605 -422.345 111.271" stroke="url(#paint24_linear_1319_2186)" stroke-opacity="0.2" stroke-miterlimit="10" />
      <path d="M1873 104.021C1770.76 105.86 1678.53 141.05 1574.65 127.338C1482.39 115.167 1409.08 78.3661 1318.55 63.7786C1224.07 48.552 1111.94 66.4755 1019.63 79.8546C926.684 93.3388 838.697 112.471 749.195 131.322C667.52 148.528 621.581 118.092 552.195 100.615C508.903 89.7051 472.385 92.0254 430.32 103.364C376.438 118.035 321.147 131.089 264.69 142.469C170.486 161.241 51.4163 183.622 -50.0402 175.995C-181.479 166.162 -290.587 115.413 -422.329 105.194" stroke="url(#paint25_linear_1319_2186)" stroke-opacity="0.2" stroke-miterlimit="10" />
      <path d="M1872.94 97.5938C1770.25 99.4325 1678.05 134.929 1573.66 121.235C1481.48 109.16 1407.68 72.8494 1317.03 58.5596C1222.59 43.6745 1110.93 61.8782 1018.8 75.196C926.347 88.5401 838.598 107.409 748.889 125.035C667.82 140.971 620.224 111.437 550.424 95.0195C506.924 84.7838 470.135 87.2355 428.309 98.5219C374.751 113.095 319.662 125.904 263.333 136.882C169.081 155.068 50.0269 176.231 -50.8877 168.403C-181.482 158.273 -291.833 110.299 -422.427 99.2837" stroke="url(#paint26_linear_1319_2186)" stroke-opacity="0.2" stroke-miterlimit="10" />
      <path d="M1872.91 91.307C1769.69 93.1545 1677.51 128.958 1572.53 115.368C1480.41 103.443 1406.09 67.6571 1315.4 53.7088C1221.01 39.1914 1109.94 57.614 1017.89 70.818C926.124 83.952 838.408 102.523 748.603 118.897C668.108 133.581 618.758 105.054 548.48 89.7484C504.741 80.2219 467.665 82.8575 426.015 94.1264C372.823 108.56 317.981 121.081 261.835 131.611C167.424 149.123 48.7363 168.876 -51.7479 160.864C-181.434 150.532 -292.98 105.387 -422.395 93.6974" stroke="url(#paint27_linear_1319_2186)" stroke-opacity="0.2" stroke-miterlimit="10" />
      <path d="M1872.88 85.1431C1769.08 87.0344 1676.82 123.179 1571.24 109.66C1479.19 97.9443 1404.32 62.7278 1313.54 49.1561C1219.21 35.0589 1108.75 53.6128 1016.9 66.668C925.773 79.6268 838.153 97.778 748.316 112.891C668.378 126.331 617.18 98.8812 546.375 84.7491C502.366 75.9931 465.003 78.83 423.48 90.0027C370.641 104.265 316.027 116.452 260.05 126.471C165.336 143.309 47.3178 161.39 -52.7998 153.238C-181.545 142.731 -294.239 100.519 -422.443 88.2252" stroke="url(#paint28_linear_1319_2186)" stroke-opacity="0.2" stroke-miterlimit="10" />
      <path d="M1872.85 79.1188C1768.43 81.0627 1676.19 117.558 1569.82 104.222C1477.83 92.6818 1402.37 58.0607 1311.5 44.9093C1217.25 31.2762 1107.47 49.8914 1015.76 62.7802C925.266 75.5026 837.725 93.1985 747.968 107.033C668.573 119.291 615.414 92.962 544.051 80.047C499.739 72.0353 462.089 75.1787 420.662 86.1762C368.192 100.223 313.837 112.037 258.076 121.515C162.996 137.582 45.934 153.799 -53.8966 145.55C-181.686 135.043 -295.448 95.7289 -422.44 82.9277" stroke="url(#paint29_linear_1319_2186)" stroke-opacity="0.2" stroke-miterlimit="10" />
      <path d="M1872.82 73.2434C1767.74 75.2573 1675.4 112.102 1568.37 98.9509C1476.33 87.682 1400.28 53.6563 1309.3 40.9601C1215.14 27.8262 1106.13 46.4326 1014.41 59.1288C924.594 71.5798 837.116 88.7677 747.455 101.315C668.601 112.356 613.37 87.2529 541.418 75.6163C496.787 68.4013 458.866 71.8512 417.47 82.7962C365.382 96.596 311.299 107.997 255.778 116.883C160.33 132.127 44.4484 146.347 -55.1592 138.003C-181.944 127.434 -296.726 91.1844 -422.507 77.9453" stroke="url(#paint30_linear_1319_2186)" stroke-opacity="0.2" stroke-miterlimit="10" />
      <path d="M1872.79 67.5434C1767.06 69.6185 1674.61 106.814 1566.63 93.8813C1474.74 82.8663 1398.05 49.5061 1306.97 37.2915C1212.93 24.6741 1104.67 43.2368 1013.16 55.679C923.988 67.8323 836.575 84.4511 747.105 95.7201C668.745 105.597 611.33 81.7105 538.82 71.4135C493.87 65.0129 455.646 68.7867 414.235 79.6529C362.54 93.1767 308.747 104.133 253.498 112.391C157.429 126.751 42.9821 138.747 -56.466 130.42C-182.263 119.913 -297.953 86.7102 -422.538 73.0946" stroke="url(#paint31_linear_1319_2186)" stroke-opacity="0.2" stroke-miterlimit="10" />
      <path d="M1872.75 61.9393C1766.26 64.1371 1673.63 101.691 1564.89 89.004C1473.02 78.2955 1395.66 45.6007 1304.52 33.8939C1210.55 21.837 1103.1 40.2945 1011.72 52.5266C923.223 64.3735 835.873 80.3619 746.642 90.3524C668.745 99.1084 609.066 76.5093 536.014 67.5869C490.73 62.0269 452.219 66.2035 410.744 76.9208C359.442 90.1414 305.947 100.624 250.996 108.223C154.337 121.638 41.4834 131.33 -57.8372 122.995C-182.645 112.531 -299.165 82.4983 -422.571 68.5676" stroke="url(#paint32_linear_1319_2186)" stroke-opacity="0.2" stroke-miterlimit="10" />
      <path d="M1872.73 56.5197C1765.47 58.8312 1672.68 96.7446 1563.03 84.3374C1471.24 73.9441 1393.26 41.941 1301.96 30.7683C1208.12 19.2805 1101.5 37.6068 1010.26 49.5674C922.398 61.0815 835.16 76.3957 746.216 85.1079C668.717 92.6993 606.727 71.4661 533.118 63.8747C487.514 59.1727 448.733 63.7609 407.114 74.3818C356.212 87.2737 303.027 97.2498 248.402 104.152C151.169 116.551 40.0372 123.836 -59.2356 115.535C-183.072 105.194 -300.324 78.3308 -422.598 64.1198" stroke="url(#paint33_linear_1319_2186)" stroke-opacity="0.2" stroke-miterlimit="10" />
      <path d="M1872.7 51.266C1764.69 53.7002 1671.66 91.9726 1561.17 79.863C1469.36 69.8024 1390.73 38.5086 1299.31 27.8876C1205.6 17.0039 1099.83 35.1463 1008.65 46.8267C921.412 58.0081 834.301 72.5868 745.645 80.0294C668.48 86.5001 604.131 66.6503 529.996 60.4598C484.057 56.6159 445.005 61.6419 403.227 72.1052C352.721 84.6636 299.848 94.1247 245.567 100.317C147.681 111.638 38.4455 116.437 -60.7954 108.197C-183.531 97.9879 -301.486 74.3643 -422.628 59.9169" stroke="url(#paint34_linear_1319_2186)" stroke-opacity="0.2" stroke-miterlimit="10" />
      <path d="M1872.66 46.1789C1763.87 48.7444 1670.61 87.3319 1559.21 75.5902C1467.39 65.8798 1388.11 35.2952 1296.58 25.2521C1203 15.0076 1098.09 32.9223 1007.02 44.3051C920.373 55.1362 833.422 68.9356 745.147 75.1174C668.254 80.5023 601.562 62.0622 526.948 57.2727C480.723 54.3044 441.367 59.7856 399.43 70.1177C349.316 82.3188 296.763 91.2383 242.854 96.6921C144.346 106.875 37.0397 109.143 -62.2012 100.965C-184.045 90.9306 -302.461 70.573 -422.551 55.9155" stroke="url(#paint35_linear_1319_2186)" stroke-opacity="0.2" stroke-miterlimit="10" />
      <path d="M1872.63 41.2755C1763.04 43.9724 1669.51 82.954 1557.21 71.5187C1465.42 62.1585 1385.43 32.3094 1293.79 22.888C1200.37 13.2564 1096.33 30.9698 1005.28 42.0373C919.209 52.5445 832.449 65.4946 744.541 70.4242C667.791 74.7321 598.819 57.728 523.632 54.3482C477.072 52.2555 437.557 58.2183 395.221 68.4103C345.494 80.248 293.261 88.6139 239.745 93.3123C14.994 113.705 -205.245 79.3027 -422.775 52.1592" stroke="url(#paint36_linear_1319_2186)" stroke-opacity="0.2" stroke-miterlimit="10" />
      <path d="M1872.6 36.5298C1762.2 39.3755 1668.39 78.6986 1555.17 67.6223C1463.38 58.6386 1382.71 29.5338 1290.96 20.664C1197.69 11.6453 1094.53 29.1398 1003.67 39.8833C918.093 50.0315 831.588 62.141 744.079 65.7923C667.345 69.0232 596.206 53.5339 520.46 51.52C473.629 50.2942 433.78 56.7736 391.205 66.8167C342.046 78.4884 289.844 85.931 236.844 90.0463C17.816 107.059 -210.633 75.4764 -422.727 48.5167" stroke="url(#paint37_linear_1319_2186)" stroke-opacity="0.2" stroke-miterlimit="10" />
      <path d="M1872.57 31.9766C1761.35 34.9712 1667.26 74.6357 1553.12 63.9272C1461.3 55.285 1379.96 26.9595 1288.1 18.6851C1195 10.3056 1092.73 27.5636 1001.97 37.9482C916.85 47.7111 830.648 58.9625 743.537 61.423C666.659 63.5945 593.512 49.5674 517.192 48.9807C470.09 48.6217 429.986 55.609 387.076 65.5295C338.237 76.816 286.385 83.6194 233.831 86.9992C133.714 93.4348 32.1934 87.9536 -67.0953 80.0819C-186.229 70.6343 -305.538 60.2672 -422.759 45.0581" stroke="url(#paint38_linear_1319_2186)" stroke-opacity="0.2" stroke-miterlimit="10" />
      <path d="M1872.53 27.6073C1761.47 30.6982 1667.5 70.4328 1553.47 60.6436C1462.02 52.7632 1380.52 25.5409 1289.38 17.284C1197.25 8.93959 1097.03 25.4971 1007.07 35.4965C920.103 45.128 832.004 55.8891 742.98 57.2375C663.951 58.4371 586.946 45.1806 508.092 46.7304C460.496 47.6673 420.822 56.2131 377.195 65.7046C331.878 75.5638 284.027 81.2114 235.634 83.882C132.631 89.5646 30.4732 81.1851 -71.3021 73.2785C-188.778 64.1548 -307.306 57.1325 -422.837 41.8796" stroke="url(#paint39_linear_1319_2186)" stroke-opacity="0.2" stroke-miterlimit="10" />
      <path d="M1872.52 23.4308C1760.69 26.6705 1666.34 66.7378 1551.46 57.3252C1460 49.83 1377.84 23.3257 1286.56 15.673C1194.62 8.00276 1095.2 24.3239 1005.36 33.9992C918.812 43.3331 831.047 53.2624 742.486 53.2624C662.995 53.2624 584.284 41.7658 504.777 44.699C457.117 46.4502 417.108 55.4864 373.146 64.7765C328.132 74.2855 280.6 79.3377 232.621 81.334C129.284 85.6332 28.8952 74.5744 -72.8642 66.8867C-189.575 58.0694 -308.087 54.3131 -422.805 38.8676" stroke="url(#paint40_linear_1319_2186)" stroke-opacity="0.2" stroke-miterlimit="10" />
      <path d="M1872.48 19.4558C1759.81 22.8443 1665.27 63.2356 1549.42 54.1907C1457.92 47.0458 1375.13 21.2858 1283.72 14.2285C1191.97 7.12737 1093.33 23.3347 1003.54 32.6948C917.469 41.6872 830.04 50.7234 741.941 49.445C661.875 48.2804 581.619 38.5088 501.442 42.808C453.718 45.3735 413.391 54.8912 369.142 63.9799C324.511 73.1474 277.201 77.6042 229.669 78.9264C126.061 81.8246 27.3297 68.139 -74.3978 60.6614C-190.375 52.1331 -308.712 51.6602 -422.761 36.0221" stroke="url(#paint41_linear_1319_2186)" stroke-opacity="0.2" stroke-miterlimit="10" />
      <path d="M1872.45 15.6819C1758.99 19.1843 1664.06 59.9171 1547.39 51.2487C1455.88 44.4453 1372.45 19.3857 1280.9 12.9588C1189.34 6.53191 1091.5 22.5203 1001.95 31.5565C916.083 40.2249 829.068 48.4117 741.447 45.8462C660.681 43.4821 579.053 35.4617 498.207 41.1093C450.387 44.4453 409.773 54.4796 365.11 63.3582C320.446 72.2367 273.743 76.0544 226.657 76.7198C123.049 78.1996 25.6248 61.9485 -75.9911 54.681C-191.299 46.4329 -309.54 49.2348 -422.824 33.369" stroke="url(#paint42_linear_1319_2186)" stroke-opacity="0.2" stroke-miterlimit="10" />
      <path d="M1872.44 12.1095C1758.19 15.787 1662.92 56.7649 1545.43 48.4993C1453.87 42.0286 1369.84 17.7308 1278.15 11.8468C1186.85 5.98906 1089.62 21.8724 1000.23 30.6021C914.615 38.9553 828.078 46.284 740.888 42.4577C659.324 38.8765 576.485 32.5985 494.922 39.5682C447.246 43.6485 406.153 54.2082 361.171 62.8854C317.018 71.3962 270.315 74.6709 223.739 74.6972C120.13 74.7672 23.95 56.0294 -77.5225 48.9546C-192.289 40.9517 -310.243 47.0195 -422.825 30.8998" stroke="url(#paint43_linear_1319_2186)" stroke-opacity="0.2" stroke-miterlimit="10" />
      <path d="M1872.42 8.7561C1757.42 12.5562 1661.86 53.8756 1543.52 45.9252C1451.92 39.796 1367.28 16.1549 1275.48 10.9013C1184.27 5.64773 1088.01 21.4085 998.606 29.8317C913.169 37.8522 827.062 44.3579 740.382 39.2882C657.941 34.4724 574.035 29.9368 491.722 38.2024C444.062 42.9745 402.618 54.0683 357.302 62.5441C313.356 70.7572 267.051 73.4452 220.905 72.8498C117.456 71.5277 22.2799 50.3908 -79.0491 43.4823C-193.162 35.707 -310.813 45.0409 -422.869 28.5971" stroke="url(#paint44_linear_1319_2186)" stroke-opacity="0.2" stroke-miterlimit="10" />
      <path d="M1872.39 5.61255C1756.67 9.54398 1660.77 51.1436 1541.65 43.5434C1450 37.6857 1364.72 14.8063 1272.88 10.0518C1181.86 5.34111 1086.38 21.0756 997.025 29.1836C911.747 36.8976 826.071 42.589 739.885 36.3022C656.52 30.2256 571.577 27.4062 488.69 36.9414C441.078 42.4139 399.284 54.0331 353.569 62.3337C309.894 70.2141 263.828 72.3856 218.081 71.186C114.903 68.498 20.5398 45.067 -80.6139 38.3074C-194.185 30.7159 -311.485 43.2895 -423 26.5218" stroke="url(#paint45_linear_1319_2186)" stroke-opacity="0.2" stroke-miterlimit="10" />
      <path d="M1872.37 2.68823C1756.01 6.74225 1659.77 48.6396 1539.89 41.3459C1448.19 35.7595 1362.43 13.5719 1270.38 9.34277C1179.52 5.17493 1084.74 20.8831 995.528 28.711C910.362 36.1973 825.116 41.0306 739.44 33.553C655.103 26.198 569.395 25.0597 485.791 35.8296C438.275 41.9588 396.082 54.1033 350.064 62.2113C306.612 69.8641 260.801 71.4489 215.533 69.6802C112.721 65.6612 19.0114 40.0675 -81.951 33.3954C-195.123 25.9441 -311.946 41.7399 -422.966 24.5694" stroke="url(#paint46_linear_1319_2186)" stroke-opacity="0.2" stroke-miterlimit="10" />
      <path d="M1872.36 0C1755.27 4.15033 1658.77 46.3279 1538.22 39.3231C1446.43 33.9994 1360.15 12.4685 1268 8.75597C1177.29 5.10473 1083.25 20.8129 994.112 28.3956C909.025 35.6368 824.194 39.6646 738.996 31.0224C653.798 22.3803 567.245 22.8881 482.987 34.8488C435.583 41.5821 392.976 54.1119 346.703 62.1849C303.665 69.7063 257.79 70.6519 213.079 68.3141C110.683 63.0605 17.4989 35.4004 -83.2563 28.8159C-195.934 21.4521 -312.422 40.4438 -422.964 22.8093" stroke="url(#paint47_linear_1319_2186)" stroke-opacity="0.2" stroke-miterlimit="10" />
    </g>
  </g>
  <defs>
    <linearGradient id="paint0_linear_1319_2186" x1="-1.65292e+06" y1="13388.2" x2="-1.65292e+06" y2="3795.55" gradientUnits="userSpaceOnUse">
      <stop stop-color="#592CB8" />
      <stop offset="1" stop-color="#2C66B8" />
    </linearGradient>
    <linearGradient id="paint1_linear_1319_2186" x1="-1.65292e+06" y1="14244.7" x2="-1.65292e+06" y2="4015.78" gradientUnits="userSpaceOnUse">
      <stop stop-color="#592CB8" />
      <stop offset="1" stop-color="#2C66B8" />
    </linearGradient>
    <linearGradient id="paint2_linear_1319_2186" x1="-1.65296e+06" y1="14701.6" x2="-1.65296e+06" y2="4129.68" gradientUnits="userSpaceOnUse">
      <stop stop-color="#592CB8" />
      <stop offset="1" stop-color="#2C66B8" />
    </linearGradient>
    <linearGradient id="paint3_linear_1319_2186" x1="-1.65292e+06" y1="14903.9" x2="-1.65292e+06" y2="4175.4" gradientUnits="userSpaceOnUse">
      <stop stop-color="#592CB8" />
      <stop offset="1" stop-color="#2C66B8" />
    </linearGradient>
    <linearGradient id="paint4_linear_1319_2186" x1="-1.65288e+06" y1="15109" x2="-1.65288e+06" y2="4221.84" gradientUnits="userSpaceOnUse">
      <stop stop-color="#592CB8" />
      <stop offset="1" stop-color="#2C66B8" />
    </linearGradient>
    <linearGradient id="paint5_linear_1319_2186" x1="-1.65289e+06" y1="15224.7" x2="-1.65289e+06" y2="4245.06" gradientUnits="userSpaceOnUse">
      <stop stop-color="#592CB8" />
      <stop offset="1" stop-color="#2C66B8" />
    </linearGradient>
    <linearGradient id="paint6_linear_1319_2186" x1="-1.65295e+06" y1="15257.3" x2="-1.65295e+06" y2="4246.64" gradientUnits="userSpaceOnUse">
      <stop stop-color="#592CB8" />
      <stop offset="1" stop-color="#2C66B8" />
    </linearGradient>
    <linearGradient id="paint7_linear_1319_2186" x1="-1.65292e+06" y1="15217.3" x2="-1.65292e+06" y2="4229.36" gradientUnits="userSpaceOnUse">
      <stop stop-color="#592CB8" />
      <stop offset="1" stop-color="#2C66B8" />
    </linearGradient>
    <linearGradient id="paint8_linear_1319_2186" x1="-1.65292e+06" y1="15111.3" x2="-1.65292e+06" y2="4194.97" gradientUnits="userSpaceOnUse">
      <stop stop-color="#592CB8" />
      <stop offset="1" stop-color="#2C66B8" />
    </linearGradient>
    <linearGradient id="paint9_linear_1319_2186" x1="-1.65293e+06" y1="14869.3" x2="-1.65293e+06" y2="4125.07" gradientUnits="userSpaceOnUse">
      <stop stop-color="#592CB8" />
      <stop offset="1" stop-color="#2C66B8" />
    </linearGradient>
    <linearGradient id="paint10_linear_1319_2186" x1="-1.65294e+06" y1="14707.1" x2="-1.65294e+06" y2="4076.3" gradientUnits="userSpaceOnUse">
      <stop stop-color="#592CB8" />
      <stop offset="1" stop-color="#2C66B8" />
    </linearGradient>
    <linearGradient id="paint11_linear_1319_2186" x1="-1.65287e+06" y1="14511.3" x2="-1.65287e+06" y2="4018.85" gradientUnits="userSpaceOnUse">
      <stop stop-color="#592CB8" />
      <stop offset="1" stop-color="#2C66B8" />
    </linearGradient>
    <linearGradient id="paint12_linear_1319_2186" x1="-1.65292e+06" y1="14303.4" x2="-1.65292e+06" y2="3958.44" gradientUnits="userSpaceOnUse">
      <stop stop-color="#592CB8" />
      <stop offset="1" stop-color="#2C66B8" />
    </linearGradient>
    <linearGradient id="paint13_linear_1319_2186" x1="-1.65296e+06" y1="14083.7" x2="-1.65296e+06" y2="3895.02" gradientUnits="userSpaceOnUse">
      <stop stop-color="#592CB8" />
      <stop offset="1" stop-color="#2C66B8" />
    </linearGradient>
    <linearGradient id="paint14_linear_1319_2186" x1="-1.65289e+06" y1="13861" x2="-1.65289e+06" y2="3830.95" gradientUnits="userSpaceOnUse">
      <stop stop-color="#592CB8" />
      <stop offset="1" stop-color="#2C66B8" />
    </linearGradient>
    <linearGradient id="paint15_linear_1319_2186" x1="-1.65292e+06" y1="13571.2" x2="-1.65292e+06" y2="3749.33" gradientUnits="userSpaceOnUse">
      <stop stop-color="#592CB8" />
      <stop offset="1" stop-color="#2C66B8" />
    </linearGradient>
    <linearGradient id="paint16_linear_1319_2186" x1="-1.65287e+06" y1="13363.7" x2="-1.65287e+06" y2="3689.47" gradientUnits="userSpaceOnUse">
      <stop stop-color="#592CB8" />
      <stop offset="1" stop-color="#2C66B8" />
    </linearGradient>
    <linearGradient id="paint17_linear_1319_2186" x1="-1.65288e+06" y1="13178.8" x2="-1.65288e+06" y2="3635.6" gradientUnits="userSpaceOnUse">
      <stop stop-color="#592CB8" />
      <stop offset="1" stop-color="#2C66B8" />
    </linearGradient>
    <linearGradient id="paint18_linear_1319_2186" x1="-1.65287e+06" y1="13033.5" x2="-1.65287e+06" y2="3592.25" gradientUnits="userSpaceOnUse">
      <stop stop-color="#592CB8" />
      <stop offset="1" stop-color="#2C66B8" />
    </linearGradient>
    <linearGradient id="paint19_linear_1319_2186" x1="-1.65296e+06" y1="12908.1" x2="-1.65296e+06" y2="3554.08" gradientUnits="userSpaceOnUse">
      <stop stop-color="#592CB8" />
      <stop offset="1" stop-color="#2C66B8" />
    </linearGradient>
    <linearGradient id="paint20_linear_1319_2186" x1="-1.65292e+06" y1="12845.9" x2="-1.65292e+06" y2="3532.58" gradientUnits="userSpaceOnUse">
      <stop stop-color="#592CB8" />
      <stop offset="1" stop-color="#2C66B8" />
    </linearGradient>
    <linearGradient id="paint21_linear_1319_2186" x1="-1.65292e+06" y1="12816.1" x2="-1.65292e+06" y2="3519.59" gradientUnits="userSpaceOnUse">
      <stop stop-color="#592CB8" />
      <stop offset="1" stop-color="#2C66B8" />
    </linearGradient>
    <linearGradient id="paint22_linear_1319_2186" x1="-1.65295e+06" y1="12734" x2="-1.65295e+06" y2="3492.75" gradientUnits="userSpaceOnUse">
      <stop stop-color="#592CB8" />
      <stop offset="1" stop-color="#2C66B8" />
    </linearGradient>
    <linearGradient id="paint23_linear_1319_2186" x1="-1.65292e+06" y1="12610.6" x2="-1.65292e+06" y2="3455.03" gradientUnits="userSpaceOnUse">
      <stop stop-color="#592CB8" />
      <stop offset="1" stop-color="#2C66B8" />
    </linearGradient>
    <linearGradient id="paint24_linear_1319_2186" x1="-1.65295e+06" y1="12430.6" x2="-1.65295e+06" y2="3402.31" gradientUnits="userSpaceOnUse">
      <stop stop-color="#592CB8" />
      <stop offset="1" stop-color="#2C66B8" />
    </linearGradient>
    <linearGradient id="paint25_linear_1319_2186" x1="-1.65292e+06" y1="12215" x2="-1.65292e+06" y2="3340.25" gradientUnits="userSpaceOnUse">
      <stop stop-color="#592CB8" />
      <stop offset="1" stop-color="#2C66B8" />
    </linearGradient>
    <linearGradient id="paint26_linear_1319_2186" x1="-1.65295e+06" y1="11957.3" x2="-1.65295e+06" y2="3267.04" gradientUnits="userSpaceOnUse">
      <stop stop-color="#592CB8" />
      <stop offset="1" stop-color="#2C66B8" />
    </linearGradient>
    <linearGradient id="paint27_linear_1319_2186" x1="-1.65291e+06" y1="11669.9" x2="-1.65291e+06" y2="3186.1" gradientUnits="userSpaceOnUse">
      <stop stop-color="#592CB8" />
      <stop offset="1" stop-color="#2C66B8" />
    </linearGradient>
    <linearGradient id="paint28_linear_1319_2186" x1="-1.65292e+06" y1="11344.5" x2="-1.65292e+06" y2="3095.12" gradientUnits="userSpaceOnUse">
      <stop stop-color="#592CB8" />
      <stop offset="1" stop-color="#2C66B8" />
    </linearGradient>
    <linearGradient id="paint29_linear_1319_2186" x1="-1.6529e+06" y1="10983.4" x2="-1.6529e+06" y2="2994.72" gradientUnits="userSpaceOnUse">
      <stop stop-color="#592CB8" />
      <stop offset="1" stop-color="#2C66B8" />
    </linearGradient>
    <linearGradient id="paint30_linear_1319_2186" x1="-1.65292e+06" y1="10610.9" x2="-1.65292e+06" y2="2891.47" gradientUnits="userSpaceOnUse">
      <stop stop-color="#592CB8" />
      <stop offset="1" stop-color="#2C66B8" />
    </linearGradient>
    <linearGradient id="paint31_linear_1319_2186" x1="-1.65292e+06" y1="10208.3" x2="-1.65292e+06" y2="2780.31" gradientUnits="userSpaceOnUse">
      <stop stop-color="#592CB8" />
      <stop offset="1" stop-color="#2C66B8" />
    </linearGradient>
    <linearGradient id="paint32_linear_1319_2186" x1="-1.65292e+06" y1="9802.68" x2="-1.65292e+06" y2="2668.52" gradientUnits="userSpaceOnUse">
      <stop stop-color="#592CB8" />
      <stop offset="1" stop-color="#2C66B8" />
    </linearGradient>
    <linearGradient id="paint33_linear_1319_2186" x1="-1.65292e+06" y1="9375.81" x2="-1.65292e+06" y2="2551.19" gradientUnits="userSpaceOnUse">
      <stop stop-color="#592CB8" />
      <stop offset="1" stop-color="#2C66B8" />
    </linearGradient>
    <linearGradient id="paint34_linear_1319_2186" x1="-1.65292e+06" y1="8950.88" x2="-1.65292e+06" y2="2434.57" gradientUnits="userSpaceOnUse">
      <stop stop-color="#592CB8" />
      <stop offset="1" stop-color="#2C66B8" />
    </linearGradient>
    <linearGradient id="paint35_linear_1319_2186" x1="-1.65284e+06" y1="8534.88" x2="-1.65284e+06" y2="2320.55" gradientUnits="userSpaceOnUse">
      <stop stop-color="#592CB8" />
      <stop offset="1" stop-color="#2C66B8" />
    </linearGradient>
    <linearGradient id="paint36_linear_1319_2186" x1="-1.65298e+06" y1="8089.34" x2="-1.65298e+06" y2="2198.74" gradientUnits="userSpaceOnUse">
      <stop stop-color="#592CB8" />
      <stop offset="1" stop-color="#2C66B8" />
    </linearGradient>
    <linearGradient id="paint37_linear_1319_2186" x1="-1.65292e+06" y1="7814.65" x2="-1.65292e+06" y2="2123.15" gradientUnits="userSpaceOnUse">
      <stop stop-color="#592CB8" />
      <stop offset="1" stop-color="#2C66B8" />
    </linearGradient>
    <linearGradient id="paint38_linear_1319_2186" x1="-1.65292e+06" y1="7476.16" x2="-1.65292e+06" y2="2030.51" gradientUnits="userSpaceOnUse">
      <stop stop-color="#592CB8" />
      <stop offset="1" stop-color="#2C66B8" />
    </linearGradient>
    <linearGradient id="paint39_linear_1319_2186" x1="-1.65295e+06" y1="7207.08" x2="-1.65295e+06" y2="1956.81" gradientUnits="userSpaceOnUse">
      <stop stop-color="#592CB8" />
      <stop offset="1" stop-color="#2C66B8" />
    </linearGradient>
    <linearGradient id="paint40_linear_1319_2186" x1="-1.65292e+06" y1="6989.43" x2="-1.65292e+06" y2="1897.07" gradientUnits="userSpaceOnUse">
      <stop stop-color="#592CB8" />
      <stop offset="1" stop-color="#2C66B8" />
    </linearGradient>
    <linearGradient id="paint41_linear_1319_2186" x1="-1.65286e+06" y1="6808.46" x2="-1.65286e+06" y2="1847.33" gradientUnits="userSpaceOnUse">
      <stop stop-color="#592CB8" />
      <stop offset="1" stop-color="#2C66B8" />
    </linearGradient>
    <linearGradient id="paint42_linear_1319_2186" x1="-1.65288e+06" y1="6654.53" x2="-1.65288e+06" y2="1805.04" gradientUnits="userSpaceOnUse">
      <stop stop-color="#592CB8" />
      <stop offset="1" stop-color="#2C66B8" />
    </linearGradient>
    <linearGradient id="paint43_linear_1319_2186" x1="-1.65287e+06" y1="6529.31" x2="-1.65287e+06" y2="1770.58" gradientUnits="userSpaceOnUse">
      <stop stop-color="#592CB8" />
      <stop offset="1" stop-color="#2C66B8" />
    </linearGradient>
    <linearGradient id="paint44_linear_1319_2186" x1="-1.6529e+06" y1="6533.24" x2="-1.6529e+06" y2="1770.31" gradientUnits="userSpaceOnUse">
      <stop stop-color="#592CB8" />
      <stop offset="1" stop-color="#2C66B8" />
    </linearGradient>
    <linearGradient id="paint45_linear_1319_2186" x1="-1.65296e+06" y1="6703.79" x2="-1.65296e+06" y2="1814.06" gradientUnits="userSpaceOnUse">
      <stop stop-color="#592CB8" />
      <stop offset="1" stop-color="#2C66B8" />
    </linearGradient>
    <linearGradient id="paint46_linear_1319_2186" x1="-1.65293e+06" y1="6880.5" x2="-1.65293e+06" y2="1859.64" gradientUnits="userSpaceOnUse">
      <stop stop-color="#592CB8" />
      <stop offset="1" stop-color="#2C66B8" />
    </linearGradient>
    <linearGradient id="paint47_linear_1319_2186" x1="-1.65292e+06" y1="7060.33" x2="-1.65292e+06" y2="1906.23" gradientUnits="userSpaceOnUse">
      <stop stop-color="#592CB8" />
      <stop offset="1" stop-color="#2C66B8" />
    </linearGradient>
    <clipPath id="clip0_1319_2186">
      <rect width="1621" height="328" fill="white" />
    </clipPath>
  </defs>
</svg>
  