<svg width="40" height="40" viewBox="0 0 40 40" fill="none" xmlns="http://www.w3.org/2000/svg">
  <rect x="7.2002" y="10.3999" width="31.2" height="24" rx="5" fill="#FFD004" />
  <path d="M14.4001 31.1998C14.4001 32.3998 14.0641 33.5358 13.4721 34.4958C13.1361 35.0718 12.7041 35.5838 12.2081 35.9998C11.0881 37.0078 9.6161 37.5998 8.0001 37.5998C5.6641 37.5998 3.6321 36.3518 2.5281 34.4958C1.9361 33.5358 1.6001 32.3998 1.6001 31.1998C1.6001 29.1838 2.5281 27.3758 4.0001 26.2078C5.1041 25.3278 6.4961 24.7998 8.0001 24.7998C11.5361 24.7998 14.4001 27.6638 14.4001 31.1998Z" stroke="white" stroke-width="1.5" stroke-miterlimit="10" stroke-linecap="round" stroke-linejoin="round" />
  <path d="M11.2002 20H22.4002" stroke="white" stroke-width="1.5" stroke-linecap="round" stroke-linejoin="round" />
  <path d="M36 23.1922V26.408C36 27.2665 35.3137 27.9689 34.4403 28.0001H31.3832C29.6987 28.0001 28.1546 26.7669 28.0142 25.0811C27.9206 24.0976 28.295 23.1767 28.9501 22.5367C29.5272 21.9435 30.3226 21.6001 31.1961 21.6001H34.4403C35.3137 21.6313 36 22.3337 36 23.1922Z" stroke="white" stroke-width="1.5" stroke-linecap="round" stroke-linejoin="round" />
  <path d="M4 20.0002V12.5926C4 10.6637 5.18218 8.94544 6.97975 8.26465L19.8381 3.40185C21.8462 2.64001 24 4.13132 24 6.28716V12.4467" stroke="white" stroke-width="1.5" stroke-linecap="round" stroke-linejoin="round" />
  <path d="M28.864 22.2426C28.192 22.9101 27.808 23.8707 27.904 24.8964C28.048 26.6547 29.632 27.9408 31.36 27.9408H34.4V29.8782C34.4 33.2484 31.696 35.9998 28.384 35.9998H12.208C12.704 35.5765 13.136 35.0555 13.472 34.4694C14.064 33.4926 14.4 32.3366 14.4 31.1156C14.4 27.5176 11.536 24.6033 8 24.6033C6.496 24.6033 5.104 25.1406 4 26.036V18.9214C4 15.5513 6.704 12.7998 10.016 12.7998H28.384C31.696 12.7998 34.4 15.5513 34.4 18.9214V21.2658H31.168C30.272 21.2658 29.456 21.6239 28.864 22.2426Z" stroke="white" stroke-width="1.5" stroke-linecap="round" stroke-linejoin="round" />
  <path d="M4.7998 31.5899L6.57671 33.6001L10.3998 29.6001" stroke="white" stroke-width="1.5" stroke-linecap="round" stroke-linejoin="round" />
</svg>
  