<svg width="1898" height="379" viewBox="0 0 1898 379" fill="none" xmlns="http://www.w3.org/2000/svg">
  <path d="M0 319.508C89.8683 319.341 186.256 322.572 274.849 314.158C414.035 300.936 545.602 270.15 683.752 254.381C735.237 248.505 783.726 244.863 833.729 255.773C874.295 264.678 908.869 279.957 941.928 295.227C1000.44 322.222 1063.32 358.104 1144.36 361.125C1196.15 363.06 1248.23 348.218 1292.95 335.654C1342.57 321.714 1390.28 305.831 1439.89 291.874C1485.47 279.055 1539.67 263.329 1592.59 266.613C1639.36 269.511 1681.42 285.788 1717.09 301.461C1786.72 332.107 1862.88 382.769 1961.55 377.638C2079.79 371.509 2175.82 324.507 2295.32 319.472" stroke="url(#paint0_linear_1247_2182)" stroke-opacity="0.2" stroke-miterlimit="10" />
  <path d="M0.0170898 308.632C88.2755 308.466 183.643 311.706 270.531 303.133C412.171 289.168 545.268 256.28 685.729 239.53C736.976 233.401 785.831 229.487 835.324 241.176C875.843 250.746 909.38 267.339 941.244 283.66C997.32 312.371 1057.83 351.23 1139.85 354.584C1193.06 356.737 1246.65 340.662 1292.08 327.37C1343.36 312.353 1392.5 295.262 1443.78 280.228C1490 266.665 1545.79 249.704 1600.13 253.163C1647.39 256.175 1688.74 273.468 1723.44 290.043C1790.91 322.256 1864.75 376.552 1964.99 371.08C2083.23 364.627 2175.6 313.851 2295.34 308.667" stroke="url(#paint1_linear_1247_2182)" stroke-opacity="0.2" stroke-miterlimit="10" />
  <path d="M0.043457 297.95C87.0586 297.81 181.836 301.111 267.449 292.609C410.285 278.425 543.748 243.812 685.293 226.607C735.838 220.478 785.602 216.485 834.394 228.253C875.247 238.103 908.322 255.589 939.596 272.602C994.78 302.67 1053.5 343.087 1137.25 346.345C1191.64 348.464 1245.37 332.221 1291.43 318.326C1343.8 302.565 1393.85 284.598 1446.19 268.819C1493.01 254.705 1549.04 237.473 1604.49 240.905C1652.31 243.865 1692.96 261.473 1727.23 278.757C1794.17 312.512 1864.48 368.182 1967.07 362.762C2085.62 356.502 2175.2 302.6 2295.43 297.968" stroke="url(#paint2_linear_1247_2182)" stroke-opacity="0.2" stroke-miterlimit="10" />
  <path d="M0.0595703 287.443C86.7559 287.145 181.231 290.858 266.477 282.189C408.34 267.733 540.098 232.088 680.528 214.479C730.929 208.166 780.661 204.384 829.421 216.012C870.864 225.915 904.593 243.611 936.329 260.834C992.532 291.339 1051.88 332.274 1136.72 336.091C1191.49 338.552 1244.91 322.511 1291.18 308.396C1343.62 292.39 1393.58 274.073 1446 258.058C1493.04 243.681 1548.78 226.685 1604.65 230.363C1652.79 233.532 1693.2 251.176 1727.53 268.653C1794.75 302.88 1863.72 357.815 1967.12 352.71C2086 346.861 2174.66 291.488 2295.38 287.443" stroke="url(#paint3_linear_1247_2182)" stroke-opacity="0.2" stroke-miterlimit="10" />
  <path d="M0.0751953 277.172C87.1381 276.629 181.326 281.313 266.875 272.041C406.22 256.937 535.013 220.705 672.876 202.475C723.883 195.724 772.308 192.213 821.769 203.919C863.962 213.892 898.886 231.404 931.786 248.478C989.854 278.652 1051.7 319.997 1136.55 325.207C1190.98 328.552 1244.59 312.467 1290.46 298.361C1342.27 282.434 1391.47 264.099 1443.26 248.154C1490.2 233.698 1545.94 216.834 1601.73 221.204C1649.73 224.96 1690.73 242.857 1725.54 260.141C1793.11 293.677 1864.07 347.579 1966.23 342.623C2085.39 336.835 2174.34 281.147 2295.35 277.172" stroke="url(#paint4_linear_1247_2182)" stroke-opacity="0.2" stroke-miterlimit="10" />
  <path d="M0.107422 267.076C87.6645 266.428 181.597 272.417 267.672 262.602C404.18 247.034 529.61 210.329 664.572 191.679C716.009 184.551 763.303 181.373 813.322 192.931C856.168 202.834 892.494 219.89 926.621 236.833C986.635 266.604 1051.33 307.8 1136.1 314.271C1190.04 318.395 1243.23 302.643 1288.69 288.599C1339.62 272.838 1387.79 254.617 1438.69 238.865C1485.48 224.382 1540.7 208 1596.23 212.991C1644.28 217.316 1686.01 235.292 1721.6 252.393C1790.06 285.227 1863.35 337.781 1964.73 332.895C2084.42 327.134 2173.86 271.087 2295.4 267.129" stroke="url(#paint5_linear_1247_2182)" stroke-opacity="0.2" stroke-miterlimit="10" />
  <path d="M0.141113 257.173C88.3039 256.552 182.189 264.126 268.869 253.811C402.253 237.954 524.033 200.873 655.823 181.898C707.468 174.465 753.868 171.671 804.302 182.897C847.913 192.598 885.595 209.164 921.045 225.801C983.56 255.037 1050.52 295.638 1135.53 303.3C1188.83 308.098 1241.08 293.029 1286.1 279.081C1335.91 263.635 1382.85 245.572 1432.63 230.109C1479.25 215.618 1533.4 200.049 1588.6 205.592C1636.87 210.452 1679.46 228.358 1716.12 245.222C1785.95 277.33 1861.86 328.272 1962.69 323.412C2083.12 317.607 2173.24 261.184 2295.51 257.2" stroke="url(#paint6_linear_1247_2182)" stroke-opacity="0.2" stroke-miterlimit="10" />
  <path d="M0.15625 247.463C89.0363 246.973 182.89 256.368 270.351 245.607C400.388 229.61 518.294 192.196 646.689 173.116C698.301 165.429 744.065 163.038 794.753 173.773C839.145 183.177 878.15 199.165 915.05 215.294C980.403 243.865 1049.41 283.494 1134.73 292.259C1237.7 302.845 1341.76 247.752 1425.2 221.782C1471.65 207.317 1524.33 192.826 1579.05 198.894C1627.7 204.296 1671.18 222.027 1709.11 238.637C1780.71 269.992 1859.45 319.113 1960.03 314.228C2081.35 308.344 2172.33 251.509 2295.48 247.463" stroke="url(#paint7_linear_1247_2182)" stroke-opacity="0.2" stroke-miterlimit="10" />
  <path d="M0.191406 237.954C89.8525 237.682 183.722 249.091 272.092 237.954C398.637 221.948 512.479 184.359 637.303 165.218C688.741 157.338 734.058 155.376 784.89 165.489C830.095 174.499 870.454 189.778 908.805 205.399C976.995 233.156 1048.05 271.463 1133.81 281.313C1235.22 292.941 1334.8 239.442 1416.69 213.892C1461.98 199.787 1514.77 185.567 1567.99 192.834C1617.41 199.576 1660.94 215.924 1701.01 232.56C1774.67 263.119 1856.44 310.252 1957.02 305.314C2079.37 299.316 2171.33 242.052 2295.52 237.893" stroke="url(#paint8_linear_1247_2182)" stroke-opacity="0.2" stroke-miterlimit="10" />
  <path d="M0.220215 228.629C90.7261 228.629 184.691 242.227 274.049 230.678C396.993 214.786 506.658 177.039 627.8 158.003C838.205 124.915 947.966 247.069 1132.79 270.448C1232.41 283.065 1326.95 231.492 1407.37 206.459C1452.44 192.449 1503.2 179.692 1555.75 187.371C1605.78 194.682 1650.34 210.671 1692.02 226.992C1767.97 256.762 1852.91 301.75 1953.7 296.733C2077.19 290.604 2170.23 232.893 2295.56 228.629" stroke="url(#paint9_linear_1247_2182)" stroke-opacity="0.2" stroke-miterlimit="10" />
  <path d="M0.248047 219.505C91.6307 219.873 185.755 235.704 276.181 223.813C395.458 208.131 500.932 170.297 618.296 151.427C824.349 118.312 949.843 234.609 1131.68 259.66C1229.59 273.162 1318.45 223.874 1397.4 199.323C1442.29 185.366 1490.82 174.289 1542.63 182.319C1593.33 190.199 1639.01 205.785 1682.37 221.764C1760.76 250.659 1848.94 293.484 1950.16 288.353C2074.86 282.04 2169.06 223.909 2295.6 219.505" stroke="url(#paint10_linear_1247_2182)" stroke-opacity="0.2" stroke-miterlimit="10" />
  <path d="M0.280762 210.574C92.5719 211.319 186.887 229.461 278.445 217.273C394.072 201.88 495.226 164.001 608.956 145.386C810.642 112.367 951.661 222.307 1130.55 249.031C1226.7 263.39 1309.52 216.529 1387.09 192.458C1431.81 178.58 1477.94 169.281 1528.95 177.573C1580.36 185.97 1627.22 201.214 1672.3 216.8C1753.21 244.819 1844.64 285.412 1946.37 280.167C2072.29 273.661 2167.74 215.093 2295.54 210.539" stroke="url(#paint11_linear_1247_2182)" stroke-opacity="0.2" stroke-miterlimit="10" />
  <path d="M0.3125 201.836C93.4963 202.965 188.083 223.428 280.852 210.986C392.909 195.943 489.886 158.047 599.95 139.747C797.348 106.921 953.446 210.259 1129.4 238.585C1223.82 253.785 1300.42 209.419 1376.66 185.813C1421.2 172.022 1465.08 164.553 1515.24 173.143C1567.37 182.074 1615.46 196.933 1662.22 212.133C1745.67 239.277 1840.32 277.628 1942.68 272.252C2069.93 265.562 2166.56 206.582 2295.64 201.836" stroke="url(#paint12_linear_1247_2182)" stroke-opacity="0.2" stroke-miterlimit="10" />
  <path d="M0.344727 193.299C94.3893 194.805 189.295 217.535 283.132 204.883C391.745 190.234 484.626 152.347 591.183 134.406C784.676 101.834 955.248 198.447 1128.35 228.357C1221.04 244.381 1291.42 202.51 1366.41 179.324C1410.76 165.621 1452.49 159.982 1501.69 168.817C1554.53 178.291 1603.84 192.808 1652.28 207.588C1738.18 233.804 1835.98 269.992 1939.05 264.502C2067.57 257.629 2165.39 198.167 2295.73 193.316" stroke="url(#paint13_linear_1247_2182)" stroke-opacity="0.2" stroke-miterlimit="10" />
  <path d="M0.376953 184.946C95.3619 186.811 190.49 211.721 285.475 198.894C390.821 184.665 479.781 146.805 583.023 129.249C772.801 96.9744 957.017 186.881 1127.22 218.376C1218.37 235.24 1282.44 195.689 1356.4 172.967C1400.6 159.396 1440.15 155.456 1488.53 164.544C1542.05 174.561 1592.55 188.79 1642.57 203.141C1730.83 228.454 1831.65 262.515 1935.43 256.885C2065.16 249.836 2164.13 189.945 2295.67 184.946" stroke="url(#paint14_linear_1247_2182)" stroke-opacity="0.2" stroke-miterlimit="10" />
  <path d="M0.408691 176.794C96.2863 178.965 191.686 205.925 287.739 192.966C390.072 179.167 475.35 141.306 575.499 124.162C672.652 107.525 776.005 126.307 866.75 146.375C954.259 165.735 1037.45 191.127 1126.27 208.683C1216.26 226.475 1273.66 188.789 1347.06 166.654C1444.53 137.278 1544.37 174.535 1633.58 198.692C1723.97 223.139 1827.63 255.168 1932.1 249.416C2062.98 242.218 2163.03 181.907 2295.73 176.785" stroke="url(#paint15_linear_1247_2182)" stroke-opacity="0.2" stroke-miterlimit="10" />
  <path d="M0.441406 168.826C97.2116 171.251 192.627 200.076 289.907 187.02C389.515 173.641 471.397 135.807 568.853 119.039C665.113 102.455 771.192 120.466 862.368 138.845C951.646 156.847 1036.62 180.62 1125.42 199.323C1214.22 218.025 1266.09 182.187 1338.55 160.367C1433.81 131.691 1537.8 171.75 1625.47 194.209C1717.76 217.85 1824.04 247.936 1929.09 242.104C2060.99 234.776 2162.03 174.062 2295.7 168.826" stroke="url(#paint16_linear_1247_2182)" stroke-opacity="0.2" stroke-miterlimit="10" />
  <path d="M0.474609 161.059C98.1534 163.686 193.489 194.122 291.901 180.988C389.134 168.02 468.004 130.203 562.877 113.759C658.404 97.2544 766.906 114.53 858.496 131.385C949.352 148.118 1036.03 170.463 1124.69 190.313C1166.52 199.673 1197.17 200.058 1237.61 187.984C1270.47 178.168 1298.27 163.914 1331.09 154.028C1374.88 140.824 1409.76 141.192 1455.61 151.007C1510.72 162.819 1564.4 176.4 1618.47 189.595C1712.31 212.431 1820.91 240.765 1926.43 234.881C2059.24 227.473 2161.12 166.357 2295.75 161.059" stroke="url(#paint17_linear_1247_2182)" stroke-opacity="0.2" stroke-miterlimit="10" />
  <path d="M0.506348 153.476C99.0937 156.103 194.142 187.992 293.702 174.814C389.006 162.197 465.182 124.24 558.143 108.216C653.175 91.8339 763.67 108.391 855.626 123.977C947.583 139.563 1035.87 160.752 1124.24 181.767C1165.08 191.477 1194.94 192.852 1235.02 180.838C1266.81 171.312 1293.33 157.25 1325.04 147.653C1368.58 134.467 1402.92 135.868 1447.98 146.007C1503.35 158.467 1557.87 172.021 1612.96 184.849C1707.97 206.966 1818.69 233.724 1924.37 227.823C2057.91 220.372 2160.49 158.887 2295.77 153.555" stroke="url(#paint18_linear_1247_2182)" stroke-opacity="0.2" stroke-miterlimit="10" />
  <path d="M0.536133 146.104C100.048 148.661 194.555 181.653 295.23 168.441C389.115 156.103 462.916 117.857 554.586 102.307C649.491 86.1869 761.181 101.991 853.711 116.465C946.991 131.044 1036.05 151.349 1124.05 173.519C1164.06 183.588 1193.58 185.707 1233.36 173.694C1264.29 164.369 1289.74 150.394 1320.57 140.982C1363.91 127.752 1398.21 129.897 1442.59 140.421C1498.04 153.555 1553.2 167.145 1609.13 179.701C1704.77 201.179 1817.33 226.554 1922.93 220.696C2057 213.254 2160.07 151.419 2295.92 146.104" stroke="url(#paint19_linear_1247_2182)" stroke-opacity="0.2" stroke-miterlimit="10" />
  <path d="M0.570801 138.915C100.991 141.236 194.685 175.025 296.476 161.777C389.389 149.685 461.596 111.273 552.166 95.9059C646.768 79.865 759.925 95.328 852.694 108.9C946.93 122.69 1036.38 142.444 1123.97 165.814C1163.33 176.321 1193.01 178.86 1232.59 166.768C1262.87 157.513 1287.53 143.53 1317.77 134.187C1360.95 120.843 1395.73 123.365 1439.58 134.371C1494.92 148.258 1550.49 161.943 1607.04 174.289C1702.97 195.225 1816.84 219.461 1922.01 213.691C2056.4 206.327 2159.72 144.16 2295.9 138.915" stroke="url(#paint20_linear_1247_2182)" stroke-opacity="0.2" stroke-miterlimit="10" />
  <path d="M0.617676 131.911C101.548 133.995 194.589 168.152 297.001 154.781C389.595 142.698 461.372 104.321 551.655 89.0414C646.162 73.053 759.828 88.8312 852.629 102.114C947.2 115.651 1036.37 135.255 1124.07 158.73C1163.28 169.237 1193.37 171.426 1232.68 159.413C1262.76 150.219 1287.26 136.359 1317.34 127.139C1360.37 113.952 1395.79 116.404 1439.23 127.725C1494.33 142.085 1549.96 155.876 1606.76 168.099C1702.22 188.649 1817.57 212.614 1921.93 206.625C2056.13 198.938 2160.12 137.821 2295.94 131.937" stroke="url(#paint21_linear_1247_2182)" stroke-opacity="0.2" stroke-miterlimit="10" />
  <path d="M0.648926 125.019C101.803 126.998 194.572 161.383 297.224 147.855C389.675 135.667 461.818 97.6133 552.164 82.4304C646.671 66.5471 760.083 83.0171 852.74 96.3875C947.008 109.994 1035.79 129.564 1124.1 151.927C1207.69 173.09 1249.11 140.544 1317.96 120.247C1361 107.56 1396.64 109.872 1439.67 121.237C1494.54 135.728 1550.07 149.484 1606.85 161.567C1701.76 181.758 1818.61 205.837 1922.22 199.34C2055.84 190.952 2161.11 132.322 2296.02 125.151" stroke="url(#paint22_linear_1247_2182)" stroke-opacity="0.2" stroke-miterlimit="10" />
  <path d="M0.681152 118.233C102.138 120.142 194.684 154.781 297.655 141.139C390.105 128.881 462.535 91.2299 552.93 76.1871C647.437 60.4263 760.513 77.5268 853.028 90.9409C946.929 104.556 1035.38 124.038 1124.19 145.272C1207.08 165.095 1249.99 133.127 1318.88 113.75C1361.92 101.614 1397.88 103.856 1440.53 115.239C1495.14 129.809 1550.52 143.459 1607.28 155.332C1701.8 175.112 1819.82 198.937 1922.57 192.002C2055.52 183.036 2162.08 126.954 2296.01 118.645" stroke="url(#paint23_linear_1247_2182)" stroke-opacity="0.2" stroke-miterlimit="10" />
  <path d="M0.713867 111.57C102.521 113.427 194.924 148.345 298.277 134.642C390.616 122.402 463.477 85.1799 553.935 70.2947C648.442 54.7966 761.152 72.3261 853.491 85.749C946.945 99.3208 1035.2 118.654 1124.34 138.714C1206.64 157.215 1251.01 125.956 1320.08 107.481C1363.23 95.9497 1399.46 98.1913 1441.79 109.565C1496.1 124.161 1551.36 137.654 1608.03 149.247C1702.31 168.554 1821.05 191.793 1923.1 184.499C2055.4 175.051 2163.18 121.605 2296.09 112.271" stroke="url(#paint24_linear_1247_2182)" stroke-opacity="0.2" stroke-miterlimit="10" />
  <path d="M0.745117 105.021C102.983 106.86 195.21 142.05 299.089 128.338C391.349 116.167 464.656 79.3659 555.193 64.7784C649.668 49.5518 761.805 67.4752 854.112 80.8544C947.056 94.3386 1035.04 113.47 1124.55 132.322C1206.22 149.527 1252.16 119.092 1321.54 101.615C1364.84 90.7048 1401.36 93.0252 1443.42 104.364C1497.3 119.034 1552.59 132.088 1609.05 143.468C1703.25 162.241 1822.32 184.621 1923.78 176.995C2055.22 167.162 2164.33 116.412 2296.07 106.194" stroke="url(#paint25_linear_1247_2182)" stroke-opacity="0.2" stroke-miterlimit="10" />
  <path d="M0.79541 98.5938C103.495 100.433 195.691 135.929 300.08 122.235C392.26 110.16 466.061 73.8494 556.71 59.5596C651.153 44.6745 762.811 62.8782 854.943 76.196C947.394 89.5401 1035.14 108.409 1124.85 126.035C1205.92 141.971 1253.52 112.437 1323.32 96.0195C1366.82 85.7838 1403.61 88.2355 1445.43 99.5219C1498.99 114.095 1554.08 126.904 1610.41 137.882C1704.66 156.068 1823.71 177.231 1924.63 169.403C2055.22 159.273 2165.57 111.299 2296.17 100.284" stroke="url(#paint26_linear_1247_2182)" stroke-opacity="0.2" stroke-miterlimit="10" />
  <path d="M0.82666 92.3072C104.053 94.1547 196.232 129.958 301.211 116.369C393.327 104.443 467.654 68.6573 558.336 54.7091C652.731 40.1917 763.799 58.6142 855.851 71.8182C947.616 84.9522 1035.33 103.524 1125.14 119.897C1205.63 134.581 1254.98 106.054 1325.26 90.7487C1369 81.2222 1406.08 83.8577 1447.73 95.1267C1500.92 109.561 1555.76 122.082 1611.91 132.611C1706.32 150.123 1825 169.876 1925.49 161.865C2055.17 151.533 2166.72 106.387 2296.14 94.6976" stroke="url(#paint27_linear_1247_2182)" stroke-opacity="0.2" stroke-miterlimit="10" />
  <path d="M0.858887 86.1431C104.659 88.0344 196.918 124.179 302.503 110.66C394.555 98.9443 469.424 63.7278 560.201 50.1561C654.532 36.0589 764.995 54.6128 856.84 67.668C947.967 80.6268 1035.59 98.778 1125.42 113.891C1205.36 127.331 1256.56 99.8812 1327.37 85.7491C1371.37 76.9931 1408.74 79.83 1450.26 91.0027C1503.1 105.265 1557.71 117.452 1613.69 127.471C1708.4 144.309 1826.42 162.39 1926.54 154.238C2055.29 143.731 2167.98 101.519 2296.18 89.2252" stroke="url(#paint28_linear_1247_2182)" stroke-opacity="0.2" stroke-miterlimit="10" />
  <path d="M0.887695 80.1188C105.309 82.0627 197.552 118.558 303.918 105.222C395.907 93.6818 471.365 59.0607 562.238 45.9093C656.49 32.2762 766.267 50.8914 857.984 63.7802C948.474 76.5026 1036.02 94.1985 1125.77 108.033C1205.17 120.291 1258.33 93.962 1329.69 81.047C1374 73.0353 1411.65 76.1787 1453.08 87.1762C1505.55 101.223 1559.9 113.037 1615.66 122.515C1710.74 138.582 1827.81 154.799 1927.64 146.55C2055.43 136.043 2169.19 96.7289 2296.18 83.9277" stroke="url(#paint29_linear_1247_2182)" stroke-opacity="0.2" stroke-miterlimit="10" />
  <path d="M0.922852 74.2434C105.998 76.2573 198.337 113.102 305.372 99.9509C397.408 88.682 473.457 54.6563 564.441 41.9601C658.597 28.8262 767.609 47.4326 859.326 60.1288C949.147 72.5798 1036.62 89.7677 1126.29 102.315C1205.14 113.356 1260.37 88.2529 1332.32 76.6163C1376.95 69.4013 1414.87 72.8512 1456.27 83.7962C1508.36 97.596 1562.44 108.997 1617.96 117.883C1713.41 133.127 1829.29 147.347 1928.9 139.003C2055.68 128.434 2170.47 92.1844 2296.25 78.9453" stroke="url(#paint30_linear_1247_2182)" stroke-opacity="0.2" stroke-miterlimit="10" />
  <path d="M0.95459 68.5431C106.683 70.6183 199.134 107.814 307.109 94.8811C399.002 83.8661 475.688 50.5058 566.768 38.2912C660.813 25.6739 769.075 44.2365 860.585 56.6788C949.752 68.8321 1037.17 85.4509 1126.64 96.7198C1205 106.597 1262.41 82.7103 1334.92 72.4133C1379.87 66.0126 1418.09 69.7865 1459.51 80.6526C1511.2 94.1765 1564.99 105.133 1620.24 113.391C1716.31 127.751 1830.76 139.747 1930.21 131.42C2056 120.913 2171.69 87.7099 2296.28 74.0944" stroke="url(#paint31_linear_1247_2182)" stroke-opacity="0.2" stroke-miterlimit="10" />
  <path d="M0.986328 62.9393C107.48 65.1371 200.106 102.691 308.847 90.004C400.723 79.2955 478.079 46.6007 569.223 34.8939C663.187 22.837 770.637 41.2945 862.02 53.5266C950.517 65.3735 1037.87 81.3619 1127.1 91.3524C1205 100.108 1264.67 77.5093 1337.73 68.5869C1383.01 63.0269 1421.52 67.2035 1463 77.9208C1514.3 91.1414 1567.79 101.624 1622.74 109.223C1719.4 122.638 1832.26 132.33 1931.58 123.995C2056.39 113.531 2172.91 83.4983 2296.31 69.5676" stroke="url(#paint32_linear_1247_2182)" stroke-opacity="0.2" stroke-miterlimit="10" />
  <path d="M1.01416 57.5199C108.273 59.8315 201.058 97.7449 310.708 85.3376C402.505 74.9443 480.482 42.9412 571.785 31.7686C665.622 20.2808 772.243 38.607 863.482 50.5677C951.342 62.0818 1038.58 77.396 1127.52 86.1082C1205.02 93.6996 1267.01 72.4664 1340.62 64.8749C1386.23 60.173 1425.01 64.7611 1466.63 75.3821C1517.53 88.2739 1570.71 98.2501 1625.34 105.152C1722.57 117.551 1833.7 124.836 1932.98 116.535C2056.81 106.194 2174.06 79.331 2296.34 65.1201" stroke="url(#paint33_linear_1247_2182)" stroke-opacity="0.2" stroke-miterlimit="10" />
  <path d="M1.04395 52.266C109.052 54.7002 202.076 92.9726 312.57 80.863C404.383 70.8024 483.014 39.5086 574.429 28.8876C668.139 18.0039 773.915 36.1463 865.09 47.8267C952.328 59.0081 1039.44 73.5868 1128.1 81.0294C1205.26 87.5001 1269.61 67.6503 1343.75 61.4598C1389.68 57.6159 1428.74 62.6419 1470.51 73.1052C1521.02 85.6636 1573.89 95.1247 1628.17 101.317C1726.06 112.638 1835.3 117.437 1934.54 109.197C2057.27 98.9879 2175.23 75.3643 2296.37 60.9169" stroke="url(#paint34_linear_1247_2182)" stroke-opacity="0.2" stroke-miterlimit="10" />
  <path d="M1.07861 47.1789C109.867 49.7444 203.131 88.3319 314.534 76.5902C406.347 66.8798 485.631 36.2952 577.157 26.2521C670.74 16.0076 775.655 33.9223 866.719 45.3051C953.367 56.1362 1040.32 69.9356 1128.59 76.1174C1205.49 81.5023 1272.18 63.0622 1346.79 58.2727C1393.02 55.3044 1432.37 60.7856 1474.31 71.1177C1524.42 83.3188 1576.98 92.2383 1630.89 97.6921C1729.39 107.875 1836.7 110.143 1935.94 101.965C2057.78 91.9306 2176.2 71.573 2296.29 56.9155" stroke="url(#paint35_linear_1247_2182)" stroke-opacity="0.2" stroke-miterlimit="10" />
  <path d="M1.11133 42.2758C110.697 44.9726 204.232 83.9542 316.527 72.5189C408.324 63.1588 488.31 33.3097 579.948 23.8882C673.371 14.2567 777.409 31.97 868.457 43.0375C954.532 53.5447 1041.29 66.4948 1129.2 71.4244C1205.95 75.7323 1274.92 58.7282 1350.11 55.3484C1396.67 53.2558 1436.18 59.2186 1478.52 69.4105C1528.25 81.2482 1580.48 89.6141 1634 94.3125C1858.75 114.705 2078.99 80.303 2296.52 53.1595" stroke="url(#paint36_linear_1247_2182)" stroke-opacity="0.2" stroke-miterlimit="10" />
  <path d="M1.14307 37.53C111.542 40.3757 205.347 79.6988 318.567 68.6225C410.364 59.6389 491.035 30.534 582.785 21.6642C676.048 12.6456 779.21 30.14 870.067 40.8836C955.647 51.0317 1042.15 63.1413 1129.66 66.7925C1206.4 70.0235 1277.53 54.5341 1353.28 52.5203C1400.11 51.2944 1439.96 57.7738 1482.54 67.8169C1531.69 79.4887 1583.9 86.9312 1636.9 91.0465C1855.92 108.059 2084.37 76.4766 2296.47 49.517" stroke="url(#paint37_linear_1247_2182)" stroke-opacity="0.2" stroke-miterlimit="10" />
  <path d="M1.17529 32.9766C112.387 35.9712 206.479 75.6357 320.624 64.9272C412.437 56.285 493.777 27.9595 585.638 19.6851C678.742 11.3056 781.012 28.5636 871.773 38.9482C956.891 48.7111 1043.09 59.9625 1130.2 62.423C1207.08 64.5945 1280.23 50.5674 1356.55 49.9807C1403.65 49.6217 1443.75 56.609 1486.66 66.5295C1535.5 77.816 1587.36 84.6194 1639.91 87.9992C1740.03 94.4348 1841.55 88.9536 1940.84 81.0819C2059.97 71.6343 2179.28 61.2672 2296.5 46.0581" stroke="url(#paint38_linear_1247_2182)" stroke-opacity="0.2" stroke-miterlimit="10" />
  <path d="M1.20557 28.6073C112.274 31.6982 206.239 71.4328 320.272 61.6436C411.718 53.7632 493.218 26.5409 584.361 18.284C676.493 9.93959 776.706 26.4971 866.67 36.4965C953.638 46.128 1041.74 56.8891 1130.76 58.2375C1209.79 59.4371 1286.79 46.1806 1365.65 47.7304C1413.24 48.6673 1452.92 57.2131 1496.55 66.7046C1541.86 76.5638 1589.71 82.2114 1638.11 84.882C1741.11 90.5646 1843.27 82.1851 1945.04 74.2785C2062.52 65.1548 2181.05 58.1325 2296.58 42.8796" stroke="url(#paint39_linear_1247_2182)" stroke-opacity="0.2" stroke-miterlimit="10" />
  <path d="M1.22168 24.4305C113.055 27.6703 207.402 67.7376 322.28 58.3249C413.742 50.8298 495.896 24.3255 587.183 16.6728C679.123 9.00252 778.54 25.3237 868.376 34.999C954.929 44.3329 1042.69 54.2621 1131.25 54.2621C1210.75 54.2621 1289.46 42.7656 1368.96 45.6988C1416.62 47.45 1456.63 56.4862 1500.59 65.7762C1545.61 75.2852 1593.14 80.3374 1641.12 82.3338C1744.46 86.633 1844.85 75.5742 1946.6 67.8864C2063.32 59.0692 2181.83 55.3129 2296.55 39.8673" stroke="url(#paint40_linear_1247_2182)" stroke-opacity="0.2" stroke-miterlimit="10" />
  <path d="M1.25635 20.4558C113.934 23.8443 208.473 64.2356 324.323 55.1907C415.817 48.0458 498.609 22.2858 590.023 15.2285C681.772 8.12737 780.408 24.3347 870.196 33.6948C956.271 42.6872 1043.7 51.7234 1131.8 50.445C1211.86 49.2804 1292.12 39.5088 1372.3 43.808C1420.02 46.3735 1460.35 55.8912 1504.6 64.9799C1549.23 74.1474 1596.54 78.6042 1644.07 79.9264C1747.68 82.8246 1846.41 69.139 1948.14 61.6614C2064.12 53.1331 2182.45 52.6602 2296.5 37.0221" stroke="url(#paint41_linear_1247_2182)" stroke-opacity="0.2" stroke-miterlimit="10" />
  <path d="M1.28809 16.6819C114.747 20.1843 209.684 60.9171 326.347 52.2487C417.858 45.4453 501.286 20.3857 592.844 13.9588C684.402 7.53191 782.24 23.5203 871.79 32.5565C957.657 41.2249 1044.67 49.4117 1132.29 46.8462C1213.06 44.4821 1294.69 36.4617 1375.53 42.1093C1423.35 45.4453 1463.97 55.4796 1508.63 64.3582C1553.29 73.2367 1600 77.0544 1647.08 77.7198C1750.69 79.1996 1848.12 62.9485 1949.73 55.681C2065.04 47.4329 2183.28 50.2348 2296.56 34.369" stroke="url(#paint42_linear_1247_2182)" stroke-opacity="0.2" stroke-miterlimit="10" />
  <path d="M1.30518 13.1092C115.545 16.7867 210.817 57.7647 328.309 49.4991C419.867 43.0284 503.901 18.7306 595.587 12.8466C686.89 6.98881 784.122 22.8721 873.512 31.6019C959.125 39.955 1045.66 47.2838 1132.85 43.4574C1214.42 39.8762 1297.25 33.5982 1378.82 40.568C1426.49 44.6483 1467.59 55.208 1512.57 63.8851C1556.72 72.3959 1603.43 75.6707 1650 75.6969C1753.61 75.767 1849.79 57.0292 1951.26 49.9544C2066.03 41.9514 2183.98 48.0193 2296.57 31.8996" stroke="url(#paint43_linear_1247_2182)" stroke-opacity="0.2" stroke-miterlimit="10" />
  <path d="M1.31787 9.75586C116.323 13.556 211.882 54.8754 330.219 46.925C421.824 40.7958 506.465 17.1547 598.262 11.9011C689.469 6.64749 785.729 22.4082 875.135 30.8315C960.572 38.852 1046.68 45.3576 1133.36 40.2879C1215.8 35.4722 1299.71 30.9366 1382.02 39.2022C1429.68 43.9742 1471.12 55.068 1516.44 63.5438C1560.38 71.7569 1606.69 74.445 1652.84 73.8496C1756.28 72.5274 1851.46 51.3905 1952.79 44.482C2066.9 36.7067 2184.55 46.0406 2296.61 29.5969" stroke="url(#paint44_linear_1247_2182)" stroke-opacity="0.2" stroke-miterlimit="10" />
  <path d="M1.35205 6.6123C117.075 10.5437 212.968 52.1434 332.086 44.5432C423.74 38.6854 509.017 15.8061 600.862 11.0516C691.878 6.34087 787.357 22.0754 876.715 30.1834C961.993 37.8974 1047.67 43.5888 1133.86 37.302C1217.22 31.2253 1302.16 28.4059 1385.05 37.9412C1432.66 43.4137 1474.46 55.0328 1520.17 63.3335C1563.85 71.2139 1609.91 73.3854 1655.66 72.1858C1758.84 69.4977 1853.2 46.0667 1954.35 39.3071C2067.92 31.7157 2185.23 44.2893 2296.74 27.5216" stroke="url(#paint45_linear_1247_2182)" stroke-opacity="0.2" stroke-miterlimit="10" />
  <path d="M1.3667 3.68799C117.727 7.742 213.971 49.6393 333.854 42.3456C425.555 36.7593 511.311 14.5717 603.363 10.3425C694.22 6.17468 788.998 21.8829 878.212 29.7107C963.379 37.1971 1048.62 42.0304 1134.3 34.5528C1218.64 27.1978 1304.35 26.0595 1387.95 36.8293C1435.47 42.9585 1477.66 55.1031 1523.68 63.2111C1567.13 70.8638 1612.94 72.4486 1658.21 70.6799C1761.02 66.6609 1854.73 41.0672 1955.69 34.3952C2068.86 26.9439 2185.69 42.7396 2296.71 25.5692" stroke="url(#paint46_linear_1247_2182)" stroke-opacity="0.2" stroke-miterlimit="10" />
  <path d="M1.38037 1C118.474 5.15033 214.973 47.3279 335.525 40.3231C427.307 34.9994 513.588 13.4685 605.736 9.75597C696.449 6.10473 790.494 21.8129 879.629 29.3956C964.715 36.6368 1049.55 40.6646 1134.74 32.0224C1219.94 23.3803 1306.5 23.8881 1390.75 35.8488C1438.16 42.5821 1480.76 55.1119 1527.04 63.1849C1570.08 70.7063 1615.95 71.6519 1660.66 69.3141C1763.06 64.0605 1856.24 36.4004 1957 29.8159C2069.67 22.4521 2186.16 41.4438 2296.7 23.8093" stroke="url(#paint47_linear_1247_2182)" stroke-opacity="0.2" stroke-miterlimit="10" />
  <defs>
    <linearGradient id="paint0_linear_1247_2182" x1="1.65479e+06" y1="13389.2" x2="1.65479e+06" y2="3796.55" gradientUnits="userSpaceOnUse">
      <stop stop-color="#592CB8" />
      <stop offset="1" stop-color="#2C66B8" />
    </linearGradient>
    <linearGradient id="paint1_linear_1247_2182" x1="1.65479e+06" y1="14245.7" x2="1.65479e+06" y2="4016.78" gradientUnits="userSpaceOnUse">
      <stop stop-color="#592CB8" />
      <stop offset="1" stop-color="#2C66B8" />
    </linearGradient>
    <linearGradient id="paint2_linear_1247_2182" x1="1.65484e+06" y1="14702.6" x2="1.65484e+06" y2="4130.68" gradientUnits="userSpaceOnUse">
      <stop stop-color="#592CB8" />
      <stop offset="1" stop-color="#2C66B8" />
    </linearGradient>
    <linearGradient id="paint3_linear_1247_2182" x1="1.65479e+06" y1="14904.9" x2="1.65479e+06" y2="4176.4" gradientUnits="userSpaceOnUse">
      <stop stop-color="#592CB8" />
      <stop offset="1" stop-color="#2C66B8" />
    </linearGradient>
    <linearGradient id="paint4_linear_1247_2182" x1="1.65476e+06" y1="15110" x2="1.65476e+06" y2="4222.84" gradientUnits="userSpaceOnUse">
      <stop stop-color="#592CB8" />
      <stop offset="1" stop-color="#2C66B8" />
    </linearGradient>
    <linearGradient id="paint5_linear_1247_2182" x1="1.65477e+06" y1="15225.7" x2="1.65477e+06" y2="4246.06" gradientUnits="userSpaceOnUse">
      <stop stop-color="#592CB8" />
      <stop offset="1" stop-color="#2C66B8" />
    </linearGradient>
    <linearGradient id="paint6_linear_1247_2182" x1="1.65483e+06" y1="15258.3" x2="1.65483e+06" y2="4247.64" gradientUnits="userSpaceOnUse">
      <stop stop-color="#592CB8" />
      <stop offset="1" stop-color="#2C66B8" />
    </linearGradient>
    <linearGradient id="paint7_linear_1247_2182" x1="1.65479e+06" y1="15218.3" x2="1.65479e+06" y2="4230.36" gradientUnits="userSpaceOnUse">
      <stop stop-color="#592CB8" />
      <stop offset="1" stop-color="#2C66B8" />
    </linearGradient>
    <linearGradient id="paint8_linear_1247_2182" x1="1.65479e+06" y1="15112.3" x2="1.65479e+06" y2="4195.97" gradientUnits="userSpaceOnUse">
      <stop stop-color="#592CB8" />
      <stop offset="1" stop-color="#2C66B8" />
    </linearGradient>
    <linearGradient id="paint9_linear_1247_2182" x1="1.6548e+06" y1="14870.3" x2="1.6548e+06" y2="4126.07" gradientUnits="userSpaceOnUse">
      <stop stop-color="#592CB8" />
      <stop offset="1" stop-color="#2C66B8" />
    </linearGradient>
    <linearGradient id="paint10_linear_1247_2182" x1="1.65481e+06" y1="14708.1" x2="1.65481e+06" y2="4077.3" gradientUnits="userSpaceOnUse">
      <stop stop-color="#592CB8" />
      <stop offset="1" stop-color="#2C66B8" />
    </linearGradient>
    <linearGradient id="paint11_linear_1247_2182" x1="1.65475e+06" y1="14512.3" x2="1.65475e+06" y2="4019.85" gradientUnits="userSpaceOnUse">
      <stop stop-color="#592CB8" />
      <stop offset="1" stop-color="#2C66B8" />
    </linearGradient>
    <linearGradient id="paint12_linear_1247_2182" x1="1.65479e+06" y1="14304.4" x2="1.65479e+06" y2="3959.44" gradientUnits="userSpaceOnUse">
      <stop stop-color="#592CB8" />
      <stop offset="1" stop-color="#2C66B8" />
    </linearGradient>
    <linearGradient id="paint13_linear_1247_2182" x1="1.65484e+06" y1="14084.7" x2="1.65484e+06" y2="3896.02" gradientUnits="userSpaceOnUse">
      <stop stop-color="#592CB8" />
      <stop offset="1" stop-color="#2C66B8" />
    </linearGradient>
    <linearGradient id="paint14_linear_1247_2182" x1="1.65477e+06" y1="13862" x2="1.65477e+06" y2="3831.95" gradientUnits="userSpaceOnUse">
      <stop stop-color="#592CB8" />
      <stop offset="1" stop-color="#2C66B8" />
    </linearGradient>
    <linearGradient id="paint15_linear_1247_2182" x1="1.65479e+06" y1="13572.2" x2="1.65479e+06" y2="3750.33" gradientUnits="userSpaceOnUse">
      <stop stop-color="#592CB8" />
      <stop offset="1" stop-color="#2C66B8" />
    </linearGradient>
    <linearGradient id="paint16_linear_1247_2182" x1="1.65475e+06" y1="13364.7" x2="1.65475e+06" y2="3690.47" gradientUnits="userSpaceOnUse">
      <stop stop-color="#592CB8" />
      <stop offset="1" stop-color="#2C66B8" />
    </linearGradient>
    <linearGradient id="paint17_linear_1247_2182" x1="1.65476e+06" y1="13179.8" x2="1.65476e+06" y2="3636.6" gradientUnits="userSpaceOnUse">
      <stop stop-color="#592CB8" />
      <stop offset="1" stop-color="#2C66B8" />
    </linearGradient>
    <linearGradient id="paint18_linear_1247_2182" x1="1.65475e+06" y1="13034.5" x2="1.65475e+06" y2="3593.25" gradientUnits="userSpaceOnUse">
      <stop stop-color="#592CB8" />
      <stop offset="1" stop-color="#2C66B8" />
    </linearGradient>
    <linearGradient id="paint19_linear_1247_2182" x1="1.65484e+06" y1="12909.1" x2="1.65484e+06" y2="3555.08" gradientUnits="userSpaceOnUse">
      <stop stop-color="#592CB8" />
      <stop offset="1" stop-color="#2C66B8" />
    </linearGradient>
    <linearGradient id="paint20_linear_1247_2182" x1="1.65479e+06" y1="12846.9" x2="1.65479e+06" y2="3533.58" gradientUnits="userSpaceOnUse">
      <stop stop-color="#592CB8" />
      <stop offset="1" stop-color="#2C66B8" />
    </linearGradient>
    <linearGradient id="paint21_linear_1247_2182" x1="1.65479e+06" y1="12817.1" x2="1.65479e+06" y2="3520.59" gradientUnits="userSpaceOnUse">
      <stop stop-color="#592CB8" />
      <stop offset="1" stop-color="#2C66B8" />
    </linearGradient>
    <linearGradient id="paint22_linear_1247_2182" x1="1.65483e+06" y1="12735" x2="1.65483e+06" y2="3493.75" gradientUnits="userSpaceOnUse">
      <stop stop-color="#592CB8" />
      <stop offset="1" stop-color="#2C66B8" />
    </linearGradient>
    <linearGradient id="paint23_linear_1247_2182" x1="1.65479e+06" y1="12611.6" x2="1.65479e+06" y2="3456.03" gradientUnits="userSpaceOnUse">
      <stop stop-color="#592CB8" />
      <stop offset="1" stop-color="#2C66B8" />
    </linearGradient>
    <linearGradient id="paint24_linear_1247_2182" x1="1.65483e+06" y1="12431.6" x2="1.65483e+06" y2="3403.31" gradientUnits="userSpaceOnUse">
      <stop stop-color="#592CB8" />
      <stop offset="1" stop-color="#2C66B8" />
    </linearGradient>
    <linearGradient id="paint25_linear_1247_2182" x1="1.65479e+06" y1="12216" x2="1.65479e+06" y2="3341.25" gradientUnits="userSpaceOnUse">
      <stop stop-color="#592CB8" />
      <stop offset="1" stop-color="#2C66B8" />
    </linearGradient>
    <linearGradient id="paint26_linear_1247_2182" x1="1.65483e+06" y1="11958.3" x2="1.65483e+06" y2="3268.04" gradientUnits="userSpaceOnUse">
      <stop stop-color="#592CB8" />
      <stop offset="1" stop-color="#2C66B8" />
    </linearGradient>
    <linearGradient id="paint27_linear_1247_2182" x1="1.65478e+06" y1="11670.9" x2="1.65478e+06" y2="3187.1" gradientUnits="userSpaceOnUse">
      <stop stop-color="#592CB8" />
      <stop offset="1" stop-color="#2C66B8" />
    </linearGradient>
    <linearGradient id="paint28_linear_1247_2182" x1="1.65479e+06" y1="11345.5" x2="1.65479e+06" y2="3096.12" gradientUnits="userSpaceOnUse">
      <stop stop-color="#592CB8" />
      <stop offset="1" stop-color="#2C66B8" />
    </linearGradient>
    <linearGradient id="paint29_linear_1247_2182" x1="1.65477e+06" y1="10984.4" x2="1.65477e+06" y2="2995.72" gradientUnits="userSpaceOnUse">
      <stop stop-color="#592CB8" />
      <stop offset="1" stop-color="#2C66B8" />
    </linearGradient>
    <linearGradient id="paint30_linear_1247_2182" x1="1.65479e+06" y1="10611.9" x2="1.65479e+06" y2="2892.47" gradientUnits="userSpaceOnUse">
      <stop stop-color="#592CB8" />
      <stop offset="1" stop-color="#2C66B8" />
    </linearGradient>
    <linearGradient id="paint31_linear_1247_2182" x1="1.65479e+06" y1="10209.3" x2="1.65479e+06" y2="2781.31" gradientUnits="userSpaceOnUse">
      <stop stop-color="#592CB8" />
      <stop offset="1" stop-color="#2C66B8" />
    </linearGradient>
    <linearGradient id="paint32_linear_1247_2182" x1="1.65479e+06" y1="9803.68" x2="1.65479e+06" y2="2669.52" gradientUnits="userSpaceOnUse">
      <stop stop-color="#592CB8" />
      <stop offset="1" stop-color="#2C66B8" />
    </linearGradient>
    <linearGradient id="paint33_linear_1247_2182" x1="1.65479e+06" y1="9376.81" x2="1.65479e+06" y2="2552.19" gradientUnits="userSpaceOnUse">
      <stop stop-color="#592CB8" />
      <stop offset="1" stop-color="#2C66B8" />
    </linearGradient>
    <linearGradient id="paint34_linear_1247_2182" x1="1.65479e+06" y1="8951.88" x2="1.65479e+06" y2="2435.57" gradientUnits="userSpaceOnUse">
      <stop stop-color="#592CB8" />
      <stop offset="1" stop-color="#2C66B8" />
    </linearGradient>
    <linearGradient id="paint35_linear_1247_2182" x1="1.65471e+06" y1="8535.88" x2="1.65471e+06" y2="2321.55" gradientUnits="userSpaceOnUse">
      <stop stop-color="#592CB8" />
      <stop offset="1" stop-color="#2C66B8" />
    </linearGradient>
    <linearGradient id="paint36_linear_1247_2182" x1="1.65485e+06" y1="8090.34" x2="1.65485e+06" y2="2199.74" gradientUnits="userSpaceOnUse">
      <stop stop-color="#592CB8" />
      <stop offset="1" stop-color="#2C66B8" />
    </linearGradient>
    <linearGradient id="paint37_linear_1247_2182" x1="1.65479e+06" y1="7815.65" x2="1.65479e+06" y2="2124.15" gradientUnits="userSpaceOnUse">
      <stop stop-color="#592CB8" />
      <stop offset="1" stop-color="#2C66B8" />
    </linearGradient>
    <linearGradient id="paint38_linear_1247_2182" x1="1.65479e+06" y1="7477.16" x2="1.65479e+06" y2="2031.51" gradientUnits="userSpaceOnUse">
      <stop stop-color="#592CB8" />
      <stop offset="1" stop-color="#2C66B8" />
    </linearGradient>
    <linearGradient id="paint39_linear_1247_2182" x1="1.65483e+06" y1="7208.08" x2="1.65483e+06" y2="1957.81" gradientUnits="userSpaceOnUse">
      <stop stop-color="#592CB8" />
      <stop offset="1" stop-color="#2C66B8" />
    </linearGradient>
    <linearGradient id="paint40_linear_1247_2182" x1="1.65479e+06" y1="6990.43" x2="1.65479e+06" y2="1898.07" gradientUnits="userSpaceOnUse">
      <stop stop-color="#592CB8" />
      <stop offset="1" stop-color="#2C66B8" />
    </linearGradient>
    <linearGradient id="paint41_linear_1247_2182" x1="1.65474e+06" y1="6809.46" x2="1.65474e+06" y2="1848.33" gradientUnits="userSpaceOnUse">
      <stop stop-color="#592CB8" />
      <stop offset="1" stop-color="#2C66B8" />
    </linearGradient>
    <linearGradient id="paint42_linear_1247_2182" x1="1.65476e+06" y1="6655.53" x2="1.65476e+06" y2="1806.04" gradientUnits="userSpaceOnUse">
      <stop stop-color="#592CB8" />
      <stop offset="1" stop-color="#2C66B8" />
    </linearGradient>
    <linearGradient id="paint43_linear_1247_2182" x1="1.65475e+06" y1="6530.31" x2="1.65475e+06" y2="1771.58" gradientUnits="userSpaceOnUse">
      <stop stop-color="#592CB8" />
      <stop offset="1" stop-color="#2C66B8" />
    </linearGradient>
    <linearGradient id="paint44_linear_1247_2182" x1="1.65477e+06" y1="6534.23" x2="1.65477e+06" y2="1771.31" gradientUnits="userSpaceOnUse">
      <stop stop-color="#592CB8" />
      <stop offset="1" stop-color="#2C66B8" />
    </linearGradient>
    <linearGradient id="paint45_linear_1247_2182" x1="1.65484e+06" y1="6704.79" x2="1.65484e+06" y2="1815.06" gradientUnits="userSpaceOnUse">
      <stop stop-color="#592CB8" />
      <stop offset="1" stop-color="#2C66B8" />
    </linearGradient>
    <linearGradient id="paint46_linear_1247_2182" x1="1.6548e+06" y1="6881.5" x2="1.6548e+06" y2="1860.64" gradientUnits="userSpaceOnUse">
      <stop stop-color="#592CB8" />
      <stop offset="1" stop-color="#2C66B8" />
    </linearGradient>
    <linearGradient id="paint47_linear_1247_2182" x1="1.65479e+06" y1="7061.33" x2="1.65479e+06" y2="1907.23" gradientUnits="userSpaceOnUse">
      <stop stop-color="#592CB8" />
      <stop offset="1" stop-color="#2C66B8" />
    </linearGradient>
  </defs>
</svg>
  