<svg width="36" height="34" viewBox="0 0 36 34" fill="none" xmlns="http://www.w3.org/2000/svg">
  <rect x="2" y="3" width="34" height="28" rx="5" fill="#FFD004"/>
  <path d="M15.2317 23.8855V26.7614C15.2317 29.198 12.9651 31.1672 10.1742 31.1672C7.3834 31.1672 5.10254 29.198 5.10254 26.7614V23.8855C5.10254 26.3222 7.36923 28.0505 10.1742 28.0505C12.9651 28.0505 15.2317 26.308 15.2317 23.8855Z" stroke="#313131" stroke-width="1.5" stroke-linecap="round" stroke-linejoin="round"/>
  <path d="M15.2292 19.9892C15.2292 20.6975 15.0309 21.3491 14.6909 21.9158C13.8551 23.29 12.1409 24.1542 10.1575 24.1542C8.17421 24.1542 6.46002 23.2758 5.62419 21.9158C5.28419 21.3491 5.08594 20.6975 5.08594 19.9892C5.08594 18.7708 5.65257 17.68 6.55924 16.8867C7.48007 16.0792 8.74086 15.5975 10.1434 15.5975C11.5459 15.5975 12.8067 16.0933 13.7276 16.8867C14.6626 17.6658 15.2292 18.7708 15.2292 19.9892Z" stroke="#313131" stroke-width="1.5" stroke-linecap="round" stroke-linejoin="round"/>
  <path d="M15.2317 19.9892V23.885C15.2317 26.3217 12.9651 28.05 10.1742 28.05C7.3834 28.05 5.10254 26.3075 5.10254 23.885V19.9892C5.10254 17.5525 7.36923 15.5834 10.1742 15.5834C11.5767 15.5834 12.8376 16.0792 13.7584 16.8725C14.6651 17.6658 15.2317 18.7709 15.2317 19.9892Z" stroke="#313131" stroke-width="1.5" stroke-linecap="round" stroke-linejoin="round"/>
  <path d="M31.1666 15.5408V18.4592C31.1666 19.2383 30.5433 19.8758 29.75 19.9041H26.9733C25.4433 19.9041 24.0408 18.785 23.9133 17.255C23.8283 16.3625 24.1683 15.5266 24.7633 14.9458C25.2874 14.4075 26.01 14.0958 26.8033 14.0958H29.75C30.5433 14.1242 31.1666 14.7616 31.1666 15.5408Z" stroke="#313131" stroke-width="1.5" stroke-linecap="round" stroke-linejoin="round"/>
  <path d="M2.83301 14.875V12.0417C2.83301 8.18837 5.15634 5.4967 8.76884 5.04337C9.13718 4.9867 9.51967 4.95837 9.91634 4.95837H22.6663C23.0347 4.95837 23.3888 4.97252 23.7288 5.02919C27.3838 5.45419 29.7497 8.16004 29.7497 12.0417V14.0959H26.803C26.0096 14.0959 25.2871 14.4075 24.763 14.9459C24.168 15.5267 23.828 16.3625 23.913 17.255C24.0405 18.785 25.443 19.9042 26.973 19.9042H29.7497V21.9584C29.7497 26.2084 26.9163 29.0417 22.6663 29.0417H19.1247" stroke="#313131" stroke-width="1.5" stroke-linecap="round" stroke-linejoin="round"/>
  </svg>
  