<svg width="50" height="50" viewBox="0 0 50 50" fill="none" xmlns="http://www.w3.org/2000/svg">
<path d="M44 26.5C44 36.165 36.2885 44 26.7759 44C17.2633 44 9.55176 36.165 9.55176 26.5C9.55176 16.835 17.2633 9 26.7759 9C36.2885 9 44 16.835 44 26.5Z" fill="#FFD004"/>
<path d="M22.5833 23.1556C22.0934 23.1556 21.6647 22.9767 21.2972 22.6189C20.9451 22.2456 20.769 21.81 20.769 21.3122C20.769 20.8144 20.9451 20.3789 21.2972 20.0056C21.6647 19.6322 22.0934 19.4456 22.5833 19.4456C23.0886 19.4456 23.5172 19.6322 23.8694 20.0056C24.2368 20.3789 24.4206 20.8144 24.4206 21.3122C24.4206 21.81 24.2368 22.2456 23.8694 22.6189C23.5172 22.9767 23.0886 23.1556 22.5833 23.1556ZM24.0761 36.2222H21.1135V24.5556H24.0761V36.2222Z" fill="#313131"/>
<path fill-rule="evenodd" clip-rule="evenodd" d="M40.1724 28.4445C40.1724 38.4675 32.1753 46.5927 22.3103 46.5927C12.4454 46.5927 4.44824 38.4675 4.44824 28.4445C4.44824 18.4216 12.4454 10.2964 22.3103 10.2964C32.1753 10.2964 40.1724 18.4216 40.1724 28.4445ZM22.3103 44.0001C30.766 44.0001 37.6207 37.0356 37.6207 28.4445C37.6207 19.8534 30.766 12.889 22.3103 12.889C13.8546 12.889 6.99997 19.8534 6.99997 28.4445C6.99997 37.0356 13.8546 44.0001 22.3103 44.0001Z" fill="#313131"/>
</svg>
