<svg width="24" height="24" viewBox="0 0 24 24" fill="none" xmlns="http://www.w3.org/2000/svg">
  <path d="M12.48 12.72H11.408L11.104 8V4.8H12.784V8L12.48 12.72ZM11.936 16.176C11.648 16.176 11.4027 16.0747 11.2 15.872C10.9973 15.6693 10.896 15.424 10.896 15.136C10.896 14.848 10.9973 14.6027 11.2 14.4C11.4027 14.1973 11.648 14.096 11.936 14.096C12.2347 14.096 12.48 14.1973 12.672 14.4C12.8747 14.6027 12.976 14.848 12.976 15.136C12.976 15.424 12.8747 15.6693 12.672 15.872C12.48 16.0747 12.2347 16.176 11.936 16.176Z" fill="#52A90D" />
  <circle cx="12" cy="12" r="11.5" stroke="#52A90D" />
</svg>
  