<svg width="13" height="7" viewBox="0 0 13 7" fill="black" xmlns="http://www.w3.org/2000/svg">
  <path d="M12.1835 0.838691C12.1835 0.891995 12.1722 0.944783 12.1501 0.994038C12.128 1.04329 12.0957 1.08805 12.0549 1.12575L6.63788 6.12812C6.55547 6.20421 6.44371 6.24695 6.32719 6.24695C6.21066 6.24695 6.0989 6.20421 6.01649 6.12812L0.5995 1.12575C0.55868 1.08807 0.526296 1.04334 0.504197 0.994101C0.482098 0.944863 0.470717 0.892087 0.470703 0.838787C0.470689 0.785487 0.482044 0.732707 0.504118 0.683459C0.526191 0.634211 0.558553 0.58946 0.599353 0.551763C0.640154 0.514065 0.688596 0.484159 0.741912 0.46375C0.795228 0.443341 0.852375 0.43283 0.91009 0.432817C0.967804 0.432805 1.02496 0.443291 1.07828 0.463676C1.13161 0.484062 1.18007 0.513948 1.22089 0.551628L6.32704 5.2672L11.4332 0.551628C11.4947 0.494833 11.573 0.456151 11.6582 0.440476C11.7435 0.424801 11.8319 0.432838 11.9122 0.463571C11.9926 0.494303 12.0612 0.546349 12.1095 0.613123C12.1578 0.679896 12.1835 0.758397 12.1835 0.838691Z" />
</svg>
  