<svg width="30" height="16" viewBox="0 0 30 16" fill="none" xmlns="http://www.w3.org/2000/svg">
  <g clip-path="url(#clip0_877_2108)">
    <path d="M30.0006 0H0V16.0003H30.0006V0Z" fill="#000066" />
    <path d="M0 0V1.78889L26.6465 16.0004H30.0006V14.2115L3.35407 5.33344e-05H0L0 0ZM30.0006 0V1.78884L3.35407 16.0003H0V14.2115L26.6465 0H30.0006Z" fill="white" />
    <path d="M12.5002 0V16.0003H17.5004V0H12.5002ZM0 5.33344V10.6669H30.0006V5.33344H0Z" fill="white" />
    <path d="M0 6.40013V9.60019H30.0006V6.40013H0ZM13.5003 0V16.0003H16.5003V0H13.5003Z" fill="#CC0000" />
    <path d="M0 16.0003L10.0002 10.6669H12.2362L2.23604 16.0003H0H0ZM0 0L10.0002 5.33344H7.76416L0 1.19261V0L0 0ZM17.7644 5.33344L27.7646 0H30.0006L20.0004 5.33344H17.7644ZM30.0006 16.0003L20.0004 10.6669H22.2364L30.0006 14.8078V16.0003Z" fill="#CC0000" />
  </g>
  <defs>
    <clipPath id="clip0_877_2108">
      <rect width="30" height="16" fill="white" />
    </clipPath>
  </defs>
</svg>
  