<svg width="52" height="48" viewBox="0 0 52 48" fill="none" xmlns="http://www.w3.org/2000/svg">
<path d="M26.2217 19.811C25.8546 20.1663 25.414 20.3439 24.9 20.3439C24.386 20.3439 23.9362 20.1663 23.5507 19.811C23.1836 19.4379 23 19.0026 23 18.5052C23 18.0078 23.1836 17.5814 23.5507 17.2261C23.9179 16.853 24.3676 16.6665 24.9 16.6665C25.4324 16.6665 25.8821 16.853 26.2493 17.2261C26.6164 17.5814 26.8 18.0078 26.8 18.5052C26.8 19.0026 26.6072 19.4379 26.2217 19.811ZM26.387 35.6665H23.413V22.3425H26.387V35.6665Z" fill="#FFD004"/>
<path fill-rule="evenodd" clip-rule="evenodd" d="M44 26C44 36.4934 35.4934 45 25 45C14.5066 45 6 36.4934 6 26C6 15.5066 14.5066 7 25 7C35.4934 7 44 15.5066 44 26ZM25 44C34.9411 44 43 35.9411 43 26C43 16.0589 34.9411 8 25 8C15.0589 8 7 16.0589 7 26C7 35.9411 15.0589 44 25 44Z" fill="#FFD004"/>
</svg>
