<svg width="24" height="10" viewBox="0 0 24 10" fill="none" xmlns="http://www.w3.org/2000/svg">
  <path d="M11.4118 8.57224L11.7059 8.16787L11.7059 8.16787L11.4118 8.57224ZM1.29409 0.595632C1.07076 0.433213 0.758052 0.482588 0.595633 0.705914C0.433213 0.92924 0.482588 1.24195 0.705914 1.40437L1.29409 0.595632ZM23.2941 1.40437C23.5174 1.24195 23.5668 0.929242 23.4044 0.705916C23.2419 0.48259 22.9292 0.433215 22.7059 0.595633L23.2941 1.40437ZM12.5882 8.57224L12.2941 8.16787L12.2941 8.16787L12.5882 8.57224ZM11.7059 8.16787L1.29409 0.595632L0.705914 1.40437L11.1177 8.97661L11.7059 8.16787ZM22.7059 0.595633L12.2941 8.16787L12.8823 8.97661L23.2941 1.40437L22.7059 0.595633ZM11.1177 8.97661C11.6437 9.35913 12.3563 9.35913 12.8823 8.97661L12.2941 8.16787C12.1188 8.29538 11.8812 8.29538 11.7059 8.16787L11.1177 8.97661Z" fill="#313131" />
</svg>
  