<svg  viewBox="0 0 164 161" fill="none" xmlns="http://www.w3.org/2000/svg">
  <path d="M112.622 25.853C114.703 50.6689 96.5151 66.7993 76.2081 66.7993C58.9374 65.7653 48.8179 57.7009 42.7969 43.3164C42.6003 45.0403 42.499 46.7966 42.499 48.5786C42.499 71.8902 59.827 90.7879 81.202 90.7879C102.577 90.7879 119.905 71.8902 119.905 48.5786C119.905 40.3867 116.326 32.3263 112.622 25.853Z" fill="url(#paint0_linear_903_667)" />
  <path d="M82.8667 61.8358C95.4539 58.8078 105.548 47.9786 105.548 34.5383C105.548 18.777 91.398 6.8272 76.2081 6C63.0721 6 51.9962 14.7662 48.5801 26.7334C51.4465 27.7139 54.7758 27.2468 58.9374 27.5071C74.7965 27.5071 85.5718 38.0539 84.5314 53.357C84.5314 56.4788 83.8672 59.0386 82.8667 61.8358Z" fill="url(#paint1_linear_903_667)" />
  <path d="M86.6119 8.27479C83.0745 7.034 81.2018 6.2068 75.5836 6C51.5653 6 32.0947 25.3507 32.0947 49.221C32.0947 73.0914 51.5653 92.442 75.5836 92.442C82.0982 92.442 88.2782 91.0184 93.826 88.4674C72.3413 85.6268 56.0328 67.5666 56.5758 46.1461C57.0399 27.8392 69.4645 13.4178 86.6119 8.27479Z" fill="url(#paint2_linear_903_667)" />
  <path d="M47.1341 118.757C50.0525 118.757 52.4917 117.242 52.4917 114.212C52.4917 110.879 49.5298 110.099 47.3519 109.342C46.0887 108.887 45.1958 108.454 45.1958 107.545C45.1958 106.918 45.6967 106.377 46.7857 106.377C47.7875 106.377 48.3537 106.745 48.528 107.545C48.5933 107.892 48.7676 108.065 49.0942 108.065H51.4899C51.8384 108.065 52.0562 107.87 52.0344 107.502C51.773 104.364 49.3338 103 46.7857 103C44.194 103 41.7112 104.515 41.7112 107.545C41.7112 110.857 44.4335 111.744 46.5897 112.48C47.9182 112.935 49.0071 113.325 49.0071 114.212C49.0071 114.84 48.5498 115.381 47.1341 115.381C45.8492 115.381 45.1958 114.991 45.0216 114.212C44.9562 113.866 44.782 113.693 44.4553 113.693H42.0596C41.7112 113.693 41.4934 113.887 41.5152 114.255C41.7765 117.394 44.2811 118.757 47.1341 118.757Z" fill="white" />
  <path d="M59.6772 118.758C62.8133 118.758 65.3397 117.026 65.3397 113.779V103.844C65.3397 103.498 65.1437 103.303 64.7952 103.303H62.3995C62.0511 103.303 61.8551 103.498 61.8551 103.844V113.476C61.8551 114.623 61.3106 115.381 59.6772 115.381C58.0437 115.381 57.4993 114.623 57.4993 113.476V103.844C57.4993 103.498 57.3033 103.303 56.9548 103.303H54.5591C54.2107 103.303 54.0146 103.498 54.0146 103.844V113.779C54.0146 117.026 56.541 118.758 59.6772 118.758Z" fill="white" />
  <path d="M75.7966 103.844V111.745L70.5913 103.65C70.4389 103.411 70.1993 103.303 69.9162 103.303H68.2828C67.9343 103.303 67.7383 103.498 67.7383 103.844V117.913C67.7383 118.26 67.9343 118.455 68.2828 118.455H70.6784C71.0269 118.455 71.2229 118.26 71.2229 117.913V110.013L76.4281 118.108C76.5806 118.346 76.8202 118.455 77.1033 118.455H78.7367C79.0852 118.455 79.2812 118.26 79.2812 117.913V103.844C79.2812 103.498 79.0852 103.303 78.7367 103.303H76.341C75.9926 103.303 75.7966 103.498 75.7966 103.844Z" fill="white" />
  <path d="M89.9605 103.844V111.745L84.7554 103.65C84.6029 103.411 84.3634 103.303 84.0802 103.303H82.4468C82.0984 103.303 81.9023 103.498 81.9023 103.844V117.913C81.9023 118.26 82.0984 118.455 82.4468 118.455H84.8425C85.191 118.455 85.387 118.26 85.387 117.913V110.013L90.5921 118.108C90.7446 118.346 90.9841 118.455 91.2673 118.455H92.9007C93.2491 118.455 93.4452 118.26 93.4452 117.913V103.844C93.4452 103.498 93.2491 103.303 92.9007 103.303H90.505C90.1565 103.303 89.9605 103.498 89.9605 103.844Z" fill="white" />
  <path d="M107.306 103.303H104.518C104.213 103.303 104.017 103.433 103.887 103.693L101.404 108.433L98.9209 103.693C98.7903 103.433 98.5943 103.303 98.2894 103.303H95.5017C95.0879 103.303 94.9136 103.563 95.1314 103.953L99.6614 111.831V117.913C99.6614 118.26 99.8574 118.455 100.206 118.455H102.602C102.95 118.455 103.146 118.26 103.146 117.913V111.831L107.676 103.953C107.894 103.563 107.72 103.303 107.306 103.303Z" fill="white" />
  <path d="M37.4091 127.545H34.861C34.5343 127.545 34.3383 127.719 34.273 128.022L31.7466 138.151L29.2203 128.022C29.1549 127.719 28.9589 127.545 28.6322 127.545H26.5197C26.1276 127.545 25.9534 127.762 26.0623 128.151L26.7375 130.662L24.7338 138.151L22.2074 128.022C22.1421 127.719 21.9461 127.545 21.6194 127.545H19.0713C18.6793 127.545 18.505 127.762 18.6139 128.151L22.5124 142.242C22.5995 142.567 22.8173 142.697 23.1222 142.697H25.9099C26.2148 142.697 26.4326 142.567 26.5197 142.242L28.2402 136.03L29.9607 142.242C30.0479 142.567 30.2656 142.697 30.5705 142.697H33.3582C33.6631 142.697 33.8809 142.567 33.9681 142.242L37.8665 128.151C37.9754 127.762 37.8011 127.545 37.4091 127.545Z" fill="white" />
  <path d="M51.3554 142.091L46.7383 128C46.6511 127.697 46.4116 127.545 46.1067 127.545H42.622C42.3171 127.545 42.0776 127.697 41.9905 128L37.3733 142.091C37.2426 142.48 37.4387 142.697 37.8307 142.697H40.5095C40.8144 142.697 41.0322 142.567 41.1193 142.242L41.6855 140.316H47.0214L47.6094 142.242C47.6965 142.567 47.9143 142.697 48.2192 142.697H50.898C51.2901 142.697 51.4861 142.48 51.3554 142.091ZM42.6438 137.069L44.3644 131.333L46.0631 137.069H42.6438Z" fill="white" />
  <path d="M60.5959 127.545H57.6558H51.231C50.8825 127.545 50.6865 127.74 50.6865 128.087V130.338C50.6865 130.684 50.8825 130.879 51.231 130.879H54.1711V142.156C54.1711 142.502 54.3672 142.697 54.7156 142.697H57.1113C57.4598 142.697 57.6558 142.502 57.6558 142.156V130.879H60.5959C60.9444 130.879 61.1404 130.684 61.1404 130.338V128.087C61.1404 127.74 60.9444 127.545 60.5959 127.545Z" fill="white" />
  <path d="M71.6985 127.545H68.7583H62.3335C61.9851 127.545 61.7891 127.74 61.7891 128.087V130.338C61.7891 130.684 61.9851 130.879 62.3335 130.879H65.2737V142.156C65.2737 142.502 65.4697 142.697 65.8182 142.697H68.2138C68.5623 142.697 68.7583 142.502 68.7583 142.156V130.879H71.6985C72.0469 130.879 72.2429 130.684 72.2429 130.338V128.087C72.2429 127.74 72.0469 127.545 71.6985 127.545Z" fill="white" />
  <path d="M89.9925 127.545H87.5968C87.2483 127.545 87.0523 127.74 87.0523 128.087V133.238H82.6965V128.087C82.6965 127.74 82.5005 127.545 82.1521 127.545H79.7564C79.4079 127.545 79.2119 127.74 79.2119 128.087V142.156C79.2119 142.502 79.4079 142.697 79.7564 142.697H82.1521C82.5005 142.697 82.6965 142.502 82.6965 142.156V136.571H87.0523V142.156C87.0523 142.502 87.2483 142.697 87.5968 142.697H89.9925C90.3409 142.697 90.537 142.502 90.537 142.156V128.087C90.537 127.74 90.3409 127.545 89.9925 127.545Z" fill="white" />
  <path d="M100.417 143C104.794 143 108.344 139.58 108.344 135.121C108.344 130.662 104.794 127.242 100.417 127.242C96.0392 127.242 92.4893 130.662 92.4893 135.121C92.4893 139.58 96.0392 143 100.417 143ZM100.417 139.623C97.934 139.623 95.9739 137.826 95.9739 135.121C95.9739 132.415 97.934 130.619 100.417 130.619C102.9 130.619 104.86 132.415 104.86 135.121C104.86 137.826 102.9 139.623 100.417 139.623Z" fill="white" />
  <path d="M115.645 143C118.781 143 121.307 141.268 121.307 138.021V128.087C121.307 127.74 121.111 127.545 120.763 127.545H118.367C118.019 127.545 117.823 127.74 117.823 128.087V137.718C117.823 138.866 117.278 139.623 115.645 139.623C114.012 139.623 113.467 138.866 113.467 137.718V128.087C113.467 127.74 113.271 127.545 112.923 127.545H110.527C110.178 127.545 109.982 127.74 109.982 128.087V138.021C109.982 141.268 112.509 143 115.645 143Z" fill="white" />
  <path d="M136.033 142.026L132.113 137.091C133.724 136.225 134.813 134.558 134.813 132.762C134.813 129.883 132.483 127.567 129.586 127.567H127.191H124.251C123.902 127.567 123.706 127.762 123.706 128.108V142.177C123.706 142.523 123.902 142.718 124.251 142.718H126.646C126.995 142.718 127.191 142.523 127.191 142.177V137.74H128.519L132.243 142.394C132.418 142.632 132.635 142.718 132.919 142.718H135.706C136.164 142.718 136.316 142.394 136.033 142.047V142.026ZM127.191 130.814H129.586C130.545 130.814 131.329 131.658 131.329 132.762C131.329 133.866 130.545 134.71 129.586 134.71H127.191V130.814Z" fill="white" />
  <defs>
    <linearGradient id="paint0_linear_903_667" x1="114.495" y1="29.989" x2="81.5184" y2="90.959" gradientUnits="userSpaceOnUse">
      <stop stop-color="#F1991C" />
      <stop offset="1" stop-color="#F4D800" />
    </linearGradient>
    <linearGradient id="paint1_linear_903_667" x1="77.0638" y1="6" x2="90.6158" y2="58.7743" gradientUnits="userSpaceOnUse">
      <stop stop-color="#F1921F" />
      <stop offset="1" stop-color="#F4D800" />
    </linearGradient>
    <linearGradient id="paint2_linear_903_667" x1="68.3008" y1="7.65439" x2="73.6447" y2="92.4462" gradientUnits="userSpaceOnUse">
      <stop stop-color="#F4D900" />
      <stop offset="1" stop-color="#F18F21" />
    </linearGradient>
  </defs>
</svg>
  