<svg viewBox="0 0 262 86" fill="none" xmlns="http://www.w3.org/2000/svg">
  <g clip-path="url(#clip0_405_1795)">
    <path d="M80.6232 19.853C82.704 44.6689 64.5161 60.7993 44.2091 60.7993C26.9384 59.7653 16.8189 51.7009 10.7978 37.3164C10.6013 39.0403 10.5 40.7966 10.5 42.5786C10.5 65.8902 27.8279 84.7879 49.203 84.7879C70.5779 84.7879 87.906 65.8902 87.906 42.5786C87.906 34.3867 84.3266 26.3263 80.6232 19.853Z" fill="url(#paint0_linear_405_1795)" />
    <path d="M50.8667 55.8358C63.4539 52.8078 73.5475 41.9786 73.5475 28.5383C73.5475 12.777 59.398 0.827196 44.2081 0C31.0721 0 19.9962 8.76621 16.5801 20.7334C19.4465 21.7139 22.7758 21.2468 26.9374 21.5071C42.7965 21.5071 53.5718 32.0539 52.5314 47.357C52.5314 50.4788 51.8672 53.0386 50.8667 55.8358Z" fill="url(#paint1_linear_405_1795)" />
    <path d="M54.6129 2.27479C51.0755 1.034 49.2028 0.206799 43.5846 0C19.5663 0 0.0957031 19.3507 0.0957031 43.221C0.0957031 67.0914 19.5663 86.442 43.5846 86.442C50.0992 86.442 56.2792 85.0184 61.827 82.4674C40.3423 79.6268 24.0337 61.5666 24.5768 40.1461C25.0409 21.8392 37.4655 7.41784 54.6129 2.27479Z" fill="url(#paint2_linear_405_1795)" />
    <path d="M143.202 38.3974C146.795 38.3974 149.797 36.5323 149.797 32.802C149.797 28.6987 146.151 27.7395 143.47 26.8069C141.915 26.2474 140.816 25.7145 140.816 24.5954C140.816 23.8227 141.433 23.1566 142.773 23.1566C144.006 23.1566 144.703 23.6096 144.918 24.5954C144.998 25.0217 145.213 25.2349 145.615 25.2349H148.564C148.993 25.2349 149.261 24.9951 149.234 24.5421C148.913 20.6786 145.91 19 142.773 19C139.583 19 136.526 20.8651 136.526 24.5954C136.526 28.6721 139.878 29.7645 142.532 30.6704C144.167 31.23 145.508 31.7096 145.508 32.802C145.508 33.5747 144.945 34.2409 143.202 34.2409C141.62 34.2409 140.816 33.7612 140.601 32.802C140.521 32.3757 140.307 32.1626 139.904 32.1626H136.955C136.526 32.1626 136.258 32.4024 136.285 32.8553C136.607 36.7188 139.69 38.3974 143.202 38.3974Z" fill="white" />
    <path d="M158.641 38.3975C162.501 38.3975 165.611 36.2659 165.611 32.2691V20.0392C165.611 19.6129 165.37 19.373 164.941 19.373H161.992C161.563 19.373 161.322 19.6129 161.322 20.0392V31.8961C161.322 33.3083 160.651 34.2409 158.641 34.2409C156.63 34.2409 155.96 33.3083 155.96 31.8961V20.0392C155.96 19.6129 155.718 19.373 155.289 19.373H152.34C151.911 19.373 151.67 19.6129 151.67 20.0392V32.2691C151.67 36.2659 154.78 38.3975 158.641 38.3975Z" fill="white" />
    <path d="M178.484 20.0392V29.7645L172.077 19.7994C171.889 19.5063 171.594 19.373 171.245 19.373H169.235C168.806 19.373 168.564 19.6129 168.564 20.0392V37.3583C168.564 37.7846 168.806 38.0244 169.235 38.0244H172.184C172.613 38.0244 172.854 37.7846 172.854 37.3583V27.6329L179.262 37.5981C179.449 37.8912 179.744 38.0244 180.093 38.0244H182.104C182.533 38.0244 182.774 37.7846 182.774 37.3583V20.0392C182.774 19.6129 182.533 19.373 182.104 19.373H179.154C178.726 19.373 178.484 19.6129 178.484 20.0392Z" fill="white" />
    <path d="M195.92 20.0392V29.7645L189.512 19.7994C189.324 19.5063 189.03 19.373 188.681 19.373H186.67C186.241 19.373 186 19.6129 186 20.0392V37.3583C186 37.7846 186.241 38.0244 186.67 38.0244H189.619C190.048 38.0244 190.29 37.7846 190.29 37.3583V27.6329L196.697 37.5981C196.885 37.8912 197.18 38.0244 197.528 38.0244H199.539C199.968 38.0244 200.209 37.7846 200.209 37.3583V20.0392C200.209 19.6129 199.968 19.373 199.539 19.373H196.59C196.161 19.373 195.92 19.6129 195.92 20.0392Z" fill="white" />
    <path d="M217.273 19.373H213.841C213.466 19.373 213.225 19.5329 213.064 19.8527L210.007 25.6879L206.951 19.8527C206.79 19.5329 206.549 19.373 206.173 19.373H202.742C202.232 19.373 202.018 19.6928 202.286 20.1724L207.862 29.8711V37.3583C207.862 37.7846 208.104 38.0244 208.533 38.0244H211.482C211.911 38.0244 212.152 37.7846 212.152 37.3583V29.8711L217.729 20.1724C217.997 19.6928 217.782 19.373 217.273 19.373Z" fill="white" />
    <path d="M131.229 49.2158H128.092C127.69 49.2158 127.449 49.429 127.368 49.802L124.258 62.2718L121.148 49.802C121.068 49.429 120.827 49.2158 120.425 49.2158H117.824C117.341 49.2158 117.127 49.4822 117.261 49.9619L118.092 53.0527L115.626 62.2718L112.516 49.802C112.435 49.429 112.194 49.2158 111.792 49.2158H108.655C108.172 49.2158 107.958 49.4822 108.092 49.9619L112.891 67.3077C112.998 67.7073 113.266 67.8672 113.642 67.8672H117.073C117.449 67.8672 117.717 67.7073 117.824 67.3077L119.942 59.6606L122.06 67.3077C122.167 67.7073 122.435 67.8672 122.811 67.8672H126.242C126.618 67.8672 126.886 67.7073 126.993 67.3077L131.792 49.9619C131.926 49.4822 131.712 49.2158 131.229 49.2158Z" fill="white" />
    <path d="M148.396 67.1211L142.713 49.7754C142.605 49.4023 142.311 49.2158 141.935 49.2158H137.646C137.27 49.2158 136.975 49.4023 136.868 49.7754L131.184 67.1211C131.024 67.6007 131.265 67.8672 131.747 67.8672H135.045C135.42 67.8672 135.688 67.7073 135.796 67.3077L136.493 64.9363H143.061L143.785 67.3077C143.892 67.7073 144.16 67.8672 144.536 67.8672H147.833C148.316 67.8672 148.557 67.6007 148.396 67.1211ZM137.672 60.9395L139.79 53.8787L141.882 60.9395H137.672Z" fill="white" />
    <path d="M159.773 49.2158H156.153H148.244C147.816 49.2158 147.574 49.4556 147.574 49.8819V52.653C147.574 53.0793 147.816 53.3191 148.244 53.3191H151.864V67.2011C151.864 67.6274 152.105 67.8672 152.534 67.8672H155.483C155.912 67.8672 156.153 67.6274 156.153 67.2011V53.3191H159.773C160.202 53.3191 160.443 53.0793 160.443 52.653V49.8819C160.443 49.4556 160.202 49.2158 159.773 49.2158Z" fill="white" />
    <path d="M173.439 49.2158H169.819H161.91C161.482 49.2158 161.24 49.4556 161.24 49.8819V52.653C161.24 53.0793 161.482 53.3191 161.91 53.3191H165.53V67.2011C165.53 67.6274 165.771 67.8672 166.2 67.8672H169.149C169.578 67.8672 169.819 67.6274 169.819 67.2011V53.3191H173.439C173.868 53.3191 174.109 53.0793 174.109 52.653V49.8819C174.109 49.4556 173.868 49.2158 173.439 49.2158Z" fill="white" />
    <path d="M195.958 49.2158H193.009C192.58 49.2158 192.339 49.4556 192.339 49.8819V56.2234H186.977V49.8819C186.977 49.4556 186.736 49.2158 186.307 49.2158H183.358C182.929 49.2158 182.688 49.4556 182.688 49.8819V67.2011C182.688 67.6274 182.929 67.8672 183.358 67.8672H186.307C186.736 67.8672 186.977 67.6274 186.977 67.2011V60.3267H192.339V67.2011C192.339 67.6274 192.58 67.8672 193.009 67.8672H195.958C196.387 67.8672 196.629 67.6274 196.629 67.2011V49.8819C196.629 49.4556 196.387 49.2158 195.958 49.2158Z" fill="white" />
    <path d="M208.792 68.2398C214.181 68.2398 218.551 64.0299 218.551 58.541C218.551 53.0522 214.181 48.8423 208.792 48.8423C203.403 48.8423 199.033 53.0522 199.033 58.541C199.033 64.0299 203.403 68.2398 208.792 68.2398ZM208.792 64.0831C205.736 64.0831 203.323 61.8716 203.323 58.541C203.323 55.2104 205.736 52.9989 208.792 52.9989C211.848 52.9989 214.261 55.2104 214.261 58.541C214.261 61.8716 211.848 64.0831 208.792 64.0831Z" fill="white" />
    <path d="M227.539 68.2403C231.4 68.2403 234.51 66.1087 234.51 62.1119V49.8819C234.51 49.4556 234.268 49.2158 233.839 49.2158H230.89C230.461 49.2158 230.22 49.4556 230.22 49.8819V61.7389C230.22 63.1511 229.55 64.0836 227.539 64.0836C225.528 64.0836 224.858 63.1511 224.858 61.7389V49.8819C224.858 49.4556 224.617 49.2158 224.188 49.2158H221.239C220.81 49.2158 220.568 49.4556 220.568 49.8819V62.1119C220.568 66.1087 223.678 68.2403 227.539 68.2403Z" fill="white" />
    <path d="M252.635 67.041L247.81 60.9659C249.794 59.9001 251.134 57.8485 251.134 55.6369C251.134 52.0932 248.265 49.2422 244.7 49.2422H241.751H238.131C237.702 49.2422 237.461 49.482 237.461 49.9083V67.2275C237.461 67.6538 237.702 67.8936 238.131 67.8936H241.08C241.509 67.8936 241.751 67.6538 241.751 67.2275V61.7653H243.386L247.97 67.4939C248.185 67.787 248.453 67.8936 248.802 67.8936H252.233C252.796 67.8936 252.984 67.4939 252.635 67.0676V67.041ZM241.751 53.2389H244.7C245.879 53.2389 246.844 54.2781 246.844 55.6369C246.844 56.9958 245.879 58.035 244.7 58.035H241.751V53.2389Z" fill="white" />
  </g>
  <defs>
    <linearGradient id="paint0_linear_405_1795" x1="82.4959" y1="23.989" x2="49.5194" y2="84.959" gradientUnits="userSpaceOnUse">
      <stop stop-color="#F1991C" />
      <stop offset="1" stop-color="#F4D800" />
    </linearGradient>
    <linearGradient id="paint1_linear_405_1795" x1="45.0638" y1="3.16241e-07" x2="58.6158" y2="52.7743" gradientUnits="userSpaceOnUse">
      <stop stop-color="#F1921F" />
      <stop offset="1" stop-color="#F4D800" />
    </linearGradient>
    <linearGradient id="paint2_linear_405_1795" x1="36.3018" y1="1.65439" x2="41.6457" y2="86.4462" gradientUnits="userSpaceOnUse">
      <stop stop-color="#F4D900" />
      <stop offset="1" stop-color="#F18F21" />
    </linearGradient>
    <clipPath id="clip0_405_1795">
      <rect width="262" height="86" fill="white" />
    </clipPath>
  </defs>
</svg>
  