<svg width="73" height="70" viewBox="0 0 73 70" fill="none" xmlns="http://www.w3.org/2000/svg">
  <circle cx="23.5" cy="19.5" r="14" stroke="black"/>
  <circle cx="23.5" cy="19.5" r="12" stroke="black"/>
  <path d="M29.6867 20.2454C30.0704 21.2834 30.0449 22.2523 29.61 23.1523C29.1751 24.0523 28.4453 24.7699 27.4207 25.3051L28.038 26.9747L26.8562 27.4116L26.2458 25.7608C25.2051 26.0603 24.2319 26.1003 23.3262 25.8808C22.4206 25.6612 21.6526 25.1988 21.0222 24.4937L22.2039 23.0759C23.0716 24.0771 24.2085 24.4031 25.6147 24.0538L23.9362 19.5141C22.7767 19.5306 21.8112 19.4185 21.0398 19.1777C20.0893 18.8752 19.4106 18.1737 19.0037 17.0732C18.6292 16.0602 18.6616 15.11 19.1012 14.2225C19.5485 13.3179 20.2563 12.6368 21.2244 12.1794L20.6141 10.5286L21.7959 10.0917L22.4131 11.7612C24.08 11.3866 25.5153 11.8083 26.7191 13.0265L25.5611 14.3929C24.8609 13.614 24.022 13.3058 23.0443 13.4683L24.6395 17.7828C25.2762 17.7748 25.8021 17.7937 26.217 17.8393C26.6615 17.8882 27.116 17.9831 27.5804 18.1242C28.5638 18.4003 29.2659 19.1073 29.6867 20.2454ZM20.7295 16.4351C20.9006 16.8978 21.1815 17.2347 21.5722 17.4456C21.9708 17.6394 22.5438 17.7474 23.2912 17.7696L21.8555 13.8865C21.3205 14.1696 20.9529 14.5401 20.7525 14.9979C20.5476 15.4433 20.5399 15.9224 20.7295 16.4351ZM25.2776 19.5086L26.7826 23.5793C27.338 23.2745 27.7198 22.8845 27.928 22.4095C28.1362 21.9345 28.1432 21.4344 27.949 20.9091C27.7641 20.4089 27.466 20.0642 27.0549 19.875C26.6517 19.6687 26.0592 19.5466 25.2776 19.5086Z" fill="black"/>
  <rect x="38.3067" y="0.61124" width="29.5536" height="34" transform="rotate(14.817 38.3067 0.61124)" fill="#FFD011" stroke="black"/>
  <rect x="0.5" y="20.5" width="72" height="49" rx="4.5" fill="white" stroke="black"/>
  <path d="M73 36V51H41V50.8964C38.1626 50.3011 36 47.2165 36 43.5C36 39.7835 38.1626 36.6989 41 36.1036V36H73Z" fill="#FFD011"/>
  <path d="M41.5 36.5096V36.5H72.5V50.5H41.5V50.4904L41.1027 50.4071C38.5625 49.8741 36.5 47.0543 36.5 43.5C36.5 39.9457 38.5625 37.1259 41.1027 36.5929L41.5 36.5096Z" stroke="black"/>
  <circle cx="44" cy="44" r="3.5" stroke="black"/>
  <path d="M24.45 49.39C24.45 51.05 23.91 52.4 22.83 53.44C21.75 54.48 20.35 55.11 18.63 55.33V58H16.74V55.36C15.12 55.24 13.73 54.79 12.57 54.01C11.41 53.23 10.57 52.18 10.05 50.86L12.45 49.48C13.15 51.34 14.58 52.39 16.74 52.63V45.37C15.1 44.79 13.8 44.13 12.84 43.39C11.66 42.47 11.07 41.13 11.07 39.37C11.07 37.75 11.61 36.43 12.69 35.41C13.79 34.37 15.14 33.78 16.74 33.64V31H18.63V33.67C21.17 34.01 22.97 35.35 24.03 37.69L21.69 39.01C21.11 37.55 20.09 36.68 18.63 36.4V43.3C19.53 43.62 20.26 43.92 20.82 44.2C21.42 44.5 22.01 44.87 22.59 45.31C23.83 46.21 24.45 47.57 24.45 49.39ZM13.83 39.37C13.83 40.11 14.05 40.73 14.49 41.23C14.95 41.71 15.7 42.16 16.74 42.58V36.37C15.84 36.49 15.13 36.82 14.61 37.36C14.09 37.88 13.83 38.55 13.83 39.37ZM18.63 46.06V52.57C19.57 52.43 20.31 52.08 20.85 51.52C21.39 50.96 21.66 50.26 21.66 49.42C21.66 48.62 21.42 47.98 20.94 47.5C20.48 47 19.71 46.52 18.63 46.06Z" fill="black"/>
  </svg>
  