<svg width="69" height="76" viewBox="0 0 69 76" fill="none" xmlns="http://www.w3.org/2000/svg">
  <rect x="8.5" y="21.5" width="51" height="34" rx="2.5" fill="white" stroke="black" />
  <path d="M37.6205 32.5644L37.9145 32.5H59.5V42.5H37.9145L37.6205 42.4356C35.9328 42.0661 34.5 40.0792 34.5 37.5C34.5 34.9208 35.9328 32.9339 37.6205 32.5644Z" fill="#FFD011" stroke="black" />
  <circle cx="3" cy="28" r="2.5" fill="#C4C4C4" stroke="black" />
  <circle cx="3" cy="20" r="2.5" fill="#C4C4C4" stroke="black" />
  <circle cx="3" cy="12" r="2.5" fill="#C4C4C4" stroke="black" />
  <circle cx="11" cy="12" r="2.5" fill="#C4C4C4" stroke="black" />
  <circle cx="19" cy="12" r="2.5" fill="#C4C4C4" stroke="black" />
  <circle cx="27" cy="12" r="2.5" fill="#C4C4C4" stroke="black" />
  <circle cx="35" cy="12" r="2.5" fill="#C4C4C4" stroke="black" />
  <circle cx="43" cy="12" r="2.5" fill="#C4C4C4" stroke="black" />
  <circle cx="39.5" cy="37.5" r="2" transform="rotate(-180 39.5 37.5)" stroke="black" />
  <circle cx="27.5" cy="35.5" r="2" transform="rotate(-180 27.5 35.5)" stroke="black" />
  <circle cx="13.5" cy="44.5" r="2" transform="rotate(-180 13.5 44.5)" stroke="black" />
  <circle cx="28.5" cy="50.5" r="2" transform="rotate(-180 28.5 50.5)" stroke="black" />
  <circle cx="66" cy="49" r="2.5" transform="rotate(-180 66 49)" fill="#C4C4C4" stroke="black" />
  <circle cx="66" cy="57" r="2.5" transform="rotate(-180 66 57)" fill="#C4C4C4" stroke="black" />
  <circle cx="66" cy="65" r="2.5" transform="rotate(-180 66 65)" fill="#C4C4C4" stroke="black" />
  <circle cx="58" cy="65" r="2.5" transform="rotate(-180 58 65)" fill="#C4C4C4" stroke="black" />
  <circle cx="50" cy="65" r="2.5" transform="rotate(-180 50 65)" fill="#C4C4C4" stroke="black" />
  <circle cx="42" cy="65" r="2.5" transform="rotate(-180 42 65)" fill="#C4C4C4" stroke="black" />
  <circle cx="34" cy="65" r="2.5" transform="rotate(-180 34 65)" fill="#C4C4C4" stroke="black" />
  <circle cx="26" cy="65" r="2.5" transform="rotate(-180 26 65)" fill="#C4C4C4" stroke="black" />
  <circle cx="56" cy="8" r="7.5" fill="#FFD011" stroke="black" />
  <circle cx="14" cy="68" r="7.5" fill="#FFD011" stroke="black" />
  <line x1="26" y1="50.5" x2="9" y2="50.5" stroke="black" />
  <path d="M59 48.5H34L29.5 44L15 44" stroke="black" />
  <path d="M8.5 38.5H13L16 35.5H25.5" stroke="black" />
  <path d="M59.5 25.5H41.5L38 28.5H22.5" stroke="black" />
  <path d="M8.5 28.5H18.5" stroke="black" />
  <path d="M16.15 69.13C16.15 69.6833 15.97 70.1333 15.61 70.48C15.25 70.8267 14.7833 71.0367 14.21 71.11V72H13.58V71.12C13.04 71.08 12.5767 70.93 12.19 70.67C11.8033 70.41 11.5233 70.06 11.35 69.62L12.15 69.16C12.3833 69.78 12.86 70.13 13.58 70.21V67.79C13.0333 67.5967 12.6 67.3767 12.28 67.13C11.8867 66.8233 11.69 66.3767 11.69 65.79C11.69 65.25 11.87 64.81 12.23 64.47C12.5967 64.1233 13.0467 63.9267 13.58 63.88V63H14.21V63.89C15.0567 64.0033 15.6567 64.45 16.01 65.23L15.23 65.67C15.0367 65.1833 14.6967 64.8933 14.21 64.8V67.1C14.51 67.2067 14.7533 67.3067 14.94 67.4C15.14 67.5 15.3367 67.6233 15.53 67.77C15.9433 68.07 16.15 68.5233 16.15 69.13ZM12.61 65.79C12.61 66.0367 12.6833 66.2433 12.83 66.41C12.9833 66.57 13.2333 66.72 13.58 66.86V64.79C13.28 64.83 13.0433 64.94 12.87 65.12C12.6967 65.2933 12.61 65.5167 12.61 65.79ZM14.21 68.02V70.19C14.5233 70.1433 14.77 70.0267 14.95 69.84C15.13 69.6533 15.22 69.42 15.22 69.14C15.22 68.8733 15.14 68.66 14.98 68.5C14.8267 68.3333 14.57 68.1733 14.21 68.02Z" fill="black" />
  <path d="M58.15 9.13C58.15 9.68333 57.97 10.1333 57.61 10.48C57.25 10.8267 56.7833 11.0367 56.21 11.11V12H55.58V11.12C55.04 11.08 54.5767 10.93 54.19 10.67C53.8033 10.41 53.5233 10.06 53.35 9.62L54.15 9.16C54.3833 9.78 54.86 10.13 55.58 10.21V7.79C55.0333 7.59667 54.6 7.37667 54.28 7.13C53.8867 6.82333 53.69 6.37667 53.69 5.79C53.69 5.25 53.87 4.81 54.23 4.47C54.5967 4.12333 55.0467 3.92667 55.58 3.88V3H56.21V3.89C57.0567 4.00333 57.6567 4.45 58.01 5.23L57.23 5.67C57.0367 5.18333 56.6967 4.89333 56.21 4.8V7.1C56.51 7.20667 56.7533 7.30667 56.94 7.4C57.14 7.5 57.3367 7.62333 57.53 7.77C57.9433 8.07 58.15 8.52333 58.15 9.13ZM54.61 5.79C54.61 6.03667 54.6833 6.24333 54.83 6.41C54.9833 6.57 55.2333 6.72 55.58 6.86V4.79C55.28 4.83 55.0433 4.94 54.87 5.12C54.6967 5.29333 54.61 5.51667 54.61 5.79ZM56.21 8.02V10.19C56.5233 10.1433 56.77 10.0267 56.95 9.84C57.13 9.65333 57.22 9.42 57.22 9.14C57.22 8.87333 57.14 8.66 56.98 8.5C56.8267 8.33333 56.57 8.17333 56.21 8.02Z" fill="black" />
  <circle cx="20.5" cy="28.5" r="2" transform="rotate(-180 20.5 28.5)" stroke="black" />
</svg>
  