<svg width="43" height="70" viewBox="0 0 43 70" fill="none" xmlns="http://www.w3.org/2000/svg">
  <rect x="0.5" y="27.5" width="42" height="40" rx="2.5" stroke="black"/>
  <rect x="3.5" y="64.5" width="35" height="5" rx="2.5" stroke="black"/>
  <rect x="0.5" y="36.5" width="42" height="31" rx="1.5" fill="#FFD011" stroke="black"/>
  <path d="M25.24 53.008C25.24 53.8933 24.952 54.6133 24.376 55.168C23.8 55.7227 23.0533 56.0587 22.136 56.176V57.6H21.128V56.192C20.264 56.128 19.5227 55.888 18.904 55.472C18.2853 55.056 17.8373 54.496 17.56 53.792L18.84 53.056C19.2133 54.048 19.976 54.608 21.128 54.736V50.864C20.2533 50.5547 19.56 50.2027 19.048 49.808C18.4187 49.3173 18.104 48.6027 18.104 47.664C18.104 46.8 18.392 46.096 18.968 45.552C19.5547 44.9973 20.2747 44.6827 21.128 44.608V43.2H22.136V44.624C23.4907 44.8053 24.4507 45.52 25.016 46.768L23.768 47.472C23.4587 46.6933 22.9147 46.2293 22.136 46.08V49.76C22.616 49.9307 23.0053 50.0907 23.304 50.24C23.624 50.4 23.9387 50.5973 24.248 50.832C24.9093 51.312 25.24 52.0373 25.24 53.008ZM19.576 47.664C19.576 48.0587 19.6933 48.3893 19.928 48.656C20.1733 48.912 20.5733 49.152 21.128 49.376V46.064C20.648 46.128 20.2693 46.304 19.992 46.592C19.7147 46.8693 19.576 47.2267 19.576 47.664ZM22.136 51.232V54.704C22.6373 54.6293 23.032 54.4427 23.32 54.144C23.608 53.8453 23.752 53.472 23.752 53.024C23.752 52.5973 23.624 52.256 23.368 52C23.1227 51.7333 22.712 51.4773 22.136 51.232Z" fill="black"/>
  <line y1="31.5" x2="42" y2="31.5" stroke="black"/>
  <path d="M4 27.5V15H4.01021C4.32825 7.22339 12.037 1 21.5 1C30.963 1 38.6717 7.22339 38.9898 15H39V27.5" stroke="black"/>
  <path d="M32.4937 16.1273L32.5 16.2922V27.5002H10.5V16.2923L10.5063 16.1273C10.7029 11.0087 15.4936 6.81445 21.5 6.81445C27.5064 6.81445 32.2971 11.0087 32.4937 16.1273Z" stroke="black"/>
  </svg>
  