<svg width="74" height="78" viewBox="0 0 74 78" fill="none" xmlns="http://www.w3.org/2000/svg">
  <circle cx="48" cy="12" r="9.5" stroke="black"/>
  <circle cx="46.5" cy="57.5" r="20" stroke="black"/>
  <path d="M50.8473 61.2322C51.1603 61.3755 51.4678 61.4512 51.7058 61.4918V61.528L52.1835 61.5494C53.0552 61.5884 53.8966 61.8837 54.603 62.3988C55.3095 62.914 55.85 63.6264 56.1572 64.4479C56.4643 65.2694 56.5245 66.1634 56.3301 67.019C56.1357 67.8746 55.6954 68.6537 55.0641 69.2597C54.433 69.8656 53.6387 70.2719 52.78 70.4282C51.9214 70.5846 51.0359 70.4842 50.2334 70.1396C49.4309 69.7949 48.7465 69.221 48.2655 68.4887C47.7845 67.7564 47.5282 66.8982 47.5285 66.0206V66.0205C47.5288 65.0626 47.8377 64.1307 48.4088 63.364L48.4712 63.2803L48.4949 63.1786C48.5746 62.8359 48.8399 61.3776 47.7653 60.3041L47.7652 60.3041C47.1877 59.7275 46.3862 59.725 45.7451 59.8986C45.0969 60.0742 44.4696 60.4608 44.0811 60.8863L44.0291 60.9432L43.9967 61.0132C43.9202 61.178 43.8335 61.3378 43.7368 61.4916L43.6903 61.5657L43.6898 61.5681C43.1663 62.3751 42.3976 62.991 41.4978 63.3243C40.5834 63.6629 39.5839 63.6911 38.6521 63.4046C37.7203 63.118 36.9074 62.5324 36.3382 61.7371C35.7689 60.9417 35.475 59.9805 35.5017 59.0009C35.5284 58.0213 35.8742 57.0777 36.4859 56.3148C37.0975 55.552 37.941 55.0119 38.887 54.777C39.8329 54.5421 40.8295 54.6251 41.724 55.0135C42.6186 55.4018 43.3622 56.0743 43.8403 56.9282L44.1115 57.4125L44.249 57.3154C44.3238 57.3981 44.4109 57.4879 44.5088 57.5782C44.8481 57.891 45.3986 58.2851 46.07 58.2851C46.6251 58.2851 47.2319 58.1452 47.7087 57.7472C48.1999 57.3371 48.486 56.7092 48.4876 55.8771C48.4998 55.4233 48.4299 54.971 48.2813 54.5421L48.2621 54.4867L48.2305 54.4373C48.1521 54.3141 48.0805 54.1892 48.0149 54.0596L47.9916 54.0135L47.9875 54.0085L47.9344 53.8927C47.6675 53.3116 47.5291 52.6793 47.5287 52.0392L47.5287 52.0363C47.5229 51.1503 47.7772 50.2823 48.2596 49.5409C48.7419 48.7995 49.4309 48.2175 50.2402 47.8674C51.0495 47.5173 51.9435 47.4145 52.8105 47.5716C53.6776 47.7287 54.4795 48.1389 55.1163 48.7513C55.753 49.3637 56.1962 50.1511 56.3901 51.0154C56.5841 51.8797 56.5202 52.7823 56.2064 53.6102C55.8927 54.4382 55.3431 55.1546 54.6267 55.6703C53.9103 56.1859 53.0587 56.478 52.1782 56.5104L52.1785 56.5169C52.1584 56.5161 52.1339 56.5153 52.1058 56.5147L52.0867 56.5143L52.0676 56.5153C52.0563 56.5159 52.046 56.5166 52.0383 56.5172L52.0216 56.5184C52.0185 56.5182 52.0152 56.5179 52.0117 56.5177C52.0002 56.5169 51.9841 56.516 51.9651 56.516H51.9568L51.9486 56.5163C51.6231 56.5271 51.0061 56.5901 50.456 56.9219C49.8681 57.2766 49.4049 57.9117 49.4049 58.9342C49.4049 59.5579 49.5773 60.0579 49.8602 60.4465C50.1392 60.8296 50.504 61.0751 50.8473 61.2322Z" stroke="black"/>
  <circle cx="25" cy="32" r="24.5" fill="white" stroke="black"/>
  <circle cx="25" cy="32" r="16.5" fill="#FFD011" stroke="black"/>
  <circle cx="59.5" cy="29.5" r="14" fill="white" stroke="black"/>
  <path fill-rule="evenodd" clip-rule="evenodd" d="M51.9744 29.1477C52.1671 29.1477 52.3554 29.2037 52.5157 29.3088C52.6759 29.4139 52.8008 29.5633 52.8745 29.738C52.9483 29.9128 52.9676 30.1051 52.93 30.2906C52.8924 30.4761 52.7996 30.6465 52.6633 30.7803C52.5271 30.914 52.3535 31.0051 52.1644 31.042C51.9754 31.0789 51.7795 31.06 51.6015 30.9876C51.4234 30.9152 51.2713 30.7926 51.1642 30.6354C51.0571 30.4781 51 30.2932 51 30.104C51 29.8504 51.1027 29.6071 51.2854 29.4278C51.4681 29.2484 51.7159 29.1477 51.9744 29.1477V29.1477ZM63.6667 34.5839C63.8594 34.5839 64.0478 34.64 64.208 34.7451C64.3682 34.8502 64.4931 34.9995 64.5669 35.1743C64.6406 35.349 64.6599 35.5413 64.6223 35.7268C64.5847 35.9124 64.4919 36.0828 64.3556 36.2165C64.2194 36.3503 64.0458 36.4414 63.8568 36.4783C63.6677 36.5152 63.4718 36.4962 63.2938 36.4238C63.1158 36.3515 62.9636 36.2289 62.8565 36.0716C62.7495 35.9143 62.6923 35.7294 62.6923 35.5403C62.6923 35.2866 62.795 35.0434 62.9777 34.864C63.1604 34.6847 63.4083 34.5839 63.6667 34.5839V34.5839ZM62.641 22C62.8337 22 63.0221 22.0561 63.1823 22.1612C63.3426 22.2663 63.4675 22.4156 63.5412 22.5904C63.615 22.7651 63.6343 22.9574 63.5967 23.143C63.5591 23.3285 63.4663 23.4989 63.33 23.6326C63.1937 23.7664 63.0201 23.8575 62.8311 23.8944C62.6421 23.9313 62.4462 23.9123 62.2682 23.84C62.0901 23.7676 61.9379 23.645 61.8309 23.4877C61.7238 23.3304 61.6667 23.1455 61.6667 22.9564C61.6667 22.7027 61.7693 22.4595 61.952 22.2801C62.1348 22.1008 62.3826 22 62.641 22V22ZM53.1538 26.0268C53.3161 26.0268 53.4748 26.0741 53.6097 26.1626C53.7446 26.2511 53.8498 26.3768 53.9119 26.524C53.974 26.6712 53.9902 26.8331 53.9586 26.9893C53.9269 27.1456 53.8488 27.2891 53.734 27.4017C53.6193 27.5143 53.4731 27.591 53.3139 27.6221C53.1548 27.6532 52.9898 27.6372 52.8399 27.5763C52.6899 27.5153 52.5618 27.4121 52.4716 27.2797C52.3815 27.1472 52.3333 26.9915 52.3333 26.8322C52.3333 26.6186 52.4198 26.4138 52.5737 26.2627C52.7275 26.1117 52.9362 26.0268 53.1538 26.0268ZM53.9744 27.9396C54.1366 27.9396 54.2953 27.9868 54.4302 28.0753C54.5651 28.1638 54.6703 28.2896 54.7324 28.4368C54.7945 28.5839 54.8108 28.7459 54.7791 28.9021C54.7474 29.0583 54.6693 29.2018 54.5546 29.3144C54.4398 29.4271 54.2936 29.5038 54.1344 29.5349C53.9753 29.5659 53.8103 29.55 53.6604 29.489C53.5104 29.4281 53.3823 29.3248 53.2921 29.1924C53.202 29.06 53.1538 28.9043 53.1538 28.745C53.1538 28.5314 53.2403 28.3265 53.3942 28.1755C53.548 28.0244 53.7567 27.9396 53.9744 27.9396ZM62.8974 24.5168C63.0597 24.5168 63.2184 24.564 63.3533 24.6525C63.4882 24.741 63.5934 24.8668 63.6555 25.0139C63.7176 25.1611 63.7338 25.323 63.7022 25.4793C63.6705 25.6355 63.5924 25.779 63.4776 25.8916C63.3629 26.0043 63.2167 26.081 63.0575 26.112C62.8983 26.1431 62.7334 26.1272 62.5834 26.0662C62.4335 26.0053 62.3054 25.902 62.2152 25.7696C62.125 25.6371 62.0769 25.4814 62.0769 25.3221C62.0769 25.1086 62.1634 24.9037 62.3172 24.7527C62.4711 24.6016 62.6798 24.5168 62.8974 24.5168ZM64.9487 24.8188C65.111 24.8188 65.2696 24.866 65.4046 24.9545C65.5395 25.043 65.6447 25.1688 65.7068 25.316C65.7689 25.4631 65.7851 25.625 65.7535 25.7813C65.7218 25.9375 65.6437 26.081 65.5289 26.1936C65.4142 26.3063 65.268 26.383 65.1088 26.4141C64.9496 26.4451 64.7847 26.4292 64.6347 26.3682C64.4848 26.3073 64.3566 26.204 64.2665 26.0716C64.1763 25.9392 64.1282 25.7834 64.1282 25.6242C64.1282 25.4106 64.2147 25.2057 64.3685 25.0547C64.5224 24.9036 64.7311 24.8188 64.9487 24.8188ZM61.4615 33.7785C61.6238 33.7785 61.7825 33.8258 61.9174 33.9143C62.0523 34.0027 62.1575 34.1285 62.2196 34.2757C62.2817 34.4228 62.2979 34.5848 62.2663 34.741C62.2346 34.8972 62.1565 35.0407 62.0417 35.1534C61.927 35.266 61.7808 35.3427 61.6216 35.3738C61.4625 35.4049 61.2975 35.3889 61.1475 35.328C60.9976 35.267 60.8695 35.1638 60.7793 35.0313C60.6892 34.8989 60.641 34.7432 60.641 34.5839C60.641 34.3703 60.7275 34.1654 60.8813 34.0144C61.0352 33.8634 61.2439 33.7785 61.4615 33.7785ZM60.1282 35.3893C60.2905 35.3893 60.4491 35.4365 60.5841 35.525C60.719 35.6135 60.8242 35.7393 60.8863 35.8864C60.9484 36.0336 60.9646 36.1955 60.9329 36.3517C60.9013 36.508 60.8231 36.6515 60.7084 36.7641C60.5936 36.8767 60.4474 36.9535 60.2883 36.9845C60.1291 37.0156 59.9641 36.9996 59.8142 36.9387C59.6643 36.8777 59.5361 36.7745 59.446 36.6421C59.3558 36.5096 59.3077 36.3539 59.3077 36.1946C59.3077 35.981 59.3941 35.7762 59.548 35.6251C59.7019 35.4741 59.9106 35.3893 60.1282 35.3893ZM59.8205 32.6711C59.9625 32.6711 60.1013 32.7125 60.2194 32.7899C60.3374 32.8673 60.4295 32.9774 60.4838 33.1062C60.5382 33.2349 60.5524 33.3766 60.5247 33.5133C60.497 33.65 60.4286 33.7756 60.3282 33.8741C60.2278 33.9727 60.0998 34.0398 59.9606 34.067C59.8213 34.0942 59.677 34.0802 59.5458 34.0269C59.4146 33.9736 59.3024 33.8832 59.2236 33.7674C59.1447 33.6515 59.1026 33.5152 59.1026 33.3758C59.1026 33.1889 59.1782 33.0097 59.3128 32.8775C59.4475 32.7454 59.6301 32.6711 59.8205 32.6711ZM58.4872 34.2819C58.6292 34.2819 58.768 34.3232 58.886 34.4006C59.0041 34.4781 59.0961 34.5881 59.1505 34.7169C59.2048 34.8457 59.219 34.9874 59.1913 35.1241C59.1636 35.2607 59.0953 35.3863 58.9948 35.4849C58.8944 35.5834 58.7665 35.6505 58.6272 35.6777C58.488 35.7049 58.3436 35.691 58.2124 35.6376C58.0812 35.5843 57.9691 35.494 57.8902 35.3781C57.8113 35.2622 57.7692 35.126 57.7692 34.9866C57.7692 34.7997 57.8449 34.6204 57.9795 34.4883C58.1142 34.3561 58.2968 34.2819 58.4872 34.2819V34.2819ZM57.1538 35.3893C57.2958 35.3893 57.4347 35.4306 57.5527 35.508C57.6708 35.5855 57.7628 35.6955 57.8171 35.8243C57.8715 35.953 57.8857 36.0947 57.858 36.2314C57.8303 36.3681 57.7619 36.4937 57.6615 36.5923C57.5611 36.6908 57.4332 36.7579 57.2939 36.7851C57.1546 36.8123 57.0103 36.7984 56.8791 36.745C56.7479 36.6917 56.6358 36.6014 56.5569 36.4855C56.478 36.3696 56.4359 36.2333 56.4359 36.094C56.4359 35.9071 56.5115 35.7278 56.6462 35.5957C56.7808 35.4635 56.9634 35.3893 57.1538 35.3893V35.3893ZM62.6923 26.6309C62.8343 26.6309 62.9731 26.6722 63.0912 26.7496C63.2092 26.8271 63.3013 26.9371 63.3556 27.0659C63.4099 27.1947 63.4242 27.3363 63.3965 27.473C63.3688 27.6097 63.3004 27.7353 63.2 27.8339C63.0996 27.9324 62.9716 27.9995 62.8324 28.0267C62.6931 28.0539 62.5488 28.04 62.4176 27.9866C62.2864 27.9333 62.1742 27.843 62.0954 27.7271C62.0165 27.6112 61.9744 27.4749 61.9744 27.3356C61.9744 27.1487 62.05 26.9694 62.1846 26.8373C62.3193 26.7051 62.5019 26.6309 62.6923 26.6309ZM64.641 26.9329C64.783 26.9329 64.9218 26.9742 65.0399 27.0516C65.158 27.1291 65.25 27.2391 65.3043 27.3679C65.3587 27.4967 65.3729 27.6384 65.3452 27.7751C65.3175 27.9118 65.2491 28.0373 65.1487 28.1359C65.0483 28.2344 64.9204 28.3015 64.7811 28.3287C64.6418 28.3559 64.4975 28.342 64.3663 28.2886C64.2351 28.2353 64.123 28.145 64.0441 28.0291C63.9652 27.9132 63.9231 27.777 63.9231 27.6376C63.9231 27.4507 63.9987 27.2714 64.1334 27.1393C64.268 27.0071 64.4506 26.9329 64.641 26.9329V26.9329ZM66.2821 27.5369C66.424 27.5369 66.5629 27.5782 66.6809 27.6557C66.799 27.7331 66.891 27.8432 66.9454 27.9719C66.9997 28.1007 67.0139 28.2424 66.9862 28.3791C66.9585 28.5158 66.8901 28.6413 66.7897 28.7399C66.6893 28.8385 66.5614 28.9056 66.4221 28.9328C66.2829 28.96 66.1385 28.946 66.0073 28.8927C65.8761 28.8393 65.764 28.749 65.6851 28.6331C65.6062 28.5172 65.5641 28.381 65.5641 28.2416C65.5641 28.0547 65.6397 27.8755 65.7744 27.7433C65.909 27.6112 66.0916 27.5369 66.2821 27.5369ZM54.7949 23.7114C54.9369 23.7114 55.0757 23.7527 55.1937 23.8302C55.3118 23.9076 55.4038 24.0177 55.4582 24.1464C55.5125 24.2752 55.5267 24.4169 55.499 24.5536C55.4713 24.6903 55.4029 24.8158 55.3025 24.9144C55.2021 25.013 55.0742 25.0801 54.9349 25.1073C54.7957 25.1345 54.6513 25.1205 54.5201 25.0672C54.3889 25.0138 54.2768 24.9235 54.1979 24.8076C54.119 24.6917 54.0769 24.5555 54.0769 24.4161C54.0769 24.2292 54.1526 24.05 54.2872 23.9178C54.4218 23.7857 54.6045 23.7114 54.7949 23.7114V23.7114ZM55.1026 25.4228C55.2446 25.4228 55.3834 25.4641 55.5014 25.5416C55.6195 25.619 55.7115 25.7291 55.7659 25.8578C55.8202 25.9866 55.8344 26.1283 55.8067 26.265C55.779 26.4017 55.7106 26.5273 55.6102 26.6258C55.5098 26.7244 55.3819 26.7915 55.2426 26.8187C55.1034 26.8459 54.959 26.8319 54.8278 26.7786C54.6966 26.7252 54.5845 26.6349 54.5056 26.519C54.4267 26.4031 54.3846 26.2669 54.3846 26.1275C54.3846 25.9406 54.4603 25.7614 54.5949 25.6292C54.7295 25.4971 54.9122 25.4228 55.1026 25.4228ZM55.8205 27.2349C55.9625 27.2349 56.1013 27.2762 56.2194 27.3537C56.3374 27.4311 56.4295 27.5411 56.4838 27.6699C56.5382 27.7987 56.5524 27.9404 56.5247 28.0771C56.497 28.2138 56.4286 28.3393 56.3282 28.4379C56.2278 28.5364 56.0998 28.6036 55.9606 28.6308C55.8213 28.6579 55.677 28.644 55.5458 28.5907C55.4146 28.5373 55.3024 28.447 55.2236 28.3311C55.1447 28.2152 55.1026 28.079 55.1026 27.9396C55.1026 27.7527 55.1782 27.5735 55.3128 27.4413C55.4475 27.3091 55.6301 27.2349 55.8205 27.2349V27.2349ZM57.5641 27.0336C57.6858 27.0336 57.8048 27.069 57.906 27.1354C58.0072 27.2017 58.0861 27.2961 58.1326 27.4064C58.1792 27.5168 58.1914 27.6383 58.1677 27.7554C58.1439 27.8726 58.0853 27.9802 57.9992 28.0647C57.9132 28.1492 57.8035 28.2067 57.6842 28.23C57.5648 28.2533 57.4411 28.2414 57.3286 28.1956C57.2162 28.1499 57.12 28.0725 57.0524 27.9732C56.9848 27.8738 56.9487 27.757 56.9487 27.6376C56.9487 27.4774 57.0136 27.3237 57.129 27.2105C57.2444 27.0972 57.4009 27.0336 57.5641 27.0336V27.0336ZM56.8462 25.2215C56.9679 25.2215 57.0868 25.2569 57.188 25.3233C57.2892 25.3896 57.3681 25.484 57.4147 25.5943C57.4613 25.7047 57.4735 25.8262 57.4497 25.9433C57.426 26.0605 57.3674 26.1681 57.2813 26.2526C57.1952 26.3371 57.0856 26.3946 56.9662 26.4179C56.8468 26.4412 56.7231 26.4293 56.6107 26.3836C56.4982 26.3378 56.4021 26.2604 56.3345 26.1611C56.2669 26.0617 56.2308 25.945 56.2308 25.8255C56.2308 25.6653 56.2956 25.5117 56.411 25.3984C56.5264 25.2851 56.6829 25.2215 56.8462 25.2215ZM58.6923 31.4631C58.814 31.4631 58.933 31.4985 59.0342 31.5649C59.1354 31.6313 59.2143 31.7256 59.2608 31.836C59.3074 31.9463 59.3196 32.0678 59.2959 32.185C59.2721 32.3021 59.2135 32.4098 59.1274 32.4942C59.0414 32.5787 58.9317 32.6362 58.8124 32.6595C58.693 32.6828 58.5693 32.6709 58.4568 32.6252C58.3444 32.5794 58.2483 32.502 58.1806 32.4027C58.113 32.3034 58.0769 32.1866 58.0769 32.0671C58.0769 31.9069 58.1418 31.7533 58.2572 31.64C58.3726 31.5267 58.5291 31.4631 58.6923 31.4631ZM57.359 33.0738C57.4807 33.0738 57.5997 33.1093 57.7009 33.1756C57.8021 33.242 57.8809 33.3363 57.9275 33.4467C57.9741 33.5571 57.9863 33.6785 57.9625 33.7957C57.9388 33.9129 57.8802 34.0205 57.7941 34.105C57.7081 34.1894 57.5984 34.247 57.479 34.2703C57.3597 34.2936 57.2359 34.2816 57.1235 34.2359C57.011 34.1902 56.9149 34.1128 56.8473 34.0134C56.7797 33.9141 56.7436 33.7973 56.7436 33.6779C56.7436 33.5177 56.8084 33.364 56.9238 33.2507C57.0392 33.1375 57.1958 33.0738 57.359 33.0738ZM56.0256 34.1812C56.1474 34.1812 56.2663 34.2166 56.3675 34.283C56.4687 34.3494 56.5476 34.4437 56.5942 34.5541C56.6408 34.6644 56.6529 34.7859 56.6292 34.9031C56.6055 35.0202 56.5468 35.1279 56.4608 35.2123C56.3747 35.2968 56.2651 35.3544 56.1457 35.3777C56.0263 35.401 55.9026 35.389 55.7901 35.3433C55.6777 35.2976 55.5816 35.2201 55.514 35.1208C55.4463 35.0215 55.4103 34.9047 55.4103 34.7852C55.4103 34.625 55.4751 34.4714 55.5905 34.3581C55.7059 34.2448 55.8624 34.1812 56.0256 34.1812V34.1812ZM61.9744 28.3423C62.0961 28.3423 62.2151 28.3777 62.3163 28.4441C62.4175 28.5105 62.4963 28.6048 62.5429 28.7152C62.5895 28.8255 62.6017 28.947 62.5779 29.0641C62.5542 29.1813 62.4956 29.2889 62.4095 29.3734C62.3234 29.4579 62.2138 29.5154 62.0944 29.5387C61.975 29.562 61.8513 29.5501 61.7389 29.5044C61.6264 29.4586 61.5303 29.3812 61.4627 29.2819C61.3951 29.1826 61.359 29.0658 61.359 28.9463C61.359 28.7861 61.4238 28.6325 61.5392 28.5192C61.6546 28.4059 61.8111 28.3423 61.9744 28.3423ZM64.1282 28.6443C64.2499 28.6443 64.3689 28.6797 64.4701 28.7461C64.5713 28.8125 64.6502 28.9068 64.6967 29.0172C64.7433 29.1275 64.7555 29.249 64.7318 29.3662C64.708 29.4833 64.6494 29.591 64.5633 29.6754C64.4773 29.7599 64.3676 29.8174 64.2483 29.8407C64.1289 29.8641 64.0052 29.8521 63.8927 29.8064C63.7803 29.7607 63.6842 29.6832 63.6165 29.5839C63.5489 29.4846 63.5128 29.3678 63.5128 29.2483C63.5128 29.0881 63.5777 28.9345 63.6931 28.8212C63.8085 28.7079 63.965 28.6443 64.1282 28.6443ZM65.7692 29.2483C65.8909 29.2483 66.0099 29.2838 66.1111 29.3501C66.2123 29.4165 66.2912 29.5108 66.3378 29.6212C66.3844 29.7316 66.3965 29.853 66.3728 29.9702C66.349 30.0874 66.2904 30.195 66.2044 30.2795C66.1183 30.3639 66.0087 30.4215 65.8893 30.4448C65.7699 30.4681 65.6462 30.4561 65.5337 30.4104C65.4213 30.3647 65.3252 30.2873 65.2576 30.1879C65.1899 30.0886 65.1538 29.9718 65.1538 29.8523C65.1538 29.6922 65.2187 29.5385 65.3341 29.4252C65.4495 29.312 65.606 29.2483 65.7692 29.2483ZM64.9487 30.557C65.0501 30.557 65.1493 30.5866 65.2336 30.6419C65.318 30.6972 65.3837 30.7758 65.4225 30.8678C65.4613 30.9597 65.4715 31.061 65.4517 31.1586C65.4319 31.2562 65.3831 31.3459 65.3113 31.4163C65.2396 31.4867 65.1482 31.5347 65.0488 31.5541C64.9493 31.5735 64.8462 31.5635 64.7525 31.5254C64.6588 31.4873 64.5787 31.4228 64.5223 31.34C64.466 31.2573 64.4359 31.16 64.4359 31.0604C64.4359 30.9269 64.4899 30.7989 64.5861 30.7045C64.6823 30.6101 64.8127 30.557 64.9487 30.557ZM63.3077 29.953C63.4091 29.953 63.5083 29.9825 63.5926 30.0378C63.6769 30.0932 63.7427 30.1718 63.7815 30.2637C63.8203 30.3557 63.8304 30.4569 63.8107 30.5546C63.7909 30.6522 63.742 30.7419 63.6703 30.8123C63.5986 30.8827 63.5072 30.9306 63.4077 30.9501C63.3083 30.9695 63.2052 30.9595 63.1114 30.9214C63.0177 30.8833 62.9376 30.8188 62.8813 30.736C62.8249 30.6532 62.7949 30.5559 62.7949 30.4564C62.7949 30.3229 62.8489 30.1948 62.9451 30.1004C63.0412 30.0061 63.1717 29.953 63.3077 29.953V29.953ZM61.2564 29.651C61.3578 29.651 61.457 29.6805 61.5413 29.7358C61.6256 29.7911 61.6914 29.8698 61.7302 29.9617C61.769 30.0537 61.7792 30.1549 61.7594 30.2526C61.7396 30.3502 61.6907 30.4399 61.619 30.5103C61.5473 30.5807 61.4559 30.6286 61.3565 30.648C61.257 30.6675 61.1539 30.6575 61.0602 30.6194C60.9665 30.5813 60.8864 30.5168 60.83 30.434C60.7737 30.3512 60.7436 30.2539 60.7436 30.1544C60.7436 30.0209 60.7976 29.8928 60.8938 29.7984C60.99 29.704 61.1204 29.651 61.2564 29.651V29.651ZM59.1026 27.2349C59.204 27.2349 59.3031 27.2644 59.3875 27.3197C59.4718 27.375 59.5375 27.4536 59.5763 27.5456C59.6152 27.6376 59.6253 27.7388 59.6055 27.8365C59.5857 27.9341 59.5369 28.0238 59.4652 28.0942C59.3935 28.1646 59.3021 28.2125 59.2026 28.2319C59.1031 28.2514 59 28.2414 58.9063 28.2033C58.8126 28.1652 58.7325 28.1007 58.6762 28.0179C58.6198 27.9351 58.5897 27.8378 58.5897 27.7383C58.5897 27.6048 58.6438 27.4767 58.7399 27.3823C58.8361 27.2879 58.9666 27.2349 59.1026 27.2349ZM58.2821 25.3221C58.3835 25.3221 58.4826 25.3517 58.567 25.407C58.6513 25.4623 58.717 25.5409 58.7558 25.6329C58.7946 25.7248 58.8048 25.8261 58.785 25.9237C58.7652 26.0213 58.7164 26.111 58.6447 26.1814C58.573 26.2518 58.4816 26.2998 58.3821 26.3192C58.2826 26.3386 58.1795 26.3286 58.0858 26.2905C57.9921 26.2524 57.912 26.1879 57.8557 26.1052C57.7993 26.0224 57.7692 25.9251 57.7692 25.8255C57.7692 25.692 57.8233 25.564 57.9194 25.4696C58.0156 25.3752 58.146 25.3221 58.2821 25.3221ZM58.0769 23.6107C58.1784 23.6107 58.2775 23.6403 58.3618 23.6956C58.4462 23.7509 58.5119 23.8295 58.5507 23.9215C58.5895 24.0134 58.5997 24.1147 58.5799 24.2123C58.5601 24.3099 58.5113 24.3996 58.4395 24.47C58.3678 24.5404 58.2764 24.5884 58.177 24.6078C58.0775 24.6272 57.9744 24.6172 57.8807 24.5791C57.787 24.541 57.7069 24.4765 57.6505 24.3937C57.5942 24.311 57.5641 24.2136 57.5641 24.1141C57.5641 23.9806 57.6181 23.8526 57.7143 23.7582C57.8105 23.6638 57.9409 23.6107 58.0769 23.6107ZM57.9744 30.255C58.0758 30.255 58.1749 30.2846 58.2593 30.3399C58.3436 30.3952 58.4093 30.4738 58.4481 30.5658C58.487 30.6577 58.4971 30.7589 58.4773 30.8566C58.4575 30.9542 58.4087 31.0439 58.337 31.1143C58.2653 31.1847 58.1739 31.2327 58.0744 31.2521C57.9749 31.2715 57.8718 31.2615 57.7781 31.2234C57.6844 31.1853 57.6043 31.1208 57.548 31.038C57.4916 30.9553 57.4615 30.8579 57.4615 30.7584C57.4615 30.6249 57.5156 30.4969 57.6117 30.4025C57.7079 30.3081 57.8384 30.255 57.9744 30.255V30.255ZM56.7436 31.8658C56.845 31.8658 56.9442 31.8953 57.0285 31.9506C57.1128 32.0059 57.1786 32.0845 57.2174 32.1765C57.2562 32.2685 57.2663 32.3697 57.2466 32.4673C57.2268 32.565 57.1779 32.6547 57.1062 32.7251C57.0345 32.7954 56.9431 32.8434 56.8436 32.8628C56.7442 32.8822 56.6411 32.8723 56.5473 32.8342C56.4536 32.7961 56.3735 32.7316 56.3172 32.6488C56.2608 32.566 56.2308 32.4687 56.2308 32.3691C56.2308 32.2356 56.2848 32.1076 56.381 32.0132C56.4771 31.9188 56.6076 31.8658 56.7436 31.8658ZM55.3077 32.9732C55.4091 32.9732 55.5083 33.0027 55.5926 33.058C55.6769 33.1133 55.7427 33.1919 55.7815 33.2839C55.8203 33.3759 55.8304 33.4771 55.8107 33.5747C55.7909 33.6724 55.742 33.762 55.6703 33.8324C55.5986 33.9028 55.5072 33.9508 55.4077 33.9702C55.3083 33.9896 55.2052 33.9796 55.1114 33.9415C55.0177 33.9034 54.9376 33.8389 54.8813 33.7562C54.8249 33.6734 54.7949 33.5761 54.7949 33.4765C54.7949 33.343 54.8489 33.215 54.9451 33.1206C55.0412 33.0262 55.1717 32.9732 55.3077 32.9732ZM55 31.8658C55.0811 31.8658 55.1605 31.8894 55.2279 31.9336C55.2954 31.9779 55.348 32.0408 55.379 32.1144C55.4101 32.1879 55.4182 32.2689 55.4024 32.347C55.3865 32.4251 55.3475 32.4969 55.2901 32.5532C55.2327 32.6095 55.1596 32.6479 55.08 32.6634C55.0005 32.6789 54.918 32.671 54.843 32.6405C54.768 32.61 54.704 32.5584 54.6589 32.4922C54.6138 32.426 54.5897 32.3481 54.5897 32.2685C54.5897 32.1617 54.633 32.0592 54.7099 31.9837C54.7868 31.9082 54.8912 31.8658 55 31.8658ZM56.4359 30.7584C56.517 30.7584 56.5964 30.782 56.6638 30.8262C56.7313 30.8705 56.7839 30.9334 56.8149 31.007C56.846 31.0806 56.8541 31.1615 56.8383 31.2396C56.8224 31.3177 56.7834 31.3895 56.726 31.4458C56.6686 31.5021 56.5955 31.5405 56.5159 31.556C56.4364 31.5716 56.3539 31.5636 56.2789 31.5331C56.2039 31.5026 56.1399 31.451 56.0948 31.3848C56.0497 31.3186 56.0256 31.2407 56.0256 31.1611C56.0256 31.0543 56.0689 30.9519 56.1458 30.8763C56.2227 30.8008 56.3271 30.7584 56.4359 30.7584ZM57.6667 29.1477C57.7478 29.1477 57.8271 29.1713 57.8946 29.2155C57.9621 29.2598 58.0146 29.3227 58.0457 29.3962C58.0767 29.4698 58.0849 29.5508 58.069 29.6289C58.0532 29.707 58.0141 29.7788 57.9568 29.8351C57.8994 29.8914 57.8263 29.9297 57.7467 29.9453C57.6671 29.9608 57.5846 29.9528 57.5097 29.9224C57.4347 29.8919 57.3706 29.8403 57.3256 29.7741C57.2805 29.7078 57.2564 29.63 57.2564 29.5503C57.2564 29.4435 57.2996 29.3411 57.3766 29.2656C57.4535 29.1901 57.5579 29.1477 57.6667 29.1477ZM60.3333 30.6577C60.4145 30.6577 60.4938 30.6813 60.5613 30.7256C60.6287 30.7698 60.6813 30.8327 60.7124 30.9063C60.7434 30.9799 60.7515 31.0609 60.7357 31.139C60.7199 31.2171 60.6808 31.2888 60.6234 31.3451C60.5661 31.4015 60.493 31.4398 60.4134 31.4553C60.3338 31.4709 60.2513 31.4629 60.1763 31.4324C60.1014 31.402 60.0373 31.3503 59.9922 31.2841C59.9471 31.2179 59.9231 31.14 59.9231 31.0604C59.9231 30.9536 59.9663 30.8512 60.0432 30.7757C60.1202 30.7001 60.2245 30.6577 60.3333 30.6577ZM62.3846 30.9597C62.4658 30.9597 62.5451 30.9833 62.6125 31.0276C62.68 31.0718 62.7326 31.1347 62.7636 31.2083C62.7947 31.2819 62.8028 31.3629 62.787 31.441C62.7712 31.5191 62.7321 31.5908 62.6747 31.6471C62.6173 31.7035 62.5442 31.7418 62.4647 31.7574C62.3851 31.7729 62.3026 31.7649 62.2276 31.7345C62.1527 31.704 62.0886 31.6524 62.0435 31.5861C61.9984 31.5199 61.9744 31.4421 61.9744 31.3624C61.9744 31.2556 62.0176 31.1532 62.0945 31.0777C62.1715 31.0022 62.2758 30.9597 62.3846 30.9597ZM64.0256 31.5638C64.1068 31.5638 64.1861 31.5874 64.2536 31.6316C64.321 31.6759 64.3736 31.7388 64.4047 31.8123C64.4357 31.8859 64.4438 31.9669 64.428 32.045C64.4122 32.1231 64.3731 32.1949 64.3157 32.2512C64.2584 32.3075 64.1853 32.3458 64.1057 32.3614C64.0261 32.3769 63.9436 32.369 63.8686 32.3385C63.7937 32.308 63.7296 32.2564 63.6845 32.1902C63.6394 32.1239 63.6154 32.0461 63.6154 31.9664C63.6154 31.8596 63.6586 31.7572 63.7355 31.6817C63.8125 31.6062 63.9168 31.5638 64.0256 31.5638ZM60.3333 27.6376C60.4145 27.6376 60.4938 27.6612 60.5613 27.7054C60.6287 27.7497 60.6813 27.8126 60.7124 27.8862C60.7434 27.9597 60.7515 28.0407 60.7357 28.1188C60.7199 28.1969 60.6808 28.2687 60.6234 28.325C60.5661 28.3813 60.493 28.4197 60.4134 28.4352C60.3338 28.4507 60.2513 28.4428 60.1763 28.4123C60.1014 28.3818 60.0373 28.3302 59.9922 28.264C59.9471 28.1978 59.9231 28.1199 59.9231 28.0403C59.9231 27.9335 59.9663 27.8311 60.0432 27.7555C60.1202 27.68 60.2245 27.6376 60.3333 27.6376ZM59.5128 25.8255C59.594 25.8255 59.6733 25.8491 59.7407 25.8934C59.8082 25.9376 59.8608 26.0005 59.8918 26.0741C59.9229 26.1477 59.931 26.2286 59.9152 26.3068C59.8994 26.3849 59.8603 26.4566 59.8029 26.5129C59.7455 26.5692 59.6724 26.6076 59.5929 26.6231C59.5133 26.6387 59.4308 26.6307 59.3558 26.6002C59.2809 26.5697 59.2168 26.5181 59.1717 26.4519C59.1266 26.3857 59.1026 26.3078 59.1026 26.2282C59.1026 26.1214 59.1458 26.019 59.2227 25.9435C59.2997 25.8679 59.404 25.8255 59.5128 25.8255ZM59.2051 24.1141C59.2863 24.1141 59.3656 24.1377 59.4331 24.182C59.5005 24.2262 59.5531 24.2891 59.5842 24.3627C59.6152 24.4363 59.6233 24.5172 59.6075 24.5953C59.5917 24.6735 59.5526 24.7452 59.4952 24.8015C59.4378 24.8578 59.3647 24.8962 59.2852 24.9117C59.2056 24.9273 59.1231 24.9193 59.0481 24.8888C58.9732 24.8583 58.9091 24.8067 58.864 24.7405C58.8189 24.6743 58.7949 24.5964 58.7949 24.5168C58.7949 24.41 58.8381 24.3076 58.915 24.232C58.992 24.1565 59.0963 24.1141 59.2051 24.1141ZM60.1795 24.6174C60.2505 24.6174 60.3199 24.6381 60.3789 24.6768C60.438 24.7155 60.484 24.7706 60.5111 24.835C60.5383 24.8993 60.5454 24.9702 60.5316 25.0385C60.5177 25.1069 60.4835 25.1697 60.4333 25.2189C60.3831 25.2682 60.3192 25.3018 60.2495 25.3154C60.1799 25.329 60.1077 25.322 60.0421 25.2953C59.9765 25.2687 59.9205 25.2235 59.881 25.1655C59.8416 25.1076 59.8205 25.0395 59.8205 24.9698C59.8205 24.8763 59.8583 24.7867 59.9257 24.7207C59.993 24.6546 60.0843 24.6174 60.1795 24.6174ZM60.4872 26.3289C60.5582 26.3289 60.6276 26.3495 60.6866 26.3882C60.7457 26.427 60.7917 26.482 60.8188 26.5464C60.846 26.6108 60.8531 26.6816 60.8393 26.75C60.8254 26.8183 60.7912 26.8811 60.741 26.9304C60.6908 26.9796 60.6268 27.0132 60.5572 27.0268C60.4876 27.0404 60.4154 27.0334 60.3498 27.0067C60.2842 26.9801 60.2281 26.9349 60.1887 26.877C60.1493 26.819 60.1282 26.7509 60.1282 26.6812C60.1282 26.5878 60.166 26.4981 60.2333 26.4321C60.3007 26.366 60.392 26.3289 60.4872 26.3289ZM60.9487 25.3221C61.0096 25.3221 61.0691 25.3399 61.1197 25.373C61.1703 25.4062 61.2097 25.4534 61.233 25.5086C61.2563 25.5638 61.2624 25.6245 61.2505 25.6831C61.2386 25.7417 61.2093 25.7955 61.1663 25.8377C61.1233 25.88 61.0684 25.9087 61.0087 25.9204C60.9491 25.932 60.8872 25.926 60.831 25.9032C60.7747 25.8803 60.7267 25.8416 60.6929 25.792C60.6591 25.7423 60.641 25.6839 60.641 25.6242C60.641 25.5441 60.6734 25.4672 60.7311 25.4106C60.7888 25.354 60.8671 25.3221 60.9487 25.3221V25.3221ZM63.0513 32.1678C63.1223 32.1678 63.1917 32.1884 63.2507 32.2272C63.3098 32.2659 63.3558 32.3209 63.3829 32.3853C63.4101 32.4497 63.4172 32.5205 63.4034 32.5889C63.3895 32.6572 63.3553 32.72 63.3051 32.7693C63.2549 32.8186 63.1909 32.8521 63.1213 32.8657C63.0517 32.8793 62.9795 32.8723 62.9139 32.8457C62.8483 32.819 62.7923 32.7738 62.7528 32.7159C62.7134 32.6579 62.6923 32.5898 62.6923 32.5201C62.6923 32.4267 62.7301 32.3371 62.7975 32.271C62.8648 32.2049 62.9561 32.1678 63.0513 32.1678V32.1678ZM61.4103 31.5638C61.4813 31.5638 61.5507 31.5844 61.6097 31.6231C61.6687 31.6619 61.7147 31.7169 61.7419 31.7813C61.7691 31.8457 61.7762 31.9165 61.7623 31.9849C61.7485 32.0532 61.7143 32.116 61.6641 32.1653C61.6139 32.2145 61.5499 32.2481 61.4803 32.2617C61.4107 32.2753 61.3385 32.2683 61.2729 32.2416C61.2073 32.215 61.1512 32.1698 61.1118 32.1119C61.0723 32.0539 61.0513 31.9858 61.0513 31.9161C61.0513 31.8227 61.0891 31.733 61.1564 31.667C61.2237 31.6009 61.3151 31.5638 61.4103 31.5638V31.5638ZM62.1795 32.4698C62.2403 32.4698 62.2998 32.4875 62.3504 32.5207C62.401 32.5539 62.4405 32.601 62.4638 32.6562C62.4871 32.7114 62.4931 32.7722 62.4813 32.8307C62.4694 32.8893 62.4401 32.9431 62.3971 32.9854C62.354 33.0276 62.2992 33.0564 62.2395 33.068C62.1798 33.0797 62.118 33.0737 62.0617 33.0508C62.0055 33.028 61.9575 32.9893 61.9237 32.9396C61.8898 32.8899 61.8718 32.8315 61.8718 32.7718C61.8718 32.6917 61.9042 32.6149 61.9619 32.5583C62.0196 32.5016 62.0979 32.4698 62.1795 32.4698V32.4698ZM56.3846 29.7517C56.4556 29.7517 56.525 29.7723 56.5841 29.8111C56.6431 29.8498 56.6891 29.9048 56.7163 29.9692C56.7434 30.0336 56.7505 30.1044 56.7367 30.1728C56.7228 30.2411 56.6887 30.3039 56.6384 30.3532C56.5882 30.4024 56.5243 30.436 56.4546 30.4496C56.385 30.4632 56.3128 30.4562 56.2472 30.4295C56.1816 30.4029 56.1256 30.3577 56.0861 30.2998C56.0467 30.2418 56.0256 30.1737 56.0256 30.104C56.0256 30.0106 56.0635 29.921 56.1308 29.8549C56.1981 29.7888 56.2894 29.7517 56.3846 29.7517V29.7517ZM55.0513 30.8591C55.1223 30.8591 55.1917 30.8797 55.2507 30.9184C55.3098 30.9572 55.3558 31.0122 55.3829 31.0766C55.4101 31.141 55.4172 31.2118 55.4034 31.2802C55.3895 31.3485 55.3553 31.4113 55.3051 31.4606C55.2549 31.5098 55.1909 31.5434 55.1213 31.557C55.0517 31.5706 54.9795 31.5636 54.9139 31.5369C54.8483 31.5103 54.7922 31.4651 54.7528 31.4072C54.7134 31.3492 54.6923 31.2811 54.6923 31.2114C54.6923 31.118 54.7301 31.0283 54.7975 30.9623C54.8648 30.8962 54.9561 30.8591 55.0513 30.8591ZM55.2051 29.953C55.266 29.953 55.3255 29.9707 55.3761 30.0039C55.4267 30.0371 55.4661 30.0843 55.4894 30.1395C55.5127 30.1946 55.5188 30.2554 55.5069 30.314C55.495 30.3725 55.4657 30.4264 55.4227 30.4686C55.3797 30.5108 55.3248 30.5396 55.2652 30.5512C55.2055 30.5629 55.1436 30.5569 55.0874 30.5341C55.0312 30.5112 54.9831 30.4725 54.9493 30.4228C54.9155 30.3732 54.8974 30.3148 54.8974 30.255C54.8974 30.1749 54.9299 30.0981 54.9876 30.0415C55.0453 29.9848 55.1235 29.953 55.2051 29.953ZM56.5385 23.5101C56.6602 23.5101 56.7792 23.5455 56.8804 23.6119C56.9816 23.6782 57.0604 23.7726 57.107 23.8829C57.1536 23.9933 57.1658 24.1148 57.142 24.2319C57.1183 24.3491 57.0597 24.4567 56.9736 24.5412C56.8875 24.6257 56.7779 24.6832 56.6585 24.7065C56.5391 24.7298 56.4154 24.7179 56.303 24.6721C56.1905 24.6264 56.0944 24.549 56.0268 24.4497C55.9592 24.3503 55.9231 24.2336 55.9231 24.1141C55.9231 23.9539 55.9879 23.8003 56.1033 23.687C56.2187 23.5737 56.3753 23.5101 56.5385 23.5101Z" fill="black"/>
  <path d="M30.875 36.325C30.875 37.7083 30.425 38.8333 29.525 39.7C28.625 40.5667 27.4583 41.0917 26.025 41.275V43.5H24.45V41.3C23.1 41.2 21.9417 40.825 20.975 40.175C20.0083 39.525 19.3083 38.65 18.875 37.55L20.875 36.4C21.4583 37.95 22.65 38.825 24.45 39.025V32.975C23.0833 32.4917 22 31.9417 21.2 31.325C20.2167 30.5583 19.725 29.4417 19.725 27.975C19.725 26.625 20.175 25.525 21.075 24.675C21.9917 23.8083 23.1167 23.3167 24.45 23.2V21H26.025V23.225C28.1417 23.5083 29.6417 24.625 30.525 26.575L28.575 27.675C28.0917 26.4583 27.2417 25.7333 26.025 25.5V31.25C26.775 31.5167 27.3833 31.7667 27.85 32C28.35 32.25 28.8417 32.5583 29.325 32.925C30.3583 33.675 30.875 34.8083 30.875 36.325ZM22.025 27.975C22.025 28.5917 22.2083 29.1083 22.575 29.525C22.9583 29.925 23.5833 30.3 24.45 30.65V25.475C23.7 25.575 23.1083 25.85 22.675 26.3C22.2417 26.7333 22.025 27.2917 22.025 27.975ZM26.025 33.55V38.975C26.8083 38.8583 27.425 38.5667 27.875 38.1C28.325 37.6333 28.55 37.05 28.55 36.35C28.55 35.6833 28.35 35.15 27.95 34.75C27.5667 34.3333 26.925 33.9333 26.025 33.55Z" fill="black"/>
  <path d="M50.485 14.405L51.64 15.065C51.35 15.755 50.925 16.285 50.365 16.655C49.805 17.015 49.15 17.195 48.4 17.195C47.31 17.195 46.41 16.83 45.7 16.1C45 15.36 44.56 14.345 44.38 13.055H43.285V12.08H44.29V11.75C44.29 11.51 44.295 11.355 44.305 11.285H43.285V10.325H44.395C44.595 9.075 45.045 8.095 45.745 7.385C46.445 6.665 47.33 6.305 48.4 6.305C49.94 6.305 51.015 7 51.625 8.39L50.47 9.05C50.05 8.12 49.36 7.655 48.4 7.655C47.72 7.655 47.155 7.885 46.705 8.345C46.265 8.805 45.965 9.465 45.805 10.325H49.36V11.285H45.7C45.69 11.355 45.685 11.51 45.685 11.75V12.08H49.36V13.055H45.79C45.93 13.945 46.225 14.63 46.675 15.11C47.125 15.59 47.7 15.83 48.4 15.83C49.38 15.83 50.075 15.355 50.485 14.405Z" fill="black"/>
  </svg>
  