<svg width="74" height="75" viewBox="0 0 74 75" fill="none" xmlns="http://www.w3.org/2000/svg">
  <circle cx="34.855" cy="13.4058" r="2.18116" stroke="black"/>
  <circle cx="44.5073" cy="13.4058" r="2.18116" stroke="black"/>
  <circle cx="55.2319" cy="13.4058" r="2.18116" stroke="black"/>
  <circle cx="55.2319" cy="23.0581" r="2.18116" stroke="black"/>
  <circle cx="31.6372" cy="65.9565" r="2.18116" transform="rotate(-180 31.6372 65.9565)" stroke="black"/>
  <circle cx="21.9849" cy="65.9565" r="2.18116" transform="rotate(-180 21.9849 65.9565)" stroke="black"/>
  <circle cx="11.2602" cy="65.9565" r="2.18116" transform="rotate(-180 11.2602 65.9565)" stroke="black"/>
  <circle cx="11.2602" cy="56.3042" r="2.18116" transform="rotate(-180 11.2602 56.3042)" stroke="black"/>
  <path d="M16.0879 49.3338L11.3503 45.5437C10.9851 45.2515 10.4661 45.2515 10.1009 45.5437L5.36328 49.3338" stroke="black"/>
  <path d="M62.2032 32.174L57.4655 35.9641C57.1003 36.2563 56.5814 36.2563 56.2161 35.9641L51.4785 32.174" stroke="black"/>
  <circle cx="16.0877" cy="9.65217" r="9.65217" fill="#FFD011"/>
  <path d="M34.3188 35.3912H0V31.1249C0 28.5317 1.64087 26.2034 4.08501 25.3315L11.8539 22.5559V18.7058H13.9989V24.0681L4.80464 27.3509C3.21417 27.9193 2.14493 29.4358 2.14493 31.1249V33.2462H32.1739V31.1249C32.1739 29.4358 31.1057 27.9193 29.5153 27.3498L20.321 24.067V18.4141H22.466V22.5559L30.237 25.3315C32.679 26.2044 34.3188 28.5317 34.3188 31.1249V35.3912Z" fill="black"/>
  <path d="M17.16 21.4493C11.8385 21.4493 7.50781 16.6378 7.50781 10.7236C7.50781 4.81145 11.8375 0 17.16 0C22.4825 0 26.8122 4.81042 26.8122 10.7236C26.8111 16.6378 22.4814 21.4493 17.16 21.4493ZM17.16 2.04888C13.0343 2.04888 9.67806 5.94084 9.67806 10.7246C9.67806 15.5095 13.0343 19.4024 17.16 19.4024C21.2856 19.4024 24.6419 15.5095 24.6419 10.7246C24.6408 5.94084 21.2845 2.04888 17.16 2.04888Z" fill="black"/>
  <path d="M23.1385 11.2107C21.1244 11.2107 19.5243 10.3559 18.1644 8.55633C16.6479 10.0181 14.1512 11.0627 11.8679 11.0627C10.4802 11.0627 9.28009 10.7731 8.0918 10.1511L9.08704 8.25175C9.96754 8.71291 10.8255 8.91775 11.8679 8.91775C13.9721 8.91775 16.5578 7.63508 17.2935 6.22586L18.2019 4.48633L19.1757 6.19047C20.5817 8.65285 21.992 9.39285 24.3654 8.93812C24.6024 8.89308 24.819 8.89094 25.0292 8.89094C25.1011 8.89094 25.174 8.89523 25.2523 8.88557L25.5118 11.0133C25.337 11.0359 25.1751 11.0369 25.0088 11.0359C24.9338 11.0326 24.8523 11.0284 24.7675 11.0444C24.197 11.1538 23.6543 11.2107 23.1385 11.2107Z" fill="black"/>
  <circle cx="55.7694" cy="48.2616" r="9.65217" fill="#FFD011"/>
  <path d="M74.0005 74.0015H39.6816V69.7353C39.6816 67.142 41.3225 64.8137 43.7667 63.9418L51.5356 61.1663V57.3161H53.6805V62.6784L44.4863 65.9613C42.8958 66.5297 41.8266 68.0461 41.8266 69.7353V71.8566H71.8556V69.7353C71.8556 68.0461 70.7874 66.5297 69.1969 65.9602L60.0027 62.6774V57.0244H62.1476V61.1663L69.9187 63.9418C72.3607 64.8148 74.0005 67.142 74.0005 69.7353V74.0015Z" fill="black"/>
  <path d="M56.8416 60.0596C51.5202 60.0596 47.1895 55.2482 47.1895 49.334C47.1895 43.4218 51.5191 38.6104 56.8416 38.6104C62.1642 38.6104 66.4938 43.4208 66.4938 49.334C66.4927 55.2482 62.1631 60.0596 56.8416 60.0596ZM56.8416 40.6592C52.716 40.6592 49.3597 44.5512 49.3597 49.335C49.3597 54.1198 52.716 58.0128 56.8416 58.0128C60.9673 58.0128 64.3236 54.1198 64.3236 49.335C64.3225 44.5512 60.9662 40.6592 56.8416 40.6592Z" fill="black"/>
  <path d="M62.8201 49.82C60.806 49.82 59.2059 48.9653 57.846 47.1657C56.3296 48.6275 53.8329 49.6721 51.5496 49.6721C50.1618 49.6721 48.9617 49.3825 47.7734 48.7605L48.7687 46.8611C49.6492 47.3223 50.5071 47.5271 51.5496 47.5271C53.6538 47.5271 56.2395 46.2445 56.9752 44.8352L57.8836 43.0957L58.8573 44.7998C60.2633 47.2622 61.6736 48.0022 64.047 47.5475C64.284 47.5025 64.5007 47.5003 64.7109 47.5003C64.7827 47.5003 64.8556 47.5046 64.9339 47.4949L65.1935 49.6227C65.0187 49.6452 64.8567 49.6463 64.6905 49.6452C64.6154 49.642 64.5339 49.6377 64.4492 49.6538C63.8786 49.7632 63.336 49.82 62.8201 49.82Z" fill="black"/>
  </svg>
  