<svg width="1620" height="390" viewBox="0 0 1620 390" fill="none" xmlns="http://www.w3.org/2000/svg">
  <g clip-path="url(#clip0_1008_2084)">
  <g opacity="0.5">
  <path d="M-424 331.128C-335.085 330.963 -239.72 334.16 -152.067 325.835C-14.3578 312.754 115.813 282.294 252.497 266.692C303.436 260.879 351.41 257.275 400.883 268.069C441.019 276.88 475.226 291.997 507.934 307.105C565.828 333.813 628.043 369.315 708.221 372.303C759.46 374.218 810.982 359.534 855.235 347.103C904.329 333.311 951.53 317.596 1000.61 303.787C1045.71 291.105 1099.33 275.546 1151.69 278.794C1197.96 281.662 1239.58 297.766 1274.88 313.273C1343.76 343.594 1419.11 393.719 1516.73 388.642C1633.72 382.578 1728.74 336.075 1846.97 331.093" stroke="url(#paint0_linear_1008_2084)" stroke-opacity="0.2" stroke-miterlimit="10"/>
  <path d="M-423.983 320.368C-336.661 320.204 -242.306 323.409 -156.34 314.928C-16.2022 301.11 115.483 268.572 254.453 251.999C305.156 245.935 353.493 242.063 402.461 253.628C442.55 263.097 475.731 279.513 507.257 295.661C562.738 324.067 622.603 362.514 703.759 365.832C756.401 367.963 809.422 352.058 854.368 338.907C905.102 324.05 953.723 307.14 1004.46 292.265C1050.19 278.846 1105.39 262.066 1159.15 265.488C1205.91 268.468 1246.82 285.577 1281.15 301.977C1347.91 333.848 1420.96 387.568 1520.14 382.153C1637.13 375.769 1728.52 325.531 1846.99 320.403" stroke="url(#paint1_linear_1008_2084)" stroke-opacity="0.2" stroke-miterlimit="10"/>
  <path d="M-423.957 309.8C-337.865 309.661 -244.093 312.927 -159.389 304.515C-18.0684 290.481 113.979 256.236 254.022 239.213C304.031 233.149 353.267 229.198 401.541 240.842C441.961 250.588 474.685 267.888 505.627 284.72C560.225 314.469 618.324 354.458 701.183 357.68C754.992 359.777 808.155 343.707 853.732 329.959C905.539 314.365 955.058 296.588 1006.85 280.978C1053.17 267.013 1108.6 249.964 1163.47 253.36C1210.78 256.288 1250.99 273.709 1284.9 290.81C1351.14 324.206 1420.7 379.286 1522.2 373.924C1639.49 367.73 1728.12 314.4 1847.08 309.817" stroke="url(#paint2_linear_1008_2084)" stroke-opacity="0.2" stroke-miterlimit="10"/>
  <path d="M-423.941 299.404C-338.165 299.109 -244.692 302.782 -160.351 294.206C-19.9924 279.903 110.368 244.636 249.307 227.214C299.174 220.968 348.378 217.226 396.62 228.73C437.624 238.528 470.995 256.036 502.394 273.077C558.001 303.259 616.715 343.759 700.662 347.536C754.85 349.97 807.698 334.099 853.48 320.134C905.365 304.298 954.79 286.175 1006.66 270.33C1053.2 256.106 1108.35 239.291 1163.63 242.929C1211.25 246.065 1251.23 263.521 1285.2 280.813C1351.71 314.677 1419.95 369.029 1522.25 363.978C1639.87 358.191 1727.58 303.406 1847.03 299.404" stroke="url(#paint3_linear_1008_2084)" stroke-opacity="0.2" stroke-miterlimit="10"/>
  <path d="M-423.926 289.242C-337.787 288.705 -244.598 293.34 -159.957 284.165C-22.0901 269.222 105.337 233.374 241.737 215.337C292.203 208.658 340.114 205.184 389.05 216.767C430.795 226.634 465.349 243.96 497.899 260.853C555.352 290.706 616.542 331.613 700.489 336.768C754.345 340.077 807.382 324.163 852.77 310.207C904.024 294.448 952.708 276.308 1003.95 260.533C1050.39 246.23 1105.54 229.545 1160.74 233.868C1208.22 237.584 1248.79 255.291 1283.23 272.392C1350.08 305.572 1420.29 358.902 1521.37 353.998C1639.27 348.272 1727.27 293.175 1847 289.242" stroke="url(#paint4_linear_1008_2084)" stroke-opacity="0.2" stroke-miterlimit="10"/>
  <path d="M-423.894 279.253C-337.265 278.612 -244.329 284.538 -159.168 274.827C-24.1081 259.424 99.9909 223.108 233.521 204.656C284.413 197.604 331.204 194.459 380.692 205.894C423.084 215.692 459.025 232.568 492.79 249.331C552.166 278.786 616.179 319.545 700.048 325.947C753.415 330.028 806.042 314.443 851.02 300.547C901.407 284.954 949.066 266.926 999.421 251.341C1045.72 237.012 1100.35 220.804 1155.3 225.742C1202.83 230.021 1244.12 247.806 1279.33 264.725C1347.07 297.212 1419.58 349.208 1519.88 344.374C1638.31 338.673 1726.79 283.221 1847.05 279.305" stroke="url(#paint5_linear_1008_2084)" stroke-opacity="0.2" stroke-miterlimit="10"/>
  <path d="M-423.86 269.456C-336.633 268.84 -243.744 276.334 -157.983 266.129C-26.0146 250.44 94.4731 213.752 224.865 194.979C275.962 187.624 321.87 184.861 371.768 195.967C414.917 205.565 452.198 221.956 487.272 238.416C549.125 267.342 615.377 307.512 699.482 315.093C752.219 319.84 803.915 304.931 848.451 291.131C897.734 275.849 944.179 257.977 993.431 242.678C1039.56 228.341 1093.13 212.938 1147.75 218.421C1195.5 223.229 1237.64 240.945 1273.91 257.63C1343 289.398 1418.1 339.8 1517.87 334.992C1637.01 329.248 1726.18 273.423 1847.16 269.482" stroke="url(#paint6_linear_1008_2084)" stroke-opacity="0.2" stroke-miterlimit="10"/>
  <path d="M-423.845 259.848C-335.908 259.363 -243.05 268.658 -156.517 258.012C-27.8599 242.184 88.7954 205.167 215.828 186.29C266.893 178.684 312.171 176.319 362.321 186.94C406.242 196.244 444.833 212.063 481.342 228.02C546.002 256.288 614.273 295.497 698.693 304.168C800.571 314.642 903.522 260.134 986.081 234.439C1032.04 220.128 1084.16 205.791 1138.3 211.794C1186.43 217.139 1229.45 234.682 1266.97 251.116C1337.81 282.138 1415.72 330.738 1515.23 325.904C1635.26 320.082 1725.28 263.85 1847.13 259.848" stroke="url(#paint7_linear_1008_2084)" stroke-opacity="0.2" stroke-miterlimit="10"/>
  <path d="M-423.811 250.44C-335.101 250.171 -242.227 261.459 -154.795 250.44C-29.5921 234.604 83.0418 197.413 206.542 178.476C257.433 170.679 302.269 168.738 352.562 178.744C397.287 187.659 437.219 202.776 475.163 218.231C542.63 245.693 612.935 283.593 697.781 293.339C798.114 304.844 896.633 251.913 977.662 226.634C1022.47 212.678 1074.7 198.609 1127.36 205.799C1176.25 212.47 1219.32 228.644 1258.96 245.103C1331.84 275.338 1412.74 321.971 1512.26 317.085C1633.31 311.151 1724.29 254.494 1847.16 250.379" stroke="url(#paint8_linear_1008_2084)" stroke-opacity="0.2" stroke-miterlimit="10"/>
  <path d="M-423.782 241.214C-334.237 241.214 -241.269 254.668 -152.859 243.241C-31.2197 227.518 77.2823 190.171 197.139 171.338C405.311 138.6 513.908 259.458 696.768 282.589C795.335 295.072 888.871 244.047 968.433 219.279C1013.03 205.418 1063.25 192.796 1115.24 200.393C1164.75 207.627 1208.83 223.446 1250.07 239.594C1325.21 269.048 1409.25 313.559 1508.97 308.595C1631.15 302.531 1723.2 245.433 1847.2 241.214" stroke="url(#paint9_linear_1008_2084)" stroke-opacity="0.2" stroke-miterlimit="10"/>
  <path d="M-423.755 232.187C-333.342 232.551 -240.216 248.213 -150.749 236.449C-32.7378 220.933 71.6165 183.5 187.736 164.831C391.603 132.068 515.765 247.13 695.676 271.916C792.539 285.274 880.461 236.51 958.573 212.218C1002.98 198.409 1051 187.451 1102.26 195.395C1152.43 203.191 1197.62 218.612 1240.52 234.422C1318.08 263.01 1405.32 305.381 1505.47 300.304C1628.84 294.058 1722.04 236.544 1847.25 232.187" stroke="url(#paint10_linear_1008_2084)" stroke-opacity="0.2" stroke-miterlimit="10"/>
  <path d="M-423.723 223.351C-332.411 224.087 -239.096 242.037 -148.509 229.978C-34.1092 214.748 65.9712 177.272 178.495 158.854C378.04 126.185 517.563 234.959 694.557 261.399C789.685 275.606 871.63 229.241 948.37 205.427C992.622 191.696 1038.26 182.495 1088.73 190.699C1139.59 199.007 1185.95 214.09 1230.55 229.51C1310.61 257.232 1401.07 297.394 1501.71 292.205C1626.3 285.768 1720.74 227.821 1847.19 223.316" stroke="url(#paint11_linear_1008_2084)" stroke-opacity="0.2" stroke-miterlimit="10"/>
  <path d="M-423.69 214.705C-331.495 215.822 -237.912 236.068 -146.127 223.758C-35.2598 208.875 60.6888 171.381 169.585 153.275C364.888 120.797 519.33 223.039 693.422 251.064C786.832 266.103 862.625 222.207 938.056 198.851C982.119 185.207 1025.54 177.817 1075.17 186.316C1126.74 195.152 1174.32 209.854 1220.59 224.893C1303.15 251.748 1396.79 289.692 1498.07 284.373C1623.97 277.755 1719.57 219.4 1847.28 214.705" stroke="url(#paint12_linear_1008_2084)" stroke-opacity="0.2" stroke-miterlimit="10"/>
  <path d="M-423.658 206.258C-330.611 207.748 -236.713 230.238 -143.871 217.719C-36.4104 203.226 55.485 165.741 160.912 147.99C352.351 115.764 521.113 211.352 692.382 240.945C784.088 256.799 853.716 215.372 927.916 192.432C971.79 178.874 1013.08 173.295 1061.76 182.036C1114.04 191.41 1162.82 205.773 1210.75 220.396C1295.73 246.334 1392.5 282.138 1494.48 276.706C1621.63 269.906 1718.42 211.075 1847.38 206.276" stroke="url(#paint13_linear_1008_2084)" stroke-opacity="0.2" stroke-miterlimit="10"/>
  <path d="M-423.627 197.994C-329.65 199.839 -235.531 224.485 -141.553 211.794C-37.3254 197.716 50.6905 160.257 152.837 142.888C340.602 110.956 522.863 199.908 691.262 231.069C781.438 247.754 844.836 208.623 918.012 186.142C961.744 172.715 1000.87 168.816 1048.73 177.809C1101.69 187.719 1151.65 201.797 1201.14 215.995C1288.46 241.04 1388.21 274.74 1490.9 269.169C1619.25 262.196 1717.17 202.94 1847.31 197.994" stroke="url(#paint14_linear_1008_2084)" stroke-opacity="0.2" stroke-miterlimit="10"/>
  <path d="M-423.596 189.929C-328.735 192.077 -234.348 218.751 -139.314 205.929C-38.0668 192.276 46.3061 154.817 145.393 137.855C241.515 121.395 343.772 139.977 433.554 159.833C520.135 178.987 602.442 204.11 690.316 221.48C779.357 239.083 836.147 201.797 908.77 179.897C1005.21 150.832 1103.98 187.694 1192.25 211.595C1281.68 235.782 1384.24 267.472 1487.6 261.78C1617.09 254.659 1716.08 194.988 1847.38 189.92" stroke="url(#paint15_linear_1008_2084)" stroke-opacity="0.2" stroke-miterlimit="10"/>
  <path d="M-423.563 182.045C-327.82 184.444 -233.417 212.963 -137.169 200.047C-38.6182 186.809 42.3956 149.376 138.817 132.786C234.056 116.379 339.01 134.199 429.218 152.382C517.549 170.194 601.622 193.714 689.48 212.218C777.338 230.723 828.656 195.265 900.349 173.676C994.595 145.305 1097.48 184.938 1184.22 207.159C1275.53 230.549 1380.69 260.316 1484.62 254.546C1615.12 247.295 1715.09 187.225 1847.34 182.045" stroke="url(#paint16_linear_1008_2084)" stroke-opacity="0.2" stroke-miterlimit="10"/>
  <path d="M-423.53 174.361C-326.888 176.96 -232.564 207.073 -135.196 194.078C-38.9949 181.248 39.0382 143.832 132.905 127.563C227.418 111.233 334.769 128.326 425.387 145.002C515.28 161.557 601.04 183.665 688.757 203.304C730.139 212.565 760.466 212.946 800.476 201C832.995 191.289 860.499 177.185 892.971 167.405C936.293 154.341 970.799 154.705 1016.17 164.416C1070.69 176.102 1123.81 189.539 1177.3 202.594C1270.14 225.187 1377.59 253.221 1481.99 247.399C1613.39 240.07 1714.19 179.602 1847.39 174.361" stroke="url(#paint17_linear_1008_2084)" stroke-opacity="0.2" stroke-miterlimit="10"/>
  <path d="M-423.499 166.859C-325.958 169.457 -231.917 201.008 -133.414 187.97C-39.1214 175.487 36.2464 137.933 128.221 122.079C222.245 105.87 331.567 122.252 422.548 137.673C513.529 153.093 600.882 174.058 688.315 194.849C728.719 204.456 758.257 205.816 797.921 193.931C829.367 184.505 855.609 170.592 886.977 161.098C930.063 148.051 964.033 149.437 1008.62 159.469C1063.4 171.796 1117.34 185.207 1171.84 197.898C1265.85 219.781 1375.39 246.256 1479.95 240.417C1612.08 233.044 1713.56 172.212 1847.41 166.936" stroke="url(#paint18_linear_1008_2084)" stroke-opacity="0.2" stroke-miterlimit="10"/>
  <path d="M-423.47 159.564C-325.014 162.094 -231.51 194.737 -131.902 181.664C-39.0133 169.458 34.0047 131.617 124.702 116.232C218.6 100.283 329.105 115.92 420.653 130.24C512.943 144.664 601.054 164.754 688.123 186.689C727.707 196.651 756.915 198.748 796.278 186.862C826.873 177.636 852.059 163.809 882.559 154.497C925.44 141.407 959.378 143.529 1003.28 153.942C1058.15 166.937 1112.72 180.382 1168.05 192.805C1262.68 214.055 1374.05 239.161 1478.53 233.365C1611.18 226.002 1713.15 164.823 1847.56 159.564" stroke="url(#paint19_linear_1008_2084)" stroke-opacity="0.2" stroke-miterlimit="10"/>
  <path d="M-423.436 152.452C-324.081 154.748 -231.381 188.179 -130.67 175.072C-38.7425 163.108 32.6985 125.103 122.307 109.899C215.906 94.0286 327.862 109.328 419.647 122.755C512.883 136.4 601.387 155.944 688.047 179.065C726.985 189.461 756.35 191.973 795.508 180.01C825.472 170.853 849.869 157.018 879.786 147.774C922.509 134.572 956.921 137.067 1000.31 147.956C1055.06 161.696 1110.04 175.236 1165.99 187.451C1260.9 208.165 1373.56 232.144 1477.62 226.435C1610.58 219.149 1712.81 157.642 1847.54 152.452" stroke="url(#paint20_linear_1008_2084)" stroke-opacity="0.2" stroke-miterlimit="10"/>
  <path d="M-423.389 145.521C-323.529 147.583 -231.476 181.378 -130.15 168.149C-38.538 156.194 32.4772 118.224 121.802 103.107C215.306 87.2883 327.766 102.899 419.583 116.041C513.15 129.434 601.371 148.831 688.141 172.056C726.937 182.452 756.712 184.618 795.602 172.732C825.361 163.636 849.601 149.922 879.36 140.8C921.941 127.754 956.983 130.179 999.958 141.381C1054.48 155.588 1109.52 169.232 1165.71 181.326C1260.16 201.658 1374.29 225.369 1477.54 219.443C1610.31 211.837 1713.2 151.369 1847.58 145.547" stroke="url(#paint21_linear_1008_2084)" stroke-opacity="0.2" stroke-miterlimit="10"/>
  <path d="M-423.357 138.703C-323.277 140.661 -231.492 174.681 -129.929 161.297C-38.4594 149.238 32.9185 111.588 122.306 96.5663C215.811 80.8515 328.019 97.1467 419.693 110.375C512.961 123.838 600.803 143.2 688.172 165.325C770.874 186.264 811.862 154.063 879.975 133.982C922.556 121.429 957.819 123.716 1000.4 134.961C1054.68 149.298 1109.63 162.908 1165.8 174.863C1259.7 194.84 1375.31 218.664 1477.82 212.236C1610.03 203.936 1714.18 145.928 1847.66 138.833" stroke="url(#paint22_linear_1008_2084)" stroke-opacity="0.2" stroke-miterlimit="10"/>
  <path d="M-423.326 131.99C-322.946 133.878 -231.382 168.149 -129.504 154.652C-38.0339 142.524 33.6279 105.273 123.063 90.3896C216.567 74.7961 328.444 91.7151 419.977 104.987C512.882 118.458 600.393 137.733 688.267 158.741C770.274 178.354 812.729 146.726 880.889 127.554C923.47 115.547 959.049 117.765 1001.25 129.027C1055.28 143.442 1110.07 156.948 1166.23 168.695C1259.75 188.265 1376.51 211.837 1478.17 204.976C1609.71 196.105 1715.14 140.618 1847.64 132.397" stroke="url(#paint23_linear_1008_2084)" stroke-opacity="0.2" stroke-miterlimit="10"/>
  <path d="M-423.294 125.398C-322.567 127.234 -231.145 161.783 -128.888 148.225C-37.5285 136.114 34.5591 99.2872 124.057 84.56C217.561 69.2263 329.076 86.5698 420.435 99.8503C512.898 113.278 600.22 132.406 688.409 152.253C769.833 170.558 813.739 139.631 882.073 121.352C924.764 109.943 960.61 112.161 1002.5 123.414C1056.23 137.855 1110.9 151.205 1166.97 162.675C1260.25 181.777 1377.73 204.769 1478.69 197.552C1609.59 188.205 1716.23 135.326 1847.72 126.091" stroke="url(#paint24_linear_1008_2084)" stroke-opacity="0.2" stroke-miterlimit="10"/>
  <path d="M-423.263 118.917C-322.11 120.737 -230.861 155.553 -128.084 141.987C-36.8033 129.945 35.7258 93.5345 125.303 79.1018C218.776 64.0368 329.722 81.7701 421.05 95.0072C513.008 108.348 600.062 127.277 688.614 145.929C769.423 162.952 814.874 132.839 883.523 115.547C926.356 104.753 962.487 107.049 1004.11 118.268C1057.42 132.782 1112.12 145.698 1167.98 156.957C1261.18 175.53 1378.99 197.673 1479.37 190.128C1609.41 180.399 1717.36 130.188 1847.71 120.078" stroke="url(#paint25_linear_1008_2084)" stroke-opacity="0.2" stroke-miterlimit="10"/>
  <path d="M-423.213 112.558C-321.603 114.377 -230.385 149.497 -127.104 135.948C-35.9019 124.002 37.1161 88.0762 126.804 73.9381C220.245 59.2108 330.718 77.2214 421.872 90.3979C513.342 103.6 600.159 122.269 688.916 139.708C769.126 155.475 816.217 126.254 885.276 110.011C928.315 99.884 964.713 102.31 1006.1 113.476C1059.09 127.895 1113.59 140.568 1169.32 151.429C1262.57 169.422 1380.36 190.361 1480.21 182.616C1609.42 172.593 1718.6 125.128 1847.81 114.23" stroke="url(#paint26_linear_1008_2084)" stroke-opacity="0.2" stroke-miterlimit="10"/>
  <path d="M-423.182 106.338C-321.051 108.166 -229.849 143.589 -125.984 130.144C-34.8456 118.345 38.6928 82.9393 128.412 69.139C221.806 54.7756 331.695 73.0028 422.771 86.0667C513.562 99.0613 600.348 117.436 689.2 133.636C768.841 148.164 817.667 119.939 887.2 104.796C930.475 95.3708 967.157 97.9784 1008.37 109.128C1060.99 123.408 1115.25 135.797 1170.8 146.214C1264.21 163.541 1381.64 183.084 1481.06 175.158C1609.37 164.935 1719.73 120.268 1847.77 108.703" stroke="url(#paint27_linear_1008_2084)" stroke-opacity="0.2" stroke-miterlimit="10"/>
  <path d="M-423.15 100.24C-320.452 102.111 -229.172 137.872 -124.707 124.497C-33.6315 112.905 40.4431 78.0625 130.257 64.6347C223.587 50.6872 332.878 69.0442 423.748 81.9609C513.909 94.7822 600.6 112.741 689.483 127.693C768.573 140.991 819.228 113.832 889.282 99.8501C932.824 91.187 969.791 93.9939 1010.87 105.048C1063.15 119.159 1117.19 131.217 1172.57 141.13C1266.28 157.789 1383.04 175.678 1482.1 167.613C1609.48 157.217 1720.98 115.452 1847.82 103.289" stroke="url(#paint28_linear_1008_2084)" stroke-opacity="0.2" stroke-miterlimit="10"/>
  <path d="M-423.121 94.2795C-319.808 96.2027 -228.543 132.31 -123.306 119.116C-32.2934 107.699 42.3648 73.4448 132.273 60.4328C225.525 46.9444 334.137 65.3621 424.881 78.1142C514.411 90.7016 601.024 108.21 689.828 121.897C768.381 134.026 820.976 107.976 891.582 95.1977C935.424 87.271 972.674 90.3811 1013.66 101.262C1065.58 115.159 1119.35 126.848 1174.52 136.226C1268.59 152.123 1384.41 168.167 1483.19 160.006C1609.62 149.611 1722.17 110.713 1847.82 98.0479" stroke="url(#paint29_linear_1008_2084)" stroke-opacity="0.2" stroke-miterlimit="10"/>
  <path d="M-423.087 88.466C-319.127 90.4585 -227.768 126.913 -121.868 113.901C-30.8082 102.751 44.4335 69.0867 134.452 56.5252C227.609 43.5306 335.465 61.9397 426.209 74.5011C515.076 86.82 601.626 103.826 690.335 116.24C768.353 127.164 822.998 102.327 894.187 90.8137C938.344 83.6753 975.863 87.0886 1016.82 97.9174C1068.35 111.571 1121.86 122.851 1176.8 131.643C1271.23 146.725 1385.88 160.794 1484.43 152.538C1609.87 142.082 1723.44 106.217 1847.88 93.1181" stroke="url(#paint30_linear_1008_2084)" stroke-opacity="0.2" stroke-miterlimit="10"/>
  <path d="M-423.056 82.8264C-318.449 84.8795 -226.979 121.68 -120.149 108.885C-29.2314 97.9867 46.6411 64.9804 136.754 52.8954C229.801 40.412 336.915 58.7777 427.455 71.0879C515.675 83.1122 602.162 99.5548 690.682 110.704C768.211 120.476 825.016 96.8432 896.757 86.6554C941.23 80.3227 979.048 84.0565 1020.02 94.8074C1071.17 108.188 1124.39 119.028 1179.05 127.199C1274.1 141.406 1387.33 153.274 1485.73 145.036C1610.19 134.64 1724.65 101.79 1847.92 88.3187" stroke="url(#paint31_linear_1008_2084)" stroke-opacity="0.2" stroke-miterlimit="10"/>
  <path d="M-423.024 77.2822C-317.661 79.4567 -226.018 116.613 -118.43 104.06C-27.5285 93.4649 49.0064 61.117 139.183 49.5344C232.151 37.6054 338.461 55.8671 428.874 67.9694C516.432 79.6906 602.855 95.5094 691.139 105.394C768.21 114.057 827.256 91.6976 899.532 82.8699C944.337 77.3689 982.439 81.5012 1023.47 92.1048C1074.23 105.185 1127.16 115.556 1181.53 123.075C1277.16 136.347 1388.82 145.937 1487.08 137.69C1610.57 127.337 1725.85 97.6231 1847.95 83.8402" stroke="url(#paint32_linear_1008_2084)" stroke-opacity="0.2" stroke-miterlimit="10"/>
  <path d="M-422.996 71.92C-316.876 74.207 -225.075 111.718 -116.588 99.4426C-25.7654 89.1595 51.3845 57.496 141.719 46.4419C234.56 35.0759 340.05 53.2078 430.321 65.0415C517.249 76.4335 603.562 91.5852 691.562 100.205C768.239 107.716 829.571 86.7079 902.399 79.197C947.519 74.5449 985.889 79.0844 1027.07 89.5927C1077.43 102.348 1130.05 112.218 1184.09 119.047C1280.3 131.314 1390.25 138.522 1488.47 130.309C1610.99 120.078 1727 93.4997 1847.97 79.4395" stroke="url(#paint33_linear_1008_2084)" stroke-opacity="0.2" stroke-miterlimit="10"/>
  <path d="M-422.967 66.7222C-316.105 69.1306 -224.068 106.997 -114.746 95.0158C-23.9067 85.0619 53.8898 54.1001 144.334 43.5918C237.05 32.8236 341.704 50.7735 431.912 62.33C518.225 73.3928 604.411 87.8168 692.127 95.1804C768.473 101.582 832.139 81.9432 905.488 75.8184C950.939 72.0154 989.577 76.988 1030.91 87.3403C1080.88 99.7655 1133.19 109.126 1186.9 115.253C1283.75 126.454 1391.82 131.201 1490.01 123.05C1611.44 112.948 1728.15 89.5754 1848 75.2813" stroke="url(#paint34_linear_1008_2084)" stroke-opacity="0.2" stroke-miterlimit="10"/>
  <path d="M-422.933 61.6891C-315.298 64.2274 -223.024 102.406 -112.803 90.7884C-21.9643 81.181 56.4788 50.9209 147.034 40.9844C239.623 30.8486 343.425 48.5732 433.523 59.8352C519.252 70.5514 605.281 84.2044 692.619 90.3206C768.696 95.6484 834.681 77.4039 908.503 72.6652C954.238 69.7284 993.175 75.1515 1034.67 85.374C1084.25 97.4456 1136.25 106.27 1189.58 111.666C1287.05 121.742 1393.21 123.985 1491.4 115.894C1611.95 105.966 1729.11 85.8244 1847.93 71.3225" stroke="url(#paint35_linear_1008_2084)" stroke-opacity="0.2" stroke-miterlimit="10"/>
  <path d="M-422.9 56.8379C-314.477 59.5061 -221.935 98.0741 -110.831 86.7602C-20.0081 77.4993 59.129 47.9669 149.794 38.6455C242.226 29.1161 345.161 46.6415 435.243 57.5916C520.404 67.9873 606.244 80.8 693.219 85.6773C769.154 89.9395 837.394 73.1158 911.784 69.7719C957.85 67.7014 996.945 73.601 1038.83 83.6848C1088.03 95.3968 1139.71 103.674 1192.66 108.323C1415.02 128.499 1632.93 94.4616 1848.15 67.6061" stroke="url(#paint36_linear_1008_2084)" stroke-opacity="0.2" stroke-miterlimit="10"/>
  <path d="M-422.869 52.1423C-313.642 54.9578 -220.832 93.8637 -108.813 82.9049C-17.9897 74.0166 61.8255 45.2205 152.601 36.4448C244.875 27.5219 346.943 44.8307 436.835 55.4603C521.508 65.5008 607.095 77.4818 693.676 81.0943C769.596 84.291 839.98 68.966 914.922 66.9735C961.256 65.7607 1000.68 72.1713 1042.81 82.1079C1091.44 93.6558 1143.09 101.019 1195.53 105.091C1412.23 121.923 1638.26 90.6757 1848.1 64.0021" stroke="url(#paint37_linear_1008_2084)" stroke-opacity="0.2" stroke-miterlimit="10"/>
  <path d="M-422.838 47.6372C-312.806 50.6 -219.712 89.8437 -106.779 79.2488C-15.9398 70.6983 64.5377 42.6733 155.424 34.4867C247.54 26.1961 348.725 43.271 438.522 53.5454C522.738 63.2047 608.025 74.3368 694.212 76.7711C770.274 78.9196 842.645 65.0413 918.155 64.4609C964.757 64.1057 1004.44 71.0188 1046.89 80.8341C1095.21 92.0008 1146.51 98.732 1198.51 102.076C1297.56 108.443 1398.01 103.02 1496.24 95.2321C1614.11 85.8847 1732.16 75.6276 1848.13 60.5798" stroke="url(#paint38_linear_1008_2084)" stroke-opacity="0.2" stroke-miterlimit="10"/>
  <path d="M-422.807 43.3145C-312.917 46.3725 -219.949 85.6856 -107.126 76.0003C-16.6498 68.2035 63.9855 41.27 154.162 33.1007C245.316 24.8448 344.466 41.2267 433.476 51.1199C519.52 60.6493 606.684 71.2962 694.763 72.6303C772.954 73.8172 849.142 60.7013 927.159 62.2346C974.251 63.1616 1013.5 71.6167 1056.67 81.0075C1101.5 90.7621 1148.85 96.3498 1196.73 98.992C1298.64 104.614 1399.71 96.3238 1500.41 88.5011C1616.64 79.4741 1733.91 72.5264 1848.21 57.4353" stroke="url(#paint39_linear_1008_2084)" stroke-opacity="0.2" stroke-miterlimit="10"/>
  <path d="M-422.792 39.1821C-312.145 42.3874 -218.799 82.0297 -105.14 72.7169C-14.648 65.3013 66.6338 39.0782 156.952 31.5066C247.917 23.9178 346.279 40.0657 435.162 49.6384C520.796 58.8733 607.63 68.6972 695.251 68.6972C773.899 68.6972 851.775 57.3226 930.439 60.2247C977.593 61.9573 1017.18 70.8976 1060.67 80.0891C1105.21 89.4972 1152.24 94.4958 1199.71 96.471C1301.95 100.725 1401.27 89.7831 1501.95 82.1769C1617.42 73.4532 1734.68 69.7368 1848.18 54.4551" stroke="url(#paint40_linear_1008_2084)" stroke-opacity="0.2" stroke-miterlimit="10"/>
  <path d="M-422.757 35.2494C-311.274 38.602 -217.739 78.5648 -103.118 69.6158C-12.5942 62.5468 69.3185 37.06 159.763 30.0776C250.539 23.0518 348.127 39.0872 436.963 48.348C522.125 57.245 608.627 66.1853 695.791 64.9205C775.007 63.7683 854.412 54.1003 933.738 58.3538C980.956 60.8921 1020.86 70.3089 1064.63 79.3012C1108.79 88.3714 1155.6 92.7809 1202.63 94.089C1305.14 96.9565 1402.82 83.4161 1503.47 76.0178C1618.22 67.58 1735.3 67.1122 1848.14 51.64" stroke="url(#paint41_linear_1008_2084)" stroke-opacity="0.2" stroke-miterlimit="10"/>
  <path d="M-422.726 31.5157C-310.47 34.9809 -216.54 75.2815 -101.115 66.7051C-10.5759 59.9739 71.9676 35.1802 162.554 28.8215C253.141 22.4628 349.941 38.2816 438.54 47.2218C523.497 55.7983 609.588 63.8983 696.28 61.36C776.189 59.0209 856.951 51.0856 936.939 56.6733C984.251 59.9739 1024.43 69.9018 1068.62 78.6861C1112.81 87.4705 1159.02 91.2476 1205.61 91.906C1308.12 93.37 1404.51 77.2914 1505.04 70.101C1619.13 61.9404 1736.12 64.7126 1848.2 49.0151" stroke="url(#paint42_linear_1008_2084)" stroke-opacity="0.2" stroke-miterlimit="10"/>
  <path d="M-422.709 27.9812C-309.681 31.6197 -215.42 72.1629 -99.1745 63.9849C-8.588 57.5829 74.5548 33.5429 165.267 27.7213C255.602 21.9257 351.802 37.6405 440.244 46.2776C524.948 54.5422 610.567 61.7932 696.832 58.0074C777.531 54.4642 859.491 48.2528 940.189 55.1486C987.359 59.1856 1028.02 69.6333 1072.52 78.2184C1116.2 86.6389 1162.41 89.8788 1208.49 89.9048C1311 89.9741 1406.16 71.4352 1506.56 64.4354C1620.11 56.5174 1736.81 62.5209 1848.2 46.5722" stroke="url(#paint43_linear_1008_2084)" stroke-opacity="0.2" stroke-miterlimit="10"/>
  <path d="M-422.696 24.6631C-308.911 28.4229 -214.366 69.3039 -97.2851 61.4378C-6.65132 55.3737 77.0907 31.9834 167.914 26.7855C258.153 21.5877 353.392 37.1812 441.849 45.5151C526.38 53.4505 611.573 59.8871 697.334 54.8712C778.899 50.1065 861.916 45.6191 943.355 53.797C990.51 58.5184 1031.51 69.4945 1076.35 77.8803C1119.83 86.0063 1165.64 88.6659 1211.3 88.0768C1313.65 86.7686 1407.82 65.856 1508.07 59.0208C1620.97 51.328 1737.38 60.5629 1848.24 44.2936" stroke="url(#paint44_linear_1008_2084)" stroke-opacity="0.2" stroke-miterlimit="10"/>
  <path d="M-422.662 21.5527C-308.167 25.4425 -213.291 66.6007 -95.4373 59.0812C-4.75619 53.2856 79.6167 30.649 170.487 25.9449C260.537 21.2842 355.003 36.8517 443.414 44.8737C527.786 52.5059 612.554 58.1369 697.825 51.9168C780.306 45.9046 864.347 43.1151 946.355 52.5492C993.462 57.9636 1034.81 69.4595 1080.04 77.6721C1123.25 85.4689 1168.83 87.6173 1214.09 86.4305C1316.18 83.7709 1409.54 60.5885 1509.62 53.9006C1621.98 46.3898 1738.04 58.8299 1848.37 42.2402" stroke="url(#paint45_linear_1008_2084)" stroke-opacity="0.2" stroke-miterlimit="10"/>
  <path d="M-422.648 18.6597C-307.523 22.6707 -212.3 64.1235 -93.6889 56.9071C-2.96046 51.3801 81.8855 29.4279 172.961 25.2436C262.853 21.12 356.626 36.6615 444.894 44.4063C529.156 51.8132 613.498 56.5953 698.265 49.197C781.707 41.92 866.506 40.7938 949.223 51.4494C996.235 57.5135 1037.98 69.5292 1083.51 77.5512C1126.5 85.1227 1171.83 86.6908 1216.61 84.9408C1318.33 80.9645 1411.05 55.6423 1510.94 49.0411C1622.91 41.6688 1738.5 57.297 1848.34 40.3087" stroke="url(#paint46_linear_1008_2084)" stroke-opacity="0.2" stroke-miterlimit="10"/>
  <path d="M-422.634 16C-306.783 20.1063 -211.307 61.8363 -92.034 54.9059C-1.22672 49.6387 84.1397 28.3362 175.31 24.6631C265.06 21.0506 358.107 36.5921 446.296 44.0943C530.48 51.2587 614.411 55.2437 698.705 46.6933C782.999 38.1428 868.634 38.6453 951.998 50.479C998.899 57.1409 1041.05 69.5378 1086.84 77.5251C1129.42 84.9667 1174.81 85.9023 1219.04 83.5893C1320.35 78.3914 1412.55 51.0248 1512.23 44.5102C1623.72 37.2245 1738.97 56.0147 1848.34 38.5673" stroke="url(#paint47_linear_1008_2084)" stroke-opacity="0.2" stroke-miterlimit="10"/>
  </g>
  </g>
  <defs>
  <linearGradient id="paint0_linear_1008_2084" x1="1.63681e+06" y1="13262.1" x2="1.63681e+06" y2="3771.28" gradientUnits="userSpaceOnUse">
  <stop stop-color="#592CB8"/>
  <stop offset="1" stop-color="#2C66B8"/>
  </linearGradient>
  <linearGradient id="paint1_linear_1008_2084" x1="1.63681e+06" y1="14109.6" x2="1.63681e+06" y2="3989.18" gradientUnits="userSpaceOnUse">
  <stop stop-color="#592CB8"/>
  <stop offset="1" stop-color="#2C66B8"/>
  </linearGradient>
  <linearGradient id="paint2_linear_1008_2084" x1="1.63686e+06" y1="14561.6" x2="1.63686e+06" y2="4101.86" gradientUnits="userSpaceOnUse">
  <stop stop-color="#592CB8"/>
  <stop offset="1" stop-color="#2C66B8"/>
  </linearGradient>
  <linearGradient id="paint3_linear_1008_2084" x1="1.63681e+06" y1="14761.8" x2="1.63681e+06" y2="4147.1" gradientUnits="userSpaceOnUse">
  <stop stop-color="#592CB8"/>
  <stop offset="1" stop-color="#2C66B8"/>
  </linearGradient>
  <linearGradient id="paint4_linear_1008_2084" x1="1.63678e+06" y1="14964.7" x2="1.63678e+06" y2="4193.04" gradientUnits="userSpaceOnUse">
  <stop stop-color="#592CB8"/>
  <stop offset="1" stop-color="#2C66B8"/>
  </linearGradient>
  <linearGradient id="paint5_linear_1008_2084" x1="1.63679e+06" y1="15079.2" x2="1.63679e+06" y2="4216.02" gradientUnits="userSpaceOnUse">
  <stop stop-color="#592CB8"/>
  <stop offset="1" stop-color="#2C66B8"/>
  </linearGradient>
  <linearGradient id="paint6_linear_1008_2084" x1="1.63684e+06" y1="15111.4" x2="1.63684e+06" y2="4217.59" gradientUnits="userSpaceOnUse">
  <stop stop-color="#592CB8"/>
  <stop offset="1" stop-color="#2C66B8"/>
  </linearGradient>
  <linearGradient id="paint7_linear_1008_2084" x1="1.63681e+06" y1="15071.8" x2="1.63681e+06" y2="4200.48" gradientUnits="userSpaceOnUse">
  <stop stop-color="#592CB8"/>
  <stop offset="1" stop-color="#2C66B8"/>
  </linearGradient>
  <linearGradient id="paint8_linear_1008_2084" x1="1.63681e+06" y1="14967" x2="1.63681e+06" y2="4166.46" gradientUnits="userSpaceOnUse">
  <stop stop-color="#592CB8"/>
  <stop offset="1" stop-color="#2C66B8"/>
  </linearGradient>
  <linearGradient id="paint9_linear_1008_2084" x1="1.63682e+06" y1="14727.5" x2="1.63682e+06" y2="4097.3" gradientUnits="userSpaceOnUse">
  <stop stop-color="#592CB8"/>
  <stop offset="1" stop-color="#2C66B8"/>
  </linearGradient>
  <linearGradient id="paint10_linear_1008_2084" x1="1.63683e+06" y1="14567.1" x2="1.63683e+06" y2="4049.05" gradientUnits="userSpaceOnUse">
  <stop stop-color="#592CB8"/>
  <stop offset="1" stop-color="#2C66B8"/>
  </linearGradient>
  <linearGradient id="paint11_linear_1008_2084" x1="1.63676e+06" y1="14373.3" x2="1.63676e+06" y2="3992.21" gradientUnits="userSpaceOnUse">
  <stop stop-color="#592CB8"/>
  <stop offset="1" stop-color="#2C66B8"/>
  </linearGradient>
  <linearGradient id="paint12_linear_1008_2084" x1="1.63681e+06" y1="14167.7" x2="1.63681e+06" y2="3932.44" gradientUnits="userSpaceOnUse">
  <stop stop-color="#592CB8"/>
  <stop offset="1" stop-color="#2C66B8"/>
  </linearGradient>
  <linearGradient id="paint13_linear_1008_2084" x1="1.63686e+06" y1="13950.3" x2="1.63686e+06" y2="3869.7" gradientUnits="userSpaceOnUse">
  <stop stop-color="#592CB8"/>
  <stop offset="1" stop-color="#2C66B8"/>
  </linearGradient>
  <linearGradient id="paint14_linear_1008_2084" x1="1.63679e+06" y1="13730" x2="1.63679e+06" y2="3806.31" gradientUnits="userSpaceOnUse">
  <stop stop-color="#592CB8"/>
  <stop offset="1" stop-color="#2C66B8"/>
  </linearGradient>
  <linearGradient id="paint15_linear_1008_2084" x1="1.63681e+06" y1="13443.2" x2="1.63681e+06" y2="3725.55" gradientUnits="userSpaceOnUse">
  <stop stop-color="#592CB8"/>
  <stop offset="1" stop-color="#2C66B8"/>
  </linearGradient>
  <linearGradient id="paint16_linear_1008_2084" x1="1.63676e+06" y1="13237.9" x2="1.63676e+06" y2="3666.32" gradientUnits="userSpaceOnUse">
  <stop stop-color="#592CB8"/>
  <stop offset="1" stop-color="#2C66B8"/>
  </linearGradient>
  <linearGradient id="paint17_linear_1008_2084" x1="1.63678e+06" y1="13054.9" x2="1.63678e+06" y2="3613.02" gradientUnits="userSpaceOnUse">
  <stop stop-color="#592CB8"/>
  <stop offset="1" stop-color="#2C66B8"/>
  </linearGradient>
  <linearGradient id="paint18_linear_1008_2084" x1="1.63676e+06" y1="12911.2" x2="1.63676e+06" y2="3570.13" gradientUnits="userSpaceOnUse">
  <stop stop-color="#592CB8"/>
  <stop offset="1" stop-color="#2C66B8"/>
  </linearGradient>
  <linearGradient id="paint19_linear_1008_2084" x1="1.63686e+06" y1="12787.2" x2="1.63686e+06" y2="3532.37" gradientUnits="userSpaceOnUse">
  <stop stop-color="#592CB8"/>
  <stop offset="1" stop-color="#2C66B8"/>
  </linearGradient>
  <linearGradient id="paint20_linear_1008_2084" x1="1.63681e+06" y1="12725.6" x2="1.63681e+06" y2="3511.1" gradientUnits="userSpaceOnUse">
  <stop stop-color="#592CB8"/>
  <stop offset="1" stop-color="#2C66B8"/>
  </linearGradient>
  <linearGradient id="paint21_linear_1008_2084" x1="1.63681e+06" y1="12696.1" x2="1.63681e+06" y2="3498.24" gradientUnits="userSpaceOnUse">
  <stop stop-color="#592CB8"/>
  <stop offset="1" stop-color="#2C66B8"/>
  </linearGradient>
  <linearGradient id="paint22_linear_1008_2084" x1="1.63684e+06" y1="12614.9" x2="1.63684e+06" y2="3471.69" gradientUnits="userSpaceOnUse">
  <stop stop-color="#592CB8"/>
  <stop offset="1" stop-color="#2C66B8"/>
  </linearGradient>
  <linearGradient id="paint23_linear_1008_2084" x1="1.63681e+06" y1="12492.8" x2="1.63681e+06" y2="3434.37" gradientUnits="userSpaceOnUse">
  <stop stop-color="#592CB8"/>
  <stop offset="1" stop-color="#2C66B8"/>
  </linearGradient>
  <linearGradient id="paint24_linear_1008_2084" x1="1.63684e+06" y1="12314.7" x2="1.63684e+06" y2="3382.21" gradientUnits="userSpaceOnUse">
  <stop stop-color="#592CB8"/>
  <stop offset="1" stop-color="#2C66B8"/>
  </linearGradient>
  <linearGradient id="paint25_linear_1008_2084" x1="1.63681e+06" y1="12101.4" x2="1.63681e+06" y2="3320.81" gradientUnits="userSpaceOnUse">
  <stop stop-color="#592CB8"/>
  <stop offset="1" stop-color="#2C66B8"/>
  </linearGradient>
  <linearGradient id="paint26_linear_1008_2084" x1="1.63684e+06" y1="11846.4" x2="1.63684e+06" y2="3248.37" gradientUnits="userSpaceOnUse">
  <stop stop-color="#592CB8"/>
  <stop offset="1" stop-color="#2C66B8"/>
  </linearGradient>
  <linearGradient id="paint27_linear_1008_2084" x1="1.6368e+06" y1="11562.1" x2="1.6368e+06" y2="3168.29" gradientUnits="userSpaceOnUse">
  <stop stop-color="#592CB8"/>
  <stop offset="1" stop-color="#2C66B8"/>
  </linearGradient>
  <linearGradient id="paint28_linear_1008_2084" x1="1.63681e+06" y1="11240.2" x2="1.63681e+06" y2="3078.28" gradientUnits="userSpaceOnUse">
  <stop stop-color="#592CB8"/>
  <stop offset="1" stop-color="#2C66B8"/>
  </linearGradient>
  <linearGradient id="paint29_linear_1008_2084" x1="1.63679e+06" y1="10882.8" x2="1.63679e+06" y2="2978.94" gradientUnits="userSpaceOnUse">
  <stop stop-color="#592CB8"/>
  <stop offset="1" stop-color="#2C66B8"/>
  </linearGradient>
  <linearGradient id="paint30_linear_1008_2084" x1="1.63681e+06" y1="10514.3" x2="1.63681e+06" y2="2876.79" gradientUnits="userSpaceOnUse">
  <stop stop-color="#592CB8"/>
  <stop offset="1" stop-color="#2C66B8"/>
  </linearGradient>
  <linearGradient id="paint31_linear_1008_2084" x1="1.63681e+06" y1="10116" x2="1.63681e+06" y2="2766.81" gradientUnits="userSpaceOnUse">
  <stop stop-color="#592CB8"/>
  <stop offset="1" stop-color="#2C66B8"/>
  </linearGradient>
  <linearGradient id="paint32_linear_1008_2084" x1="1.63681e+06" y1="9714.67" x2="1.63681e+06" y2="2656.2" gradientUnits="userSpaceOnUse">
  <stop stop-color="#592CB8"/>
  <stop offset="1" stop-color="#2C66B8"/>
  </linearGradient>
  <linearGradient id="paint33_linear_1008_2084" x1="1.63681e+06" y1="9292.33" x2="1.63681e+06" y2="2540.12" gradientUnits="userSpaceOnUse">
  <stop stop-color="#592CB8"/>
  <stop offset="1" stop-color="#2C66B8"/>
  </linearGradient>
  <linearGradient id="paint34_linear_1008_2084" x1="1.63681e+06" y1="8871.91" x2="1.63681e+06" y2="2424.74" gradientUnits="userSpaceOnUse">
  <stop stop-color="#592CB8"/>
  <stop offset="1" stop-color="#2C66B8"/>
  </linearGradient>
  <linearGradient id="paint35_linear_1008_2084" x1="1.63673e+06" y1="8460.33" x2="1.63673e+06" y2="2311.93" gradientUnits="userSpaceOnUse">
  <stop stop-color="#592CB8"/>
  <stop offset="1" stop-color="#2C66B8"/>
  </linearGradient>
  <linearGradient id="paint36_linear_1008_2084" x1="1.63687e+06" y1="8019.51" x2="1.63687e+06" y2="2191.41" gradientUnits="userSpaceOnUse">
  <stop stop-color="#592CB8"/>
  <stop offset="1" stop-color="#2C66B8"/>
  </linearGradient>
  <linearGradient id="paint37_linear_1008_2084" x1="1.63681e+06" y1="7747.74" x2="1.63681e+06" y2="2116.62" gradientUnits="userSpaceOnUse">
  <stop stop-color="#592CB8"/>
  <stop offset="1" stop-color="#2C66B8"/>
  </linearGradient>
  <linearGradient id="paint38_linear_1008_2084" x1="1.63681e+06" y1="7412.83" x2="1.63681e+06" y2="2024.97" gradientUnits="userSpaceOnUse">
  <stop stop-color="#592CB8"/>
  <stop offset="1" stop-color="#2C66B8"/>
  </linearGradient>
  <linearGradient id="paint39_linear_1008_2084" x1="1.63685e+06" y1="7146.62" x2="1.63685e+06" y2="1952.04" gradientUnits="userSpaceOnUse">
  <stop stop-color="#592CB8"/>
  <stop offset="1" stop-color="#2C66B8"/>
  </linearGradient>
  <linearGradient id="paint40_linear_1008_2084" x1="1.63681e+06" y1="6931.27" x2="1.63681e+06" y2="1892.95" gradientUnits="userSpaceOnUse">
  <stop stop-color="#592CB8"/>
  <stop offset="1" stop-color="#2C66B8"/>
  </linearGradient>
  <linearGradient id="paint41_linear_1008_2084" x1="1.63675e+06" y1="6752.22" x2="1.63675e+06" y2="1843.73" gradientUnits="userSpaceOnUse">
  <stop stop-color="#592CB8"/>
  <stop offset="1" stop-color="#2C66B8"/>
  </linearGradient>
  <linearGradient id="paint42_linear_1008_2084" x1="1.63678e+06" y1="6599.92" x2="1.63678e+06" y2="1801.89" gradientUnits="userSpaceOnUse">
  <stop stop-color="#592CB8"/>
  <stop offset="1" stop-color="#2C66B8"/>
  </linearGradient>
  <linearGradient id="paint43_linear_1008_2084" x1="1.63677e+06" y1="6476.03" x2="1.63677e+06" y2="1767.79" gradientUnits="userSpaceOnUse">
  <stop stop-color="#592CB8"/>
  <stop offset="1" stop-color="#2C66B8"/>
  </linearGradient>
  <linearGradient id="paint44_linear_1008_2084" x1="1.63679e+06" y1="6479.92" x2="1.63679e+06" y2="1767.52" gradientUnits="userSpaceOnUse">
  <stop stop-color="#592CB8"/>
  <stop offset="1" stop-color="#2C66B8"/>
  </linearGradient>
  <linearGradient id="paint45_linear_1008_2084" x1="1.63686e+06" y1="6648.66" x2="1.63686e+06" y2="1810.81" gradientUnits="userSpaceOnUse">
  <stop stop-color="#592CB8"/>
  <stop offset="1" stop-color="#2C66B8"/>
  </linearGradient>
  <linearGradient id="paint46_linear_1008_2084" x1="1.63682e+06" y1="6823.5" x2="1.63682e+06" y2="1855.91" gradientUnits="userSpaceOnUse">
  <stop stop-color="#592CB8"/>
  <stop offset="1" stop-color="#2C66B8"/>
  </linearGradient>
  <linearGradient id="paint47_linear_1008_2084" x1="1.63681e+06" y1="7001.42" x2="1.63681e+06" y2="1902" gradientUnits="userSpaceOnUse">
  <stop stop-color="#592CB8"/>
  <stop offset="1" stop-color="#2C66B8"/>
  </linearGradient>
  <clipPath id="clip0_1008_2084">
  <rect width="1620" height="390" fill="white"/>
  </clipPath>
  </defs>
  </svg>
  