<svg width="28" height="28" viewBox="0 0 28 28" fill="none" xmlns="http://www.w3.org/2000/svg">
  <path d="M15.33 15.77H13.494L13.008 11V7.4H15.798V11L15.33 15.77ZM15.942 18.704C15.942 19.124 15.792 19.484 15.492 19.784C15.192 20.084 14.832 20.234 14.412 20.234C13.992 20.234 13.632 20.084 13.332 19.784C13.032 19.484 12.882 19.124 12.882 18.704C12.882 18.284 13.032 17.924 13.332 17.624C13.632 17.324 13.992 17.174 14.412 17.174C14.832 17.174 15.192 17.324 15.492 17.624C15.792 17.924 15.942 18.284 15.942 18.704Z" fill="#FFD004" />
  <circle cx="14" cy="14" r="13" stroke="#FFD004" stroke-width="2" />
</svg>
  